<svg width="36" height="28" viewBox="0 0 36 28" fill="none" xmlns="http://www.w3.org/2000/svg">
<g clip-path="url(#clip0_6723_30596)">
<path d="M0 0.5H36V27.5H0V0.5Z" fill="white"/>
<path d="M15.3008 0.5H20.7008V27.5H15.3008V0.5Z" fill="#FF0000"/>
<path d="M0 11.2998H36V16.6998H0V11.2998Z" fill="#FF0000"/>
<path fill-rule="evenodd" clip-rule="evenodd" d="M8.25711 21.487C8.31336 20.542 8.48211 19.7376 8.48211 19.7376C8.48211 19.7376 7.93086 19.7938 7.64961 19.7938C7.37398 19.7938 6.81711 19.7376 6.81711 19.7376C6.81711 19.7376 6.98586 20.542 7.04211 21.4926C6.09148 21.4363 5.28711 21.2676 5.28711 21.2676C5.28711 21.2676 5.34336 21.6838 5.34336 22.1001C5.34336 22.5163 5.28711 22.9326 5.28711 22.9326C5.28711 22.9326 6.09148 22.7638 7.04211 22.7076C6.98586 23.6582 6.81711 24.4626 6.81711 24.4626C6.81711 24.4626 7.23336 24.4063 7.64961 24.4063C8.06586 24.4063 8.48211 24.4626 8.48211 24.4626C8.48211 24.4626 8.31336 23.6582 8.25711 22.7076C9.20773 22.7638 10.0121 22.9326 10.0121 22.9326C10.0121 22.9326 9.95586 22.3813 9.95586 22.1001C9.95586 21.8245 10.0121 21.2676 10.0121 21.2676C10.0121 21.2676 9.20773 21.4363 8.26273 21.4926L8.25711 21.487ZM28.9571 5.28697C29.0134 4.34197 29.1821 3.5376 29.1821 3.5376C29.1821 3.5376 28.6309 3.59385 28.3496 3.59385C28.074 3.59385 27.5171 3.5376 27.5171 3.5376C27.5171 3.5376 27.6859 4.34197 27.7421 5.28697C26.7915 5.23072 25.9871 5.0676 25.9871 5.0676C25.9871 5.0676 26.0434 5.48385 26.0434 5.9001C26.0434 6.31635 25.9871 6.7326 25.9871 6.7326C25.9871 6.7326 26.7915 6.56385 27.7421 6.5076C27.6859 7.45822 27.5171 8.2626 27.5171 8.2626C27.5171 8.2626 27.9334 8.20635 28.3496 8.20635C28.7659 8.20635 29.1821 8.2626 29.1821 8.2626C29.1821 8.2626 29.0134 7.45822 28.9571 6.51322C29.9077 6.56947 30.7121 6.73822 30.7121 6.73822C30.7121 6.73822 30.6559 6.17572 30.6559 5.9001C30.6559 5.62447 30.7121 5.0676 30.7121 5.0676C30.7121 5.0676 29.9077 5.23635 28.9571 5.2926V5.28697ZM8.25711 5.28697C8.31336 4.34197 8.48211 3.5376 8.48211 3.5376C8.48211 3.5376 7.93086 3.59385 7.64961 3.59385C7.37398 3.59385 6.81711 3.5376 6.81711 3.5376C6.81711 3.5376 6.98586 4.34197 7.04211 5.2926C6.09148 5.23635 5.28711 5.0676 5.28711 5.0676C5.28711 5.0676 5.34336 5.48385 5.34336 5.9001C5.34336 6.31635 5.28711 6.7326 5.28711 6.7326C5.28711 6.7326 6.09148 6.56385 7.04211 6.5076C6.98586 7.45822 6.81711 8.2626 6.81711 8.2626C6.81711 8.2626 7.23336 8.20635 7.64961 8.20635C8.06586 8.20635 8.48211 8.2626 8.48211 8.2626C8.48211 8.2626 8.31336 7.45822 8.25711 6.5076C9.20773 6.56385 10.0121 6.7326 10.0121 6.7326C10.0121 6.7326 9.95586 6.18135 9.95586 5.9001C9.95586 5.62447 10.0121 5.0676 10.0121 5.0676C10.0121 5.0676 9.20773 5.23635 8.26273 5.2926L8.25711 5.28697ZM28.9571 21.487C29.0134 20.542 29.1821 19.7376 29.1821 19.7376C29.1821 19.7376 28.6309 19.7938 28.3496 19.7938C28.074 19.7938 27.5171 19.7376 27.5171 19.7376C27.5171 19.7376 27.6859 20.542 27.7421 21.4926C26.7915 21.4363 25.9871 21.2676 25.9871 21.2676C25.9871 21.2676 26.0434 21.6838 26.0434 22.1001C26.0434 22.5163 25.9871 22.9326 25.9871 22.9326C25.9871 22.9326 26.7915 22.7638 27.7421 22.7076C27.6859 23.6582 27.5171 24.4626 27.5171 24.4626C27.5171 24.4626 27.9334 24.4063 28.3496 24.4063C28.7659 24.4063 29.1821 24.4626 29.1821 24.4626C29.1821 24.4626 29.0134 23.6582 28.9571 22.7076C29.9077 22.7638 30.7121 22.9326 30.7121 22.9326C30.7121 22.9326 30.6559 22.3813 30.6559 22.1001C30.6559 21.8245 30.7121 21.2676 30.7121 21.2676C30.7121 21.2676 29.9077 21.4363 28.9571 21.4926V21.487Z" fill="#FF0000"/>
</g>
<defs>
<clipPath id="clip0_6723_30596">
<rect width="36" height="27" fill="white" transform="translate(0 0.5)"/>
</clipPath>
</defs>
</svg>
