<svg width="36" height="28" viewBox="0 0 36 28" fill="none" xmlns="http://www.w3.org/2000/svg">
<g clip-path="url(#clip0_6723_30166)">
<path d="M0 0.5H36V27.5H0V0.5Z" fill="#00008B"/>
<path d="M2.10938 0.5L8.97188 5.59062L15.8062 0.5H18V2.24375L11.25 7.27812L18 12.2844V14H15.75L9 8.96562L2.27813 14H0V12.3125L6.72187 7.30625L0 2.3V0.5H2.10938Z" fill="white"/>
<path d="M11.925 8.40312L18 12.875V14L10.3781 8.40312H11.925ZM6.75 8.96562L6.91875 9.95L1.51875 14H0L6.75 8.96562ZM18 0.5V0.584375L10.9969 5.87187L11.0531 4.63438L16.5938 0.5H18ZM0 0.5L6.72187 5.45H5.03437L0 1.68125V0.5Z" fill="#FF0000"/>
<path d="M6.77812 0.5V14H11.2781V0.5H6.77812ZM0 5V9.5H18V5H0Z" fill="white"/>
<path d="M0 5.92812V8.62813H18V5.92812H0ZM7.67812 0.5V14H10.3781V0.5H7.67812Z" fill="#FF0000"/>
<path d="M29.6444 22.8144L28.4912 22.9606L28.615 24.1137L27.7825 23.3037L26.9556 24.1193L27.0681 22.9662L25.915 22.8312L26.8881 22.2012L26.275 21.2168L27.3775 21.5825L27.7656 20.4856L28.165 21.5768L29.2619 21.2L28.66 22.19L29.6388 22.8144H29.6444ZM29.4362 16.2218L29.5881 15.4906L29.0369 14.9843L29.7794 14.9L30.0888 14.2193L30.3981 14.9L31.1406 14.9843L30.5894 15.4906L30.7412 16.2218L30.0888 15.8506L29.4362 16.2218ZM23.5806 12.8468L22.4387 12.9706L22.54 14.1125L21.73 13.2968L20.8975 14.09L21.0325 12.9481L19.8962 12.7962L20.8694 12.1887L20.2787 11.2043L21.3644 11.5868L21.7694 10.5125L22.1462 11.5981L23.2375 11.2437L22.6244 12.2168L23.5862 12.8468H23.5806ZM35.0444 11.0018L33.8687 11.1537L33.9981 12.3293L33.1487 11.5025L32.305 12.335L32.4231 11.1537L31.2475 11.0187L32.2431 10.3718L31.6187 9.36497L32.7437 9.74185L33.1375 8.6281L33.5425 9.74185L34.6619 9.35372L34.0431 10.3662L35.0444 11.0018ZM29.6388 6.30497L28.4744 6.43435L28.5812 7.60435L27.7544 6.77185L26.905 7.58185L27.04 6.41747L25.8756 6.25997L26.8713 5.64122L26.2694 4.63435L27.3775 5.02247L27.7881 3.9256L28.1706 5.03372L29.2844 4.6681L28.66 5.6581L29.6388 6.30497ZM13.1631 22.1956L10.5869 22.4993L10.8456 25.0812L9.00063 23.2587L7.14438 25.07L7.42 22.4881L4.84375 22.1618L7.03188 20.7668L5.68188 18.5506L8.13438 19.3943L9.02312 16.9531L9.895 19.4L12.3531 18.5731L10.9862 20.7781L13.1687 22.19L13.1631 22.1956Z" fill="white"/>
</g>
<defs>
<clipPath id="clip0_6723_30166">
<rect width="36" height="27" fill="white" transform="translate(0 0.5)"/>
</clipPath>
</defs>
</svg>
