<svg width="34" height="26" viewBox="0 0 34 26" fill="none" xmlns="http://www.w3.org/2000/svg">
<path d="M0 0.5H34V25.5H0V0.5Z" fill="#012169"/>
<path d="M3.98438 0.5L16.9469 9.92708L29.8563 0.5H34V3.72917L21.25 13.0521L34 22.3229V25.5H29.75L17 16.1771L4.30313 25.5H0V22.375L12.6969 13.1042L0 3.83333V0.5H3.98438Z" fill="white"/>
<path d="M22.525 15.1354L34 23.4167V25.5L19.6031 15.1354H22.525ZM12.75 16.1771L13.0688 18L2.86875 25.5H0L12.75 16.1771ZM34 0.5V0.65625L20.7719 10.4479L20.8781 8.15625L31.3438 0.5H34ZM0 0.5L12.6969 9.66667H9.50938L0 2.6875V0.5Z" fill="#C8102E"/>
<path d="M12.8031 0.5V25.5H21.3031V0.5H12.8031ZM0 8.83333V17.1667H34V8.83333H0Z" fill="white"/>
<path d="M0 10.5521V15.5521H34V10.5521H0ZM14.5031 0.5V25.5H19.6031V0.5H14.5031Z" fill="#C8102E"/>
</svg>
