<svg width="36" height="28" viewBox="0 0 36 28" fill="none" xmlns="http://www.w3.org/2000/svg">
<g clip-path="url(#clip0_6723_30523)">
<mask id="mask0_6723_30523" style="mask-type:luminance" maskUnits="userSpaceOnUse" x="0" y="0" width="36" height="28">
<path d="M0.00195312 0.5H35.9984V27.5H0.00195312V0.5Z" fill="white"/>
</mask>
<g mask="url(#mask0_6723_30523)">
<path fill-rule="evenodd" clip-rule="evenodd" d="M-2.25 0.5H38.25V27.5H-2.25V0.5Z" fill="#165D31"/>
<path fill-rule="evenodd" clip-rule="evenodd" d="M7.95447 8.15172C7.91228 8.78453 7.849 9.89195 8.39216 10.008C9.0408 10.0712 8.6822 8.91109 8.91951 8.70015C8.96169 8.59469 9.04079 8.59469 9.04607 8.72652V9.71265C9.04607 10.0291 9.25701 10.124 9.41521 10.1873C9.58396 10.1767 9.69998 10.1873 9.76326 10.3455L9.84763 12.0488C9.84763 12.0488 10.2379 12.1648 10.259 11.0943C10.2748 10.4615 10.1324 9.93941 10.2168 9.81812C10.2168 9.69683 10.375 9.69156 10.4804 9.74957C10.6492 9.86558 10.723 10.0132 10.9867 9.96051C11.3875 9.84449 11.6301 9.64937 11.6353 9.34351C11.6274 9.04294 11.5649 8.74631 11.4508 8.46812C11.4719 8.41539 11.3769 8.27301 11.398 8.22027C11.4666 8.33629 11.5773 8.32574 11.5984 8.22027C11.5299 7.99879 11.4244 7.78258 11.2556 7.69293C11.1133 7.56637 10.9023 7.58746 10.8338 7.85113C10.7916 8.15172 10.9392 8.50504 11.1554 8.80035C11.2029 8.91109 11.2662 9.10094 11.2398 9.26969C11.1238 9.33824 11.0078 9.3066 10.9076 9.2064C10.9076 9.2064 10.5912 8.9691 10.5912 8.91109C10.6756 8.3732 10.607 8.30992 10.5595 8.15699C10.5279 7.95133 10.4277 7.88277 10.3486 7.74566C10.2695 7.66129 10.164 7.66129 10.1113 7.74566C9.96892 7.98824 10.0375 8.51031 10.1377 8.74762C10.2115 8.96383 10.3222 9.10094 10.2695 9.10094C10.2273 9.22223 10.1377 9.19058 10.0691 9.0482C9.99194 8.74856 9.95471 8.44003 9.95837 8.13062C9.93201 7.88805 9.90037 7.37125 9.73689 7.23414C9.64197 7.10758 9.49958 7.17086 9.44685 7.28687C9.43293 7.52246 9.43822 7.75879 9.46267 7.99351C9.56814 8.38375 9.60505 8.7318 9.65779 9.1273C9.67361 9.65992 9.35193 9.35933 9.36775 9.09039C9.43693 8.75228 9.43153 8.40315 9.35193 8.06734C9.29919 7.93023 9.24119 7.89859 9.10935 7.91969C9.00915 7.91969 8.75076 8.19918 8.67693 8.67379C8.67693 8.67379 8.61365 8.91637 8.58728 9.13258C8.55037 9.37515 8.39216 9.55445 8.27615 9.10094C8.18122 8.76871 8.11794 7.96187 7.95974 8.15172H7.95447Z" fill="white"/>
<path fill-rule="evenodd" clip-rule="evenodd" d="M9.7207 10.7411L8.0332 11.5532C8.04902 11.1683 8.82949 10.4774 9.36738 10.4722C9.71016 10.4774 9.62578 10.604 9.71543 10.7411H9.7207Z" fill="white"/>
<path fill-rule="evenodd" clip-rule="evenodd" d="M9.42054 11.2683C8.5346 13.5623 11.5035 13.884 11.8358 11.3633C11.8674 11.2578 11.994 11.1576 12.0151 11.3264C11.9465 13.6097 9.71585 13.7627 9.33616 13.0455C9.24684 12.7987 9.2022 12.538 9.20432 12.2756C9.15159 11.8273 8.91429 12.0014 8.87737 12.4443C8.84046 12.6922 8.851 12.7607 8.851 12.998C8.96702 14.8015 11.841 14.0264 12.3104 12.5392C12.5582 11.7166 12.2682 11.1101 12.4 11.1101C12.6848 11.416 13.0856 11.1523 13.1752 11.0469C13.2121 10.9941 13.3071 10.9572 13.3703 11.0258C13.5918 11.184 13.9821 11.1101 14.0664 10.8306C14.1139 10.5512 14.1508 10.2664 14.1614 9.97635C13.9768 10.0291 13.8449 10.066 13.8291 10.1451L13.7922 10.3877C13.7764 10.4668 13.6235 10.4668 13.6129 10.3666C13.5444 10.0502 13.2596 10.0133 13.0856 10.4984C12.9748 10.5933 12.7639 10.6144 12.7428 10.4721C12.7692 10.1451 12.6373 10.1029 12.3737 10.2558L12.1205 8.34686C12.226 8.34686 12.3315 8.42596 12.4317 8.2994C12.3262 7.95662 12.0889 7.26053 11.9571 7.2078C11.8991 7.13397 11.8463 7.18143 11.7619 7.20252C11.6248 7.24471 11.4983 7.36073 11.5405 7.59276C11.6987 8.58416 11.8041 9.33826 11.9676 10.3349C11.994 10.4457 11.8991 10.5986 11.7725 10.5828C11.5616 10.4404 11.5088 10.1504 11.1397 10.1609C10.876 10.1609 10.5807 10.451 10.5438 10.7252C10.4963 10.9467 10.4805 11.184 10.5438 11.3738C10.7283 11.5953 10.9498 11.5742 11.1449 11.5267C11.3032 11.4582 11.435 11.3 11.493 11.3369C11.5299 11.3844 11.4983 11.9117 10.7389 12.3125C10.2801 12.5234 9.91096 12.5656 9.71585 12.1912C9.59456 11.9539 9.72639 11.0627 9.42054 11.2683Z" fill="white"/>
<path fill-rule="evenodd" clip-rule="evenodd" d="M13.2014 8.93757C13.3755 8.87429 14.2192 7.90397 14.2192 7.90397L14.0926 7.79851C14.0452 7.76159 14.0505 7.7194 14.0926 7.68249C14.3036 7.55593 14.235 7.29226 14.1296 7.16569C14.058 7.13079 13.9792 7.11309 13.8995 7.11401C13.8199 7.11492 13.7416 7.13443 13.6708 7.17097C13.5231 7.31335 13.4915 7.54011 13.6075 7.67722C13.7182 7.72995 13.829 7.84597 13.7551 7.90925C13.4071 8.27839 12.4632 8.91647 12.5739 8.93757C12.595 8.96921 13.1803 8.96921 13.1962 8.93757H13.2014ZM8.0862 12.3653C7.76979 12.8716 7.74343 13.6257 7.91745 13.8524C8.01237 13.9579 8.1653 14.0053 8.27604 13.9684C8.47644 13.8841 8.56608 13.478 8.51862 13.3356C8.45007 13.2301 8.39733 13.2143 8.32878 13.2987C8.19167 13.5835 8.13366 13.3883 8.11784 13.2301C8.10273 12.9622 8.11687 12.6934 8.16003 12.4286C8.19694 12.2071 8.16003 12.2704 8.0862 12.3653ZM21.6442 11.5585C21.3384 10.894 20.9112 10.2401 20.7794 9.99226C20.3684 9.34259 19.9321 8.70929 19.4716 8.09382C19.1446 7.70358 20.0094 8.2573 19.3661 7.47683L18.8967 7.08132C18.7913 7.00749 18.5382 6.87038 18.496 7.09187C18.4749 7.29226 18.4854 7.39772 18.5171 7.5612C18.5434 7.66667 18.7016 7.85124 18.7807 7.95671C19.8619 9.38869 20.8114 10.9154 21.6178 12.5182C21.755 12.4497 21.7233 11.6692 21.6442 11.5585Z" fill="white"/>
<path fill-rule="evenodd" clip-rule="evenodd" d="M20.2984 13.7627C20.2351 13.8312 20.4461 14.1213 20.7203 14.1213C21.1738 14.0685 21.5746 13.8154 21.9437 13.1404C22.0937 12.9159 22.1894 12.6595 22.2232 12.3916C22.2679 11.1114 22.1652 9.83035 21.9174 8.57362C21.9015 8.46815 21.9174 8.34159 21.9279 8.30995C21.9595 8.27303 22.0597 8.30995 22.1125 8.2203C22.1916 8.1412 21.9015 7.48202 21.7433 7.23417C21.6906 7.11815 21.6642 7.04432 21.5693 7.24471C21.4548 7.46583 21.4002 7.71312 21.4111 7.9619C21.6273 9.46483 21.6959 10.7779 21.833 12.2808C21.8488 12.4285 21.8277 12.6394 21.7275 12.7238C21.3296 13.1669 20.8426 13.5209 20.2984 13.7627ZM26.442 13.7574C26.115 13.9473 26.115 14.1635 26.3787 14.1687C26.8322 14.116 27.3701 14.0791 27.7392 13.5201C27.8696 13.2568 27.945 12.9697 27.9607 12.6764C28.0271 11.4159 27.9439 10.152 27.7129 8.91112C27.7023 8.80565 27.6549 8.5578 27.6707 8.52616C27.7023 8.45233 27.85 8.53143 27.9027 8.44706C27.9765 8.36796 27.5177 7.77733 27.3543 7.52421C27.3015 7.40819 27.2804 7.33436 27.1802 7.53475C27.074 7.7579 27.0408 8.00884 27.0853 8.25194C27.3279 9.88671 27.5072 11.1101 27.5441 12.5551C27.523 12.6922 27.5177 12.766 27.4545 12.94C27.3121 13.1193 27.1539 13.3514 27.0062 13.4621C26.8586 13.5676 26.5422 13.673 26.442 13.7574Z" fill="white"/>
<path fill-rule="evenodd" clip-rule="evenodd" d="M26.6862 12.2965C26.6862 11.9116 26.6915 11.5846 26.681 11.2946C26.6776 11.0489 26.6237 10.8066 26.5228 10.5826C26.4278 10.3664 26.4858 10.1924 26.4384 9.96038C26.3962 9.72835 26.4067 9.38031 26.3435 9.11136C26.3224 9.00589 26.2696 8.66312 26.2855 8.6262C26.3118 8.55238 26.412 8.6262 26.4647 8.54183C26.5386 8.46273 26.2011 7.59261 26.0323 7.34476C25.9743 7.23402 25.8583 7.27093 25.7265 7.45023C25.5946 7.57152 25.6421 7.84046 25.6948 8.09886C26.0165 9.80218 26.2644 11.3473 26.2116 12.9662C26.1905 13.1034 26.6862 12.5549 26.6862 12.2965ZM24.2763 10.1871C24.0706 10.1766 23.6435 9.78109 23.5169 9.55433C23.4962 9.49891 23.4874 9.43975 23.491 9.3807C23.4946 9.32165 23.5106 9.26402 23.538 9.21156C23.6171 9.15882 23.7331 9.10609 23.8228 9.15882C23.8228 9.15882 23.9124 9.28538 23.8966 9.3012C24.0021 9.35394 24.0548 9.32757 24.0653 9.28011C24.0706 9.20101 24.0337 9.15355 24.0337 9.06917C24.0812 8.82659 24.3501 8.78968 24.4556 8.94261C24.5294 9.03753 24.561 9.23265 24.5663 9.36449C24.5663 9.43304 24.4608 9.35394 24.3923 9.36449C24.3343 9.38558 24.3185 9.45941 24.3132 9.52269C24.3026 9.69671 24.2815 9.9762 24.2763 10.1819V10.1871ZM20.4899 12.7184C20.5427 12.2016 20.4689 11.2787 20.4636 10.9729C20.4354 10.1863 20.3703 9.40143 20.2685 8.62093C20.2052 8.17796 20.4478 8.66839 20.4161 8.40999C20.337 7.9723 20.0944 7.67171 19.8044 7.2762C19.7148 7.14437 19.7147 7.118 19.5724 7.30785C19.4142 7.66117 19.5513 7.90902 19.5935 8.18851C19.7991 9.09554 19.9204 9.92874 19.9784 10.7567C20.0391 11.6167 20.0462 12.4797 19.9995 13.3407C20.1577 13.3459 20.4003 13.0928 20.4899 12.7184Z" fill="white"/>
<path fill-rule="evenodd" clip-rule="evenodd" d="M27.3876 11.8905C27.0238 11.2788 26.4806 10.6249 26.3329 10.377C25.844 9.69414 25.3303 9.02925 24.7931 8.38365C24.3449 7.90904 25.004 8.30455 24.7087 7.93541C24.4609 7.66646 24.3923 7.57681 24.1761 7.41334C24.0706 7.34478 24.0074 7.21295 23.9652 7.4397C23.9484 7.63612 23.9448 7.83344 23.9546 8.03033C23.9546 8.11998 24.0495 8.294 24.1339 8.39947C25.2255 9.74419 26.4226 11.1153 27.3824 12.8397C27.5195 12.7711 27.472 11.996 27.3824 11.8905H27.3876Z" fill="white"/>
<path fill-rule="evenodd" clip-rule="evenodd" d="M10.9643 10.7672C10.9379 10.8146 10.8799 10.8727 10.901 10.9307C10.9379 10.9834 10.9748 10.9992 11.0381 10.9992C11.0961 10.9992 11.1805 11.015 11.1963 10.9834C11.228 10.9465 11.2491 10.8779 11.228 10.8094C11.1647 10.6512 10.9959 10.7145 10.9643 10.7672Z" fill="#165D31"/>
<path fill-rule="evenodd" clip-rule="evenodd" d="M23.1789 19.6163C23.6641 19.6374 23.9805 19.6427 24.4076 19.6902L24.9139 19.6374C25.4729 19.5847 25.4939 20.4337 25.4939 20.4337C25.4939 20.9347 25.2988 20.9611 25.051 21.0138C24.9086 21.0349 24.84 20.9294 24.7609 20.824C24.6417 20.8622 24.5146 20.8694 24.3918 20.845C24.1861 20.8345 23.9857 20.8345 23.7854 20.8187C23.5744 20.8029 23.4584 20.845 23.2422 20.824C23.2 20.8925 23.1367 20.9874 23.0102 20.9611C22.9047 20.9452 22.7729 20.6447 22.8098 20.4074C22.8889 20.2386 22.8625 20.2966 22.8625 20.2228C20.8797 20.17 18.8811 20.0804 16.9404 20.1068C15.4217 20.112 13.924 20.1753 12.4211 20.2386C11.6195 20.2281 11.0078 20.1015 10.5859 19.4845C10.6281 19.4845 12.632 19.5952 13.2174 19.5583C14.2984 19.5478 15.2898 19.4581 16.392 19.4265C18.5646 19.4634 20.7215 19.4634 22.8941 19.6163C22.6832 19.474 22.6832 19.1417 22.9996 19.0574C23.026 19.0363 23.0418 19.2208 23.0893 19.2156C23.3477 19.1997 23.2316 19.5478 23.1789 19.6163ZM14.4461 7.63509C14.1191 8.57376 14.6359 9.60735 14.9945 9.50716C15.2582 9.61263 15.4164 9.11692 15.5219 8.57903C15.601 8.4261 15.6537 8.41028 15.6906 8.48938C15.6801 9.20657 15.7434 9.37005 15.9279 9.58626C16.3393 9.90266 16.682 9.62845 16.7084 9.60208L17.0248 9.2804C17.0986 9.2013 17.1936 9.2013 17.2937 9.26458C17.3939 9.35423 17.3781 9.50716 17.5891 9.61263C17.7684 9.68645 18.1428 9.63372 18.2324 9.48079C18.3484 9.27513 18.3801 9.20657 18.4328 9.13274C18.5172 9.022 18.6596 9.06946 18.6596 9.10638C18.6438 9.16966 18.5594 9.22766 18.6174 9.34368C18.7229 9.41751 18.7439 9.37005 18.802 9.35423C19.0129 9.24876 19.1711 8.79524 19.1711 8.79524C19.1764 8.62649 19.0814 8.63704 19.0182 8.67923L18.8547 8.78997C18.7492 8.80579 18.5541 8.87434 18.4539 8.72141C18.3537 8.54212 18.3537 8.28372 18.2799 8.09915C18.2799 8.0886 18.1428 7.80911 18.2693 7.79329C18.3326 7.80384 18.4645 7.84075 18.4855 7.73001C18.5488 7.61927 18.3484 7.30813 18.2061 7.14993C18.0848 7.01809 17.916 7.00227 17.7525 7.13938C17.6365 7.24485 17.6523 7.36087 17.6312 7.47161C17.6112 7.55097 17.6104 7.63395 17.6287 7.71371C17.647 7.79347 17.6841 7.86774 17.7367 7.9304C17.8527 8.15188 18.0584 8.44192 17.9898 8.85325C17.9898 8.85325 17.8686 9.04309 17.6576 9.01673C17.568 9.00091 17.4256 8.96399 17.3518 8.39446C17.2937 7.97259 17.3623 7.37141 17.183 7.09192C17.1145 6.9179 17.067 6.75442 16.9088 7.04446C16.8666 7.16048 16.682 7.3345 16.8139 7.68782C16.9386 8.00621 16.9751 8.35239 16.9193 8.68977C16.8402 8.80579 16.8244 8.8427 16.7242 8.95345C16.5871 9.11165 16.4342 9.06946 16.3182 9.01145C16.2127 8.9429 16.1283 8.90598 16.0756 8.66868C16.0861 8.29954 16.1072 7.69309 16.0387 7.56653C15.9385 7.36614 15.775 7.43997 15.7064 7.50325C15.3927 7.85174 15.1827 8.28097 15.1 8.74251C15.0051 9.04837 14.9049 8.95872 14.8363 8.83743C14.6676 8.67923 14.6518 7.42942 14.4461 7.63509Z" fill="white"/>
<path fill-rule="evenodd" clip-rule="evenodd" d="M15.4365 9.68101C15.5894 9.57554 15.5209 9.50171 15.7423 9.7232C16.0282 10.229 16.1942 10.7937 16.2275 11.3738C16.217 11.5109 16.3119 11.5953 16.3593 11.5636C16.3804 11.2472 17.1556 10.8043 17.8675 10.741C17.973 10.7146 17.9203 10.5089 17.9361 10.4035C17.8939 10.008 18.1576 9.64937 18.5267 9.623C19.033 9.69683 19.2017 9.96577 19.2123 10.3718C19.1543 11.1628 18.3316 11.2947 17.8728 11.358C17.8043 11.3843 17.7726 11.416 17.8728 11.4529L19.8029 11.4634L19.9031 11.5162C19.9136 11.5689 19.8714 11.5267 19.7976 11.6533C19.6914 11.8398 19.625 12.0463 19.6025 12.2597C19.0277 12.4496 18.4318 12.5234 17.8306 12.6025C17.6197 12.708 17.5142 12.8503 17.5564 13.0085C17.6302 13.1826 18.0943 13.3619 18.0943 13.3671C18.1839 13.4199 18.2841 13.5517 18.0679 13.8207C17.1293 13.7785 16.3963 13.3777 16.1431 12.8134C16.0693 12.7554 15.9849 12.8134 15.9322 12.8873C15.563 13.3619 15.2045 13.7837 14.5769 14.0158C14.2078 14.1107 13.8228 13.9578 13.6435 13.7152C13.5222 13.5728 13.5275 13.4199 13.4853 13.3882C13.2797 13.4779 11.5394 14.2162 11.7609 13.8681C12.1828 13.4199 12.9211 13.0824 13.5644 12.6394C13.6119 12.4865 13.6963 11.9802 13.9494 11.8168C13.9652 11.8168 13.9125 12.1121 13.9177 12.2386C13.9177 12.3441 13.9072 12.381 13.9283 12.3546C13.9757 12.3283 14.7562 11.7113 14.8248 11.5214C14.8986 11.416 14.8406 11.1418 14.8406 11.1312C14.6929 10.7515 14.4873 10.7199 14.4134 10.53C14.3449 10.2822 14.3765 9.99741 14.5189 9.91304C14.6455 9.8023 14.7931 9.81284 14.9355 9.93941C15.0937 10.0818 15.2308 10.3613 15.273 10.5669C15.2466 10.646 15.0621 10.5142 15.0093 10.5511C15.1108 10.6678 15.1783 10.8101 15.2045 10.9625C15.3099 11.3949 15.2783 11.5636 15.1728 11.8431C14.8248 12.5761 14.3818 12.7923 13.9916 13.0666C13.981 13.0666 13.9757 13.2511 14.1181 13.3513C14.1709 13.4041 14.3765 13.4304 14.6138 13.3513C15.1208 13.0698 15.5308 12.6414 15.7898 12.1226C15.8346 11.7278 15.7914 11.328 15.6632 10.9519C15.5103 10.5986 15.331 10.0976 15.331 10.0871C15.3257 9.86558 15.3416 9.79175 15.4365 9.68101ZM10.3845 7.64546C10.606 7.75093 11.0279 7.70347 11.0068 7.34488L10.9963 7.1814C10.9541 7.07593 10.8275 7.1023 10.8011 7.20777C10.7906 7.24468 10.817 7.30269 10.7853 7.31851C10.7642 7.3396 10.6957 7.32906 10.6957 7.22886C10.6957 7.19722 10.6746 7.16558 10.6588 7.14449C10.6482 7.13394 10.6377 7.13394 10.6113 7.13394C10.5797 7.13394 10.5797 7.13921 10.5638 7.16558C10.5586 7.19195 10.548 7.21831 10.548 7.24995C10.548 7.28687 10.5269 7.29741 10.5058 7.30269C10.4742 7.30269 10.4795 7.30269 10.4531 7.29214C10.4425 7.27632 10.4267 7.27105 10.4267 7.23941L10.4109 7.15503C10.4004 7.13921 10.3793 7.12866 10.3582 7.12339C10.2369 7.12339 10.2263 7.26577 10.2369 7.31851C10.2263 7.32906 10.2211 7.57691 10.3845 7.64546Z" fill="white"/>
<path fill-rule="evenodd" clip-rule="evenodd" d="M16.897 10.3982C17.1184 10.5037 17.6511 10.4457 17.5192 10.1029L17.5087 9.93413C17.4612 9.82867 17.3399 9.85503 17.3136 9.96578C17.303 9.99742 17.3294 10.0554 17.2925 10.0712C17.2766 10.0923 17.2028 10.0818 17.2081 9.98687C17.2081 9.95523 17.187 9.91831 17.1712 9.89722C17.1554 9.89195 17.1501 9.88667 17.1184 9.88667C17.0921 9.88667 17.0921 9.89722 17.0763 9.92359C17.0657 9.94995 17.0604 9.97632 17.0604 10.008C17.0552 10.0396 17.0393 10.0502 17.013 10.0607C16.9866 10.0607 16.9919 10.0607 16.9708 10.0449C16.955 10.0291 16.9391 10.0238 16.9391 9.99742L16.9233 9.91304C16.9128 9.89722 16.8917 9.88667 16.8706 9.8814C16.7493 9.8814 16.7388 10.0185 16.744 10.0712C16.7388 10.0818 16.7335 10.3349 16.9022 10.3982H16.897ZM20.6938 9.25914C20.9153 9.3646 21.3319 9.31714 21.3161 8.96382L21.3055 8.79507C21.2581 8.6896 21.1368 8.71597 21.1104 8.82144C21.0999 8.85835 21.1263 8.91636 21.0893 8.93745C21.0735 8.95328 20.9997 8.94273 21.005 8.84253C21.005 8.81089 20.9839 8.77925 20.968 8.75816C20.9522 8.74761 20.947 8.74761 20.9153 8.74761C20.8889 8.74761 20.8889 8.75816 20.8731 8.78453L20.8573 8.86363C20.852 8.90054 20.8362 8.91636 20.8098 8.91636C20.7835 8.91636 20.7887 8.91636 20.7677 8.90581C20.7518 8.88999 20.736 8.88472 20.736 8.85835C20.736 8.83199 20.7307 8.7898 20.7202 8.76871C20.7096 8.75288 20.6886 8.74761 20.6675 8.74234C20.5462 8.74234 20.5356 8.87945 20.5409 8.93218C20.5356 8.94273 20.5304 9.19058 20.6991 9.25914H20.6938ZM22.6608 12.1226C22.2759 12.5603 22.4446 13.2828 22.5343 13.441C22.6608 13.6941 22.761 13.8576 23.0089 13.9841C23.2356 14.1476 23.4149 14.0474 23.5098 13.9314C23.7366 13.6941 23.7419 13.0877 23.8473 12.9716C23.9212 12.7502 24.111 12.7871 24.2007 12.8873C24.2845 13.0063 24.397 13.1024 24.5276 13.1668C24.7386 13.3513 24.9917 13.3882 25.2448 13.2195C25.4136 13.1193 25.5243 12.998 25.6245 12.7502C25.73 12.4548 25.6772 11.0837 25.6509 10.2716L25.4294 9.13785C25.4294 9.1273 25.403 8.59996 25.3766 8.47867C25.3766 8.42593 25.3608 8.41011 25.4136 8.41539C25.4716 8.46812 25.4768 8.46812 25.519 8.48394C25.5718 8.49449 25.6245 8.39429 25.5876 8.30992L25.0602 7.32906C25.018 7.28687 24.96 7.24468 24.8915 7.3396C24.851 7.37622 24.8188 7.42101 24.797 7.47102C24.7752 7.52102 24.7643 7.57509 24.7649 7.62964C24.7807 7.86167 24.8177 8.09898 24.8335 8.33101L25.0444 9.52281C25.113 10.3666 25.1288 11.0626 25.1973 11.9117C25.1868 12.2703 25.0761 12.5814 24.9706 12.6289C24.9706 12.6289 24.8124 12.7185 24.7069 12.6183C24.6278 12.5867 24.3167 12.0962 24.3167 12.0962C24.1585 11.9539 24.053 11.9908 23.9423 12.0962C23.6259 12.4021 23.4887 12.9611 23.2725 13.3513C23.2198 13.441 23.0616 13.5095 22.8929 13.346C22.4604 12.7502 22.7136 11.9064 22.6608 12.1226ZM20.794 7.1814C20.9944 7.2605 21.1315 7.66656 21.0893 7.86695C21.0471 8.10425 20.9417 8.36792 20.8679 8.33628C20.7835 8.30464 20.9206 8.09371 20.8415 7.87222C20.7993 7.72456 20.5251 7.46089 20.5567 7.38706C20.504 7.22359 20.6727 7.14976 20.794 7.17613V7.1814Z" fill="white"/>
<path fill-rule="evenodd" clip-rule="evenodd" d="M23.305 12.3653C23.342 11.8801 23.2734 11.5848 23.2629 11.3001C23.2523 11.0153 22.9412 8.84263 22.8779 8.63169C22.7988 8.22036 23.1785 8.57896 23.1363 8.33638C23.0045 8.04107 22.6828 7.60337 22.5826 7.34497C22.5193 7.2395 22.5457 7.13404 22.4086 7.31861C22.2905 7.64221 22.249 7.98877 22.2873 8.33111C22.6142 10.0344 22.9464 11.4477 22.8937 13.0667C23.0519 13.0667 23.2259 12.7133 23.305 12.3653ZM26.7011 7.86704C26.8857 7.95669 26.9912 8.46294 26.9701 8.60532C26.9332 8.869 26.8382 9.15376 26.7697 9.11685C26.6906 9.08521 26.7855 8.72661 26.7486 8.61587C26.7064 8.45767 26.4586 8.1729 26.4849 8.08853C26.4322 7.90923 26.5904 7.8354 26.7011 7.86704ZM13.217 11.4477C13.391 11.5163 13.4965 11.8854 13.4806 11.9909C13.4384 12.186 13.3488 12.3969 13.2802 12.3653C13.2117 12.3442 13.2961 12.0805 13.2644 11.9961C13.2486 11.801 13.006 11.6956 13.0113 11.6112C12.9691 11.453 13.1168 11.4266 13.2222 11.4477H13.217Z" fill="white"/>
<path fill-rule="evenodd" clip-rule="evenodd" d="M17.4147 12.0065C17.6362 12.0171 17.7469 12.1964 17.5412 12.2702C17.3303 12.3388 17.1352 12.3968 17.1299 12.6921C17.209 13.114 17.0244 12.9663 16.919 12.9136C16.7924 12.8187 16.4338 12.5972 16.3811 12.1226C16.3758 12.0118 16.4655 11.9116 16.6078 11.9116C16.8188 11.9696 17.1352 11.9749 17.4147 12.0065Z" fill="#165D31"/>
<path fill-rule="evenodd" clip-rule="evenodd" d="M8.58176 7.06039C8.83488 7.13422 8.8507 7.51391 8.83488 7.62465C8.79797 7.82504 8.70832 8.04125 8.64504 8.01488C8.57121 7.98852 8.64504 7.7143 8.60813 7.62992C8.57121 7.51391 8.355 7.29242 8.37609 7.22914C8.32863 7.0973 8.48156 7.03402 8.58176 7.06039ZM13.639 8.83226C13.4386 8.93773 13.3648 9.25414 13.4861 9.44398C13.6021 9.60219 13.7814 9.54418 13.8025 9.54418C13.9976 9.56527 14.1136 9.18031 14.1136 9.18031C14.1136 9.18031 14.1189 9.07484 13.8921 9.28051C13.7919 9.29633 13.7866 9.25941 13.7603 9.20668C13.7361 9.10628 13.7454 9.00075 13.7866 8.90609C13.8236 8.81117 13.7497 8.76898 13.639 8.83226ZM15.1155 6.91273C15.0101 6.98129 14.815 7.18695 14.8097 7.41898C14.8044 7.55082 14.778 7.55082 14.8624 7.62992C14.931 7.72484 14.989 7.71957 15.1155 7.65102C15.1471 7.63116 15.1741 7.60497 15.195 7.57411C15.2159 7.54324 15.2301 7.50838 15.2368 7.47172C15.2685 7.32406 15.0786 7.54555 15.0575 7.3768C15.0154 7.21859 15.1366 7.15531 15.2527 7.00766C15.2527 6.90219 15.2527 6.83363 15.1103 6.91273H15.1155ZM16.2968 7.12367C16.2503 7.3157 16.2221 7.51168 16.2124 7.70902C16.1808 7.85668 16.3706 7.91996 16.4497 7.73012C16.5763 7.38734 16.5763 7.23969 16.5868 7.0973C16.5499 6.87055 16.397 6.87582 16.2968 7.12367ZM23.7851 10.9364C23.8062 10.91 24.8398 10.177 24.8398 10.177C24.9452 10.1401 24.9189 10.5567 24.8714 10.5514C24.5509 10.8603 24.1822 11.115 23.7798 11.3055C23.7271 11.3424 23.6796 11.026 23.7798 10.9364H23.7851ZM24.7185 10.9258C24.903 11.0155 24.9769 11.5481 24.9558 11.6905C24.9558 11.9752 24.7818 12.1967 24.7079 12.1651C24.6341 12.1282 24.7185 11.8118 24.6816 11.701C24.6394 11.5428 24.4864 11.2528 24.5128 11.1684C24.4601 10.9891 24.6077 10.8942 24.7237 10.9258H24.7185ZM18.6013 13.2145C18.6868 13.1146 18.7863 13.0276 18.8966 12.9561C19.0021 12.9034 19.097 12.9983 19.0917 12.993C19.1075 13.0985 19.0284 13.1881 19.0548 13.3252C19.0759 13.378 19.0917 13.4412 19.1919 13.4202C19.3554 13.2883 19.5083 13.2778 19.6665 13.2725C19.7984 13.2778 19.8036 13.494 19.7193 13.494C19.4187 13.5573 19.2868 13.6416 19.0706 13.7207C18.9652 13.784 18.8808 13.7049 18.8808 13.6996C18.8808 13.6944 18.8228 13.6416 18.8597 13.5045C18.8702 13.3991 18.828 13.3358 18.7331 13.3463C18.6698 13.3885 18.6066 13.4096 18.5749 13.3305C18.5591 13.2778 18.5538 13.2461 18.6013 13.2145ZM25.8048 13.4993C25.847 13.552 25.8786 13.6047 25.7995 13.6996L25.6044 13.8684C25.5728 13.9211 25.5517 14.0161 25.6571 14.0424C25.847 14.0952 26.29 13.8051 26.29 13.7998C26.3638 13.7471 26.3427 13.6416 26.3321 13.6416C26.29 13.5942 26.195 13.6258 26.1318 13.6153C26.1001 13.6153 25.9999 13.6047 26.0474 13.5098C26.0828 13.4632 26.1112 13.4117 26.1318 13.3569C26.1581 13.2936 26.1318 13.2514 26.0263 13.2145C25.9155 13.1934 25.8681 13.2039 25.7468 13.2145C25.6835 13.225 25.6624 13.2567 25.6466 13.3358C25.6519 13.4571 25.7257 13.4518 25.8048 13.494V13.4993Z" fill="white"/>
<path fill-rule="evenodd" clip-rule="evenodd" d="M18.6373 10.5038C18.611 10.5565 18.516 10.5565 18.4264 10.5038C18.3367 10.4511 18.284 10.3667 18.3156 10.3192C18.3473 10.2718 18.4369 10.2718 18.5266 10.3192C18.6162 10.3667 18.6637 10.4563 18.6373 10.5038ZM13.944 7.67724C13.8912 7.69306 13.8174 7.6456 13.7858 7.57177C13.7541 7.49794 13.7699 7.43466 13.8227 7.41884C13.8754 7.40302 13.944 7.45575 13.9809 7.52431C14.0178 7.59286 13.9967 7.66669 13.9387 7.68251L13.944 7.67724Z" fill="#165D31"/>
<path fill-rule="evenodd" clip-rule="evenodd" d="M23.2306 20.2754C23.7263 20.2965 24.1904 20.2754 24.6808 20.3018C24.7705 20.3809 24.7072 20.5654 24.6492 20.5549L24.2378 20.5391C24.2326 20.3809 23.8318 20.4072 23.8423 20.5443C23.6261 20.5707 23.431 20.5391 23.2095 20.5285C23.1462 20.4494 23.1568 20.307 23.2306 20.2754Z" fill="#165D31"/>
</g>
</g>
<defs>
<clipPath id="clip0_6723_30523">
<rect width="36" height="27" fill="white" transform="translate(0 0.5)"/>
</clipPath>
</defs>
</svg>
