<svg width="36" height="28" viewBox="0 0 36 28" fill="none" xmlns="http://www.w3.org/2000/svg">
<g clip-path="url(#clip0_6723_30373)">
<mask id="mask0_6723_30373" style="mask-type:luminance" maskUnits="userSpaceOnUse" x="0" y="0" width="36" height="28">
<path d="M0 0.5H36V27.5H0V0.5Z" fill="white"/>
</mask>
<g mask="url(#mask0_6723_30373)">
<path fill-rule="evenodd" clip-rule="evenodd" d="M0 0.5H36V27.5H0V0.5Z" fill="white"/>
<path fill-rule="evenodd" clip-rule="evenodd" d="M0 17.0004V19.2504H36V17.0004H0ZM0 21.1246V23.3746H36V21.1246H0ZM0 8.74963V10.9996H36V8.74963H0ZM0 25.25V27.5H36V25.25H0ZM0 12.875V15.125H36V12.875H0ZM0 0.5V2.75H36V0.5H0ZM0 4.62538V6.87537H36V4.62538H0Z" fill="#BD3D44"/>
<path d="M0 0.5H22.5V15.125H0V0.5Z" fill="#192F5D"/>
<path fill-rule="evenodd" clip-rule="evenodd" d="M1.93667 3.80647L1.11992 4.37909L1.39555 3.35984L0.669922 2.71409H1.6183L1.93555 1.88159L2.30792 2.71409H3.11567L2.48117 3.35984L2.72642 4.37909L1.93667 3.80647ZM6.43667 3.80647L5.61992 4.37909L5.89555 3.35984L5.17105 2.71409H6.1183L6.43555 1.88159L6.80792 2.71409H7.61567L6.98117 3.35984L7.22642 4.37909L6.43667 3.80647ZM10.1199 4.37909L10.9367 3.80534L11.7264 4.37909L11.4812 3.35984L12.1157 2.71409H11.3079L10.9355 1.88159L10.6183 2.71409H9.67105L10.3955 3.35984L10.1199 4.37909ZM15.4367 3.80534L14.6199 4.37909L14.8955 3.35984L14.171 2.71409H15.1183L15.4355 1.88159L15.8079 2.71409H16.6157L15.9812 3.35984L16.2264 4.37909L15.4367 3.80534ZM1.11992 8.88022L1.93667 8.30647L2.72642 8.88022L2.48117 7.86097L3.11567 7.21522H2.30792L1.93555 6.38272L1.6183 7.21522H0.669922L1.39555 7.86097L1.11992 8.88022ZM6.43667 8.30647L5.61992 8.88022L5.89555 7.86097L5.17105 7.21522H6.1183L6.43555 6.38272L6.80792 7.21522H7.61567L6.98117 7.86097L7.22642 8.88022L6.43667 8.30647ZM10.1199 8.88022L10.9367 8.30647L11.7264 8.88022L11.4812 7.86097L12.1157 7.21522H11.3079L10.9355 6.38272L10.6183 7.21522H9.67105L10.3955 7.86097L10.1199 8.88022ZM15.4367 8.30647L14.6199 8.88022L14.8955 7.86097L14.171 7.21522H15.1183L15.4355 6.38272L15.8079 7.21522H16.6157L15.9812 7.86097L16.2264 8.88022L15.4367 8.30647ZM1.11992 13.3802L1.93667 12.8065L2.72642 13.3802L2.48117 12.361L3.11567 11.7152H2.30792L1.93555 10.8827L1.6183 11.7152H0.669922L1.39555 12.361L1.11992 13.3791V13.3802ZM6.43667 12.8065L5.61992 13.3802L5.89555 12.361L5.17105 11.7152H6.1183L6.43555 10.8827L6.80792 11.7152H7.61567L6.98117 12.361L7.22642 13.3791L6.43667 12.8065ZM10.1199 13.3802L10.9367 12.8065L11.7264 13.3802L11.4812 12.361L12.1157 11.7152H11.3079L10.9355 10.8827L10.6183 11.7152H9.67105L10.3955 12.361L10.1199 13.3791V13.3802ZM15.4367 12.8065L14.6199 13.3802L14.8955 12.361L14.171 11.7152H15.1183L15.4355 10.8827L15.8079 11.7152H16.6157L15.9812 12.361L16.2264 13.3791L15.4367 12.8065ZM19.1199 4.38022L19.9367 3.80647L20.7264 4.38022L20.4812 3.36097L21.1157 2.71522H20.3079L19.9355 1.88272L19.6183 2.71522H18.6699L19.3955 3.36097L19.1199 4.38022ZM19.9367 8.30647L19.1199 8.88022L19.3955 7.86097L18.6699 7.21522H19.6183L19.9355 6.38272L20.3079 7.21522H21.1157L20.4812 7.86097L20.7264 8.88022L19.9367 8.30647ZM19.1199 13.3802L19.9367 12.8065L20.7264 13.3802L20.4812 12.361L21.1157 11.7152H20.3079L19.9355 10.8827L19.6183 11.7152H18.6699L19.3955 12.361L19.1199 13.3791V13.3802ZM4.18667 6.05534L3.36992 6.62909L3.64555 5.60984L2.91992 4.96409H3.8683L4.18555 4.13159L4.55792 4.96409H5.36567L4.73117 5.60984L4.97642 6.62909L4.18667 6.05534ZM7.86992 6.62909L8.68667 6.05534L9.47642 6.62909L9.23117 5.60984L9.86567 4.96409H9.05792L8.68555 4.13159L8.3683 4.96409H7.41992L8.14555 5.60984L7.86992 6.62909ZM13.1867 6.05534L12.3699 6.62909L12.6455 5.60984L11.921 4.96409H12.8683L13.1855 4.13159L13.5579 4.96409H14.3657L13.7312 5.60984L13.9764 6.62909L13.1867 6.05534ZM3.36992 11.1291L4.18667 10.5553L4.97642 11.1291L4.73117 10.1098L5.36567 9.46409H4.55792L4.18555 8.63159L3.8683 9.46409H2.91992L3.64555 10.1098L3.36992 11.1291ZM8.68667 10.5553L7.86992 11.1291L8.14555 10.1098L7.42105 9.46409H8.3683L8.68555 8.63159L9.05792 9.46409H9.86567L9.23117 10.1098L9.47642 11.1291L8.68667 10.5553ZM12.3699 11.1291L13.1867 10.5553L13.9764 11.1291L13.7312 10.1098L14.3657 9.46409H13.5579L13.1855 8.63159L12.8683 9.46409H11.921L12.6455 10.1098L12.3699 11.1291ZM17.6867 6.05534L16.8699 6.62909L17.1455 5.60984L16.421 4.96409H17.3683L17.6855 4.13159L18.0579 4.96409H18.8657L18.2312 5.60984L18.4764 6.62909L17.6867 6.05534ZM16.8699 11.1291L17.6867 10.5553L18.4764 11.1291L18.2312 10.1098L18.8657 9.46409H18.0579L17.6855 8.63159L17.3683 9.46409H16.421L17.1455 10.1098L16.8699 11.1291Z" fill="white"/>
</g>
</g>
<defs>
<clipPath id="clip0_6723_30373">
<rect width="36" height="27" fill="white" transform="translate(0 0.5)"/>
</clipPath>
</defs>
</svg>
