<svg width="26" height="26" viewBox="0 0 26 26" fill="none" xmlns="http://www.w3.org/2000/svg">
<path fill-rule="evenodd" clip-rule="evenodd" d="M23.3765 12.9987C23.3765 12.7832 23.2908 12.5766 23.1385 12.4242C22.9861 12.2718 22.7794 12.1862 22.564 12.1862L6.40033 12.1862L11.5142 7.07398C11.6668 6.92141 11.7525 6.71449 11.7525 6.49873C11.7525 6.28297 11.6668 6.07605 11.5142 5.92348C11.3616 5.77091 11.1547 5.6852 10.939 5.6852C10.7232 5.6852 10.5163 5.77091 10.3637 5.92348L3.8637 12.4235C3.78804 12.499 3.728 12.5886 3.68704 12.6873C3.64608 12.786 3.625 12.8919 3.625 12.9987C3.625 13.1056 3.64608 13.2114 3.68704 13.3101C3.728 13.4088 3.78804 13.4985 3.8637 13.574L10.3637 20.074C10.4392 20.1495 10.5289 20.2094 10.6276 20.2503C10.7263 20.2912 10.8321 20.3123 10.939 20.3123C11.1547 20.3123 11.3616 20.2265 11.5142 20.074C11.6668 19.9214 11.7525 19.7145 11.7525 19.4987C11.7525 19.283 11.6668 19.076 11.5142 18.9235L6.40033 13.8112L22.564 13.8112C22.7794 13.8112 22.9861 13.7256 23.1385 13.5733C23.2908 13.4209 23.3765 13.2142 23.3765 12.9987Z" fill="white" stroke="white" stroke-width="0.4"/>
</svg>
