<svg width="36" height="37" viewBox="0 0 36 37" fill="none" xmlns="http://www.w3.org/2000/svg">
<path d="M33.4736 8.59579C32.088 10.8692 33.51 12.8126 35.005 15.086C36.7918 17.7994 36.0625 21.5395 33.6924 23.8129C32.7808 24.6929 32.6349 25.3896 33.0725 26.4896C33.6194 27.8097 33.6559 29.2397 33.2548 30.6331C32.4526 33.6032 29.3897 34.9599 25.8162 33.7865C24.7223 33.4198 24.0295 33.4932 23.1544 34.3732C20.2373 37.2333 15.6429 37.1966 12.6164 34.3365C11.8142 33.5665 11.2308 33.3098 10.1369 33.7132C7.87614 34.5199 5.54246 34.6665 3.68282 32.7598C1.75025 30.8164 1.8961 28.4697 2.77123 26.123C3.0994 25.1696 2.99001 24.6562 2.29721 23.9229C-0.765736 20.6961 -0.765736 16.3327 2.29721 13.1059C2.99001 12.3726 3.24525 11.7859 2.73476 10.9059C2.66184 10.7592 2.58891 10.5758 2.55244 10.3925C1.96903 8.15577 1.93257 5.99238 3.68282 4.23233C5.43307 2.47228 7.65736 2.47229 9.80871 3.20564C11.0485 3.60898 11.7777 3.49898 12.7987 2.58228C15.8617 -0.277797 20.3102 -0.167793 23.3002 2.76562C24.066 3.53564 24.6859 3.68231 25.6704 3.27897C26.3632 2.98563 27.2018 2.87563 27.9676 2.83896C31.3222 2.58229 33.51 4.74568 33.4736 8.59579ZM28.2593 32.6498C31.2128 32.6498 32.7078 30.4864 31.7963 27.2963C30.7388 23.4829 28.1134 21.0628 24.4306 19.8528C23.5555 19.5594 22.6439 19.5961 21.7323 19.7794C20.8936 19.9261 20.6384 20.4028 21.3677 20.9895C22.9721 22.2728 23.9201 24.2896 25.9985 24.9496C26.5455 25.1329 26.8007 25.6829 26.7278 26.3063C26.6184 26.893 26.2538 27.2963 25.6704 27.4063C25.087 27.5163 24.5035 27.2963 24.3212 26.7463C23.7378 24.8762 22.0605 23.9596 20.8572 22.6029C20.529 22.2362 20.1644 21.5028 19.5809 21.7962C18.9611 22.0895 19.1069 22.8595 19.0705 23.4462C19.034 27.8097 23.8472 32.6865 28.2593 32.6498ZM32.015 8.04577C32.015 5.66237 30.7023 4.30567 28.2957 4.30567C23.8837 4.269 19.0705 9.07246 19.1069 13.5093C19.1069 13.7659 19.1069 13.9859 19.1434 14.2426C19.2163 14.646 19.1799 15.1593 19.6539 15.306C20.055 15.416 20.3102 15.0493 20.529 14.756C21.7688 13.2159 23.6649 12.2626 24.3212 10.2092C24.5035 9.65915 25.0869 9.47581 25.7068 9.58582C26.2538 9.65915 26.5455 10.0258 26.7278 10.5392C26.9101 11.1259 26.6914 11.7859 26.1809 11.9325C24.1754 12.5559 23.2638 14.426 21.8052 15.636C21.4406 15.9293 20.8572 16.2227 21.0395 16.7727C21.2583 17.3594 21.9511 17.286 22.4616 17.3227C26.8737 17.5427 32.0515 12.5559 32.015 8.04577ZM12.7987 17.2494C13.3457 17.1394 14.2937 17.4694 14.6219 16.736C14.9136 16.0393 14.0385 15.5993 13.5645 15.2326C12.1788 14.0959 11.3402 12.3359 9.40761 11.7859C8.86065 11.6392 8.64187 11.0159 8.78772 10.4292C8.89711 9.91582 9.22529 9.54915 9.73578 9.43915C10.3192 9.32915 10.9391 9.40248 11.1214 9.98917C11.7777 12.0426 13.7103 12.9959 14.9501 14.536C15.2418 14.9026 15.57 15.4893 16.0804 15.2693C16.6274 15.0493 16.5909 14.3526 16.6274 13.8393C16.9556 9.18248 11.4131 3.79232 6.81869 4.30567C4.84966 4.52568 3.57343 5.99238 3.6099 8.08244C3.68283 12.2259 8.49601 17.1394 12.7987 17.2494ZM8.02198 32.6498C11.486 32.3198 14.1479 29.9731 15.9346 26.453C16.518 25.2796 16.7732 24.0329 16.6274 22.7495C16.5909 22.3462 16.518 21.8328 16.0804 21.6862C15.6793 21.5395 15.4241 21.9062 15.2053 22.1995C13.9291 23.7762 11.9601 24.7662 11.2673 26.8563C11.0849 27.443 10.5015 27.5897 9.91809 27.553C9.29821 27.4797 8.93358 27.0763 8.82419 26.4896C8.7148 25.9029 8.93358 25.2796 9.51699 25.1329C11.4496 24.5462 12.3247 22.7128 13.7832 21.5762C14.1843 21.2461 14.9865 20.8795 14.6219 20.1828C14.3302 19.5961 13.528 19.7428 12.9446 19.7428C8.64186 19.6694 3.64635 24.6562 3.64635 28.9464C3.64635 31.1831 5.1049 32.6498 8.02198 32.6498ZM34.2393 18.4227C34.2393 16.846 33.7288 15.5993 32.7078 14.4259C32.088 13.6926 31.6139 13.4359 30.9211 14.3893C30.046 15.5627 28.8792 16.4427 27.6759 17.286C26.5455 18.0561 26.6184 18.8994 27.7488 19.7794C28.5875 20.4028 29.3897 21.0261 30.1189 21.7228C31.9421 23.4462 32.6714 23.2995 33.7288 20.9161C34.1299 20.1094 34.2029 19.2661 34.2393 18.4227ZM17.8307 34.8132C19.6174 34.8132 20.9666 34.2632 22.1334 33.1631C22.6439 32.6865 22.8991 32.2831 22.1334 31.7331C20.8207 30.8164 19.9091 29.533 18.9975 28.213C18.3047 27.1863 17.4661 27.223 16.7003 28.213C16.044 29.0564 15.4241 29.9731 14.6584 30.7797C12.981 32.5398 13.1269 33.2365 15.3512 34.2632C16.2263 34.6665 17.1014 34.8865 17.8307 34.8132ZM18.0495 2.14227C16.2992 2.14227 14.9136 2.69228 13.7832 3.79231C13.1634 4.379 13.0904 4.81902 13.8197 5.36903C14.9865 6.24906 15.8252 7.42242 16.7003 8.63246C17.4661 9.69582 18.3412 9.69582 19.1798 8.59579C19.8362 7.71576 20.4561 6.79907 21.1853 6.02905C22.8991 4.30566 22.7897 3.71899 20.529 2.65562C19.6903 2.25228 18.8152 2.1056 18.0495 2.14227ZM1.67732 18.3494C1.67732 20.0361 2.15135 21.3561 3.17233 22.4928C3.68282 23.0429 4.12038 23.4095 4.74026 22.5662C5.61539 21.3928 6.78223 20.5128 7.98553 19.6694C9.07944 18.8994 9.04297 18.0194 7.98553 17.2127C7.18333 16.5893 6.41759 15.856 5.57893 15.306C4.92259 14.866 4.84966 13.5093 3.79222 13.9126C2.95355 14.2426 2.51599 15.1593 2.15135 16.0027C1.82318 16.8094 1.67732 17.6527 1.67732 18.3494ZM17.7578 17.396C17.065 17.5427 16.6274 17.9094 16.7003 18.6427C16.7733 19.3394 17.2108 19.7428 17.9036 19.7061C18.5964 19.6694 18.9975 19.1928 18.9611 18.4961C18.8881 17.7627 18.4141 17.4694 17.7578 17.396Z" fill="#F4C484"/>
</svg>
