<svg width="390" height="88" viewBox="0 0 390 88" fill="none" xmlns="http://www.w3.org/2000/svg">
<path d="M15.7782 23.1101H15.087C12.7428 23.1101 10.6591 22.8706 8.83579 22.3917C7.01253 21.8927 5.55994 21.2741 4.478 20.5357C3.39607 19.7773 2.50448 18.8892 1.80322 17.8714C1.10197 16.8337 0.62111 15.8358 0.360644 14.8779C0.120215 13.9 0 12.9021 0 11.8843V11.0462C0 9.98843 0.120215 8.99059 0.360644 8.05261C0.601074 7.09468 1.07192 6.11679 1.77317 5.11895C2.49446 4.10115 3.41611 3.23302 4.53811 2.51457C5.68015 1.77616 7.21289 1.17746 9.13633 0.718448C11.0798 0.239483 13.3138 0 15.8383 0H17.0104C19.6151 0 21.8991 0.209547 23.8626 0.628642C25.8462 1.02778 27.3689 1.5267 28.4308 2.12541C29.5127 2.70416 30.3843 3.41263 31.0455 4.25082C31.7267 5.06905 32.1675 5.81744 32.3678 6.49598C32.5682 7.15455 32.6784 7.85304 32.6984 8.59145V8.62139H23.8025C23.7625 8.44177 23.6923 8.27214 23.5922 8.11248C23.512 7.93287 23.3117 7.69339 22.9911 7.39403C22.6705 7.09468 22.2698 6.84522 21.7889 6.64565C21.3281 6.42612 20.6369 6.23653 19.7152 6.07688C18.7936 5.89727 17.7417 5.80746 16.5596 5.80746C11.4104 5.80746 8.83579 7.6435 8.83579 11.3156V11.6449C8.83579 13.2215 9.46692 14.5586 10.7292 15.6562C11.9914 16.7339 13.9149 17.2727 16.4995 17.2727C17.6015 17.2727 18.6033 17.2029 19.5049 17.0632C20.4065 16.9035 21.1278 16.7139 21.6687 16.4944C22.2297 16.2749 22.7006 16.0354 23.0813 15.7759C23.482 15.5165 23.7525 15.277 23.8927 15.0575C24.053 14.838 24.1331 14.6484 24.1331 14.4887H16.2891V10.1481H32.8487V22.691H27.4691C27.2287 21.5136 26.878 20.4858 26.4172 19.6077C24.2934 21.9426 20.7471 23.1101 15.7782 23.1101Z" fill="white"/>
<path d="M43.4631 6.58578V9.54938C43.7636 9.11033 44.1343 8.68126 44.5751 8.26216C45.0359 7.82311 45.7872 7.37408 46.8291 6.91507C47.8709 6.45606 49.003 6.22656 50.2252 6.22656H50.5858C51.8681 6.22656 52.9701 6.4361 53.8917 6.8552C54.8134 7.25434 55.5146 7.81313 55.9955 8.53158C56.4763 9.23007 56.827 9.97846 57.0473 10.7767C57.2677 11.5551 57.3779 12.4132 57.3779 13.3512V14.9677H49.4438V14.3989C49.4438 13.421 49.2033 12.6327 48.7225 12.034C48.2616 11.4154 47.5303 11.106 46.5285 11.106C45.5869 11.106 44.8455 11.4253 44.3046 12.064C43.7836 12.7026 43.5232 13.5408 43.5232 14.5785V22.691H35.3486V6.58578H43.4631Z" fill="white"/>
<path d="M73.4013 15.7759V15.0874L67.9916 16.0454C67.2703 16.1651 66.7594 16.3248 66.4589 16.5243C66.1583 16.7239 66.008 17.0232 66.008 17.4224V17.4523C66.008 17.9113 66.1984 18.3005 66.5791 18.6198C66.9798 18.9391 67.641 19.0988 68.5626 19.0988C70.0052 19.0988 71.1673 18.7695 72.0489 18.1109C72.9505 17.4324 73.4013 16.654 73.4013 15.7759ZM73.5515 20.5357C71.9086 22.1721 69.3841 22.9904 65.978 22.9904H65.6474C63.1229 22.9904 61.2395 22.4914 59.9973 21.4936C58.7751 20.4957 58.164 19.2684 58.164 17.8115V17.4523C58.164 16.0553 58.6649 14.9777 59.6667 14.2193C60.6885 13.441 62.3715 12.962 64.7157 12.7824L72.4997 12.0939C73.1007 12.0141 73.4013 11.7546 73.4013 11.3156C73.4013 11.0761 73.3311 10.8765 73.1909 10.7169C73.0707 10.5572 72.7401 10.4175 72.1991 10.2978C71.6581 10.1581 70.8868 10.0882 69.885 10.0882H69.7648C68.9633 10.0882 68.2921 10.1481 67.7512 10.2678C67.2302 10.3676 66.8596 10.5273 66.6392 10.7468C66.4388 10.9663 66.3086 11.136 66.2485 11.2557C66.2084 11.3555 66.1683 11.5151 66.1283 11.7347H58.5547V11.5551C58.5547 11.0162 58.5948 10.5472 58.6749 10.1481C58.7751 9.74895 59.0256 9.27996 59.4263 8.74113C59.827 8.20229 60.368 7.76324 61.0492 7.42397C61.7504 7.0847 62.7723 6.79533 64.1147 6.55584C65.4771 6.2964 67.08 6.16668 68.9233 6.16668H70.6063C72.5297 6.16668 74.1927 6.28643 75.5952 6.52591C76.9977 6.74544 78.0596 7.02483 78.7809 7.3641C79.5022 7.68341 80.0732 8.10251 80.4939 8.62139C80.9147 9.12031 81.1651 9.56934 81.2453 9.96848C81.3455 10.3477 81.3955 10.8067 81.3955 11.3455V17.3026C81.3955 17.7617 81.626 17.9912 82.0868 17.9912H82.9583V22.691H76.1662C74.6635 22.691 73.792 21.9726 73.5515 20.5357Z" fill="white"/>
<path d="M84.3619 0.419095H92.5366V8.77106C94.8206 7.11464 97.4353 6.28643 100.381 6.28643H101.012C102.775 6.28643 104.298 6.50595 105.58 6.945C106.882 7.3641 107.884 7.96281 108.585 8.74113C109.307 9.49949 109.827 10.3377 110.148 11.2557C110.469 12.1538 110.629 13.1516 110.629 14.2492V14.8779C110.629 15.9556 110.449 16.9634 110.088 17.9014C109.747 18.8393 109.196 19.6975 108.435 20.4758C107.694 21.2541 106.662 21.8728 105.339 22.3318C104.017 22.7708 102.474 22.9904 100.711 22.9904H100.11C97.1248 22.9904 94.5502 22.1821 92.3863 20.5656C92.246 20.9647 92.1058 21.6732 91.9655 22.691H84.3619V0.419095ZM92.5366 14.5486V14.6683C92.5366 15.6662 92.9673 16.5543 93.8289 17.3326C94.6904 18.1109 95.8926 18.5001 97.4353 18.5001H97.6156C99.2786 18.5001 100.481 18.1309 101.222 17.3924C101.963 16.6341 102.334 15.726 102.334 14.6683V14.5486C102.334 13.451 101.963 12.5429 101.222 11.8245C100.501 11.0861 99.2986 10.7169 97.6156 10.7169H97.4353C95.8525 10.7169 94.6403 11.096 93.7988 11.8544C92.9573 12.5928 92.5366 13.4909 92.5366 14.5486Z" fill="white"/>
<path d="M129.751 14.5486V14.6683C129.751 15.6861 130.182 16.5842 131.044 17.3625C131.905 18.1209 133.148 18.5001 134.77 18.5001H134.921C136.564 18.5001 137.746 18.1209 138.467 17.3625C139.188 16.6042 139.549 15.7061 139.549 14.6683V14.5486C139.549 13.4709 139.188 12.5729 138.467 11.8544C137.766 11.116 136.584 10.7468 134.921 10.7468H134.77C133.107 10.7468 131.855 11.116 131.014 11.8544C130.172 12.5928 129.751 13.4909 129.751 14.5486ZM121.577 6.58578H129.751V8.83093C130.112 8.51162 130.533 8.20229 131.014 7.90294C131.515 7.58363 132.386 7.23438 133.628 6.8552C134.871 6.47602 136.203 6.28643 137.626 6.28643H138.257C140.04 6.28643 141.573 6.50595 142.855 6.945C144.157 7.3641 145.159 7.96281 145.86 8.74113C146.562 9.49949 147.062 10.3277 147.363 11.2258C147.684 12.1039 147.844 13.0818 147.844 14.1594V14.7881C147.844 15.8458 147.674 16.8436 147.333 17.7816C147.012 18.6996 146.491 19.5678 145.77 20.386C145.049 21.1843 144.027 21.8229 142.705 22.3018C141.382 22.7609 139.82 22.9904 138.016 22.9904H137.445C136.063 22.9904 134.76 22.8307 133.538 22.5114C132.336 22.1721 131.475 21.8528 130.954 21.5535C130.453 21.2541 130.052 20.9747 129.751 20.7153V28.3189H121.577V6.58578Z" fill="white"/>
<path d="M157.72 6.58578V9.54938C158.021 9.11033 158.391 8.68126 158.832 8.26216C159.293 7.82311 160.044 7.37408 161.086 6.91507C162.128 6.45606 163.26 6.22656 164.482 6.22656H164.843C166.125 6.22656 167.227 6.4361 168.149 6.8552C169.07 7.25434 169.772 7.81313 170.252 8.53158C170.733 9.23007 171.084 9.97846 171.304 10.7767C171.525 11.5551 171.635 12.4132 171.635 13.3512V14.9677H163.701V14.3989C163.701 13.421 163.46 12.6327 162.979 12.034C162.519 11.4154 161.787 11.106 160.785 11.106C159.844 11.106 159.102 11.4253 158.562 12.064C158.041 12.7026 157.78 13.5408 157.78 14.5785V22.691H149.605V6.58578H157.72Z" fill="white"/>
<path d="M187.204 23.14H184.98C182.996 23.14 181.253 22.9604 179.751 22.6012C178.248 22.222 177.056 21.763 176.174 21.2242C175.313 20.6654 174.611 19.9968 174.07 19.2185C173.529 18.4402 173.169 17.7018 172.988 17.0033C172.808 16.3048 172.718 15.5664 172.718 14.7881V14.3091C172.718 13.5507 172.808 12.8323 172.988 12.1538C173.169 11.4553 173.519 10.7268 174.04 9.96848C174.581 9.21011 175.283 8.56151 176.144 8.02268C177.006 7.48384 178.188 7.03481 179.69 6.67559C181.213 6.31636 182.966 6.13675 184.95 6.13675H187.234C195.368 6.13675 199.436 8.85089 199.436 14.2792V14.818C199.436 15.6163 199.366 16.3547 199.225 17.0332C199.085 17.6918 198.755 18.4202 198.234 19.2185C197.733 20.0168 197.061 20.6853 196.22 21.2242C195.378 21.763 194.186 22.222 192.644 22.6012C191.101 22.9604 189.288 23.14 187.204 23.14ZM186.122 10.6869H186.092C184.249 10.6869 182.936 11.0561 182.155 11.7945C181.393 12.513 181.013 13.4011 181.013 14.4588V14.5785C181.013 15.6562 181.393 16.5942 182.155 17.3924C182.936 18.1708 184.249 18.5599 186.092 18.5599H186.122C187.925 18.5599 189.217 18.1608 189.999 17.3625C190.78 16.5443 191.171 15.6163 191.171 14.5785V14.4588C191.171 13.4011 190.78 12.513 189.999 11.7945C189.237 11.0561 187.945 10.6869 186.122 10.6869Z" fill="white"/>
<path d="M209.376 22.691H201.202V6.58578H209.316V9.45958C211.48 7.30423 214.155 6.22656 217.34 6.22656H217.521C220.747 6.22656 222.971 7.33417 224.193 9.54938C226.577 7.33417 229.402 6.22656 232.668 6.22656H232.878C234.241 6.22656 235.433 6.42613 236.455 6.82526C237.476 7.20444 238.258 7.71335 238.799 8.35197C239.34 8.99059 239.73 9.64917 239.971 10.3277C240.231 10.9863 240.362 11.6548 240.362 12.3334V22.691H232.187V14.9677C232.187 12.513 231.075 11.2856 228.851 11.2856C227.609 11.2856 226.637 11.6548 225.936 12.3932C225.235 13.1117 224.884 14.0397 224.884 15.1772V22.691H216.679V14.9677C216.679 12.513 215.567 11.2856 213.343 11.2856C212.101 11.2856 211.129 11.6548 210.428 12.3932C209.727 13.1117 209.376 14.0397 209.376 15.1772V22.691Z" fill="white"/>
<path d="M256.586 23.14H254.362C252.378 23.14 250.635 22.9604 249.132 22.6012C247.63 22.222 246.438 21.763 245.556 21.2242C244.694 20.6654 243.993 19.9968 243.452 19.2185C242.911 18.4402 242.551 17.7018 242.37 17.0033C242.19 16.3048 242.1 15.5664 242.1 14.7881V14.3091C242.1 13.5507 242.19 12.8323 242.37 12.1538C242.551 11.4553 242.901 10.7268 243.422 9.96848C243.963 9.21011 244.664 8.56151 245.526 8.02268C246.387 7.48384 247.57 7.03481 249.072 6.67559C250.595 6.31636 252.348 6.13675 254.332 6.13675H256.616C264.75 6.13675 268.818 8.85089 268.818 14.2792V14.818C268.818 15.6163 268.747 16.3547 268.607 17.0332C268.467 17.6918 268.136 18.4202 267.615 19.2185C267.115 20.0168 266.443 20.6853 265.602 21.2242C264.76 21.763 263.568 22.222 262.025 22.6012C260.483 22.9604 258.669 23.14 256.586 23.14ZM255.504 10.6869H255.474C253.63 10.6869 252.318 11.0561 251.537 11.7945C250.775 12.513 250.395 13.4011 250.395 14.4588V14.5785C250.395 15.6562 250.775 16.5942 251.537 17.3924C252.318 18.1708 253.63 18.5599 255.474 18.5599H255.504C257.307 18.5599 258.599 18.1608 259.381 17.3625C260.162 16.5443 260.553 15.6163 260.553 14.5785V14.4588C260.553 13.4011 260.162 12.513 259.381 11.7945C258.619 11.0561 257.327 10.6869 255.504 10.6869Z" fill="white"/>
<path d="M270.373 11.0162H280.291V16.5842H270.373V11.0162Z" fill="white"/>
<path d="M295.573 23.14H293.769C291.786 23.14 290.043 22.9604 288.54 22.6012C287.057 22.222 285.905 21.753 285.084 21.1942C284.262 20.6354 283.591 19.9669 283.07 19.1886C282.569 18.3903 282.239 17.6619 282.079 17.0033C281.938 16.3248 281.868 15.5963 281.868 14.818V14.2792C281.868 8.85089 285.825 6.13675 293.739 6.13675H295.603C297.646 6.13675 299.43 6.32634 300.952 6.70552C302.495 7.06475 303.667 7.5038 304.469 8.02268C305.27 8.5216 305.911 9.13029 306.392 9.84874C306.893 10.5672 307.203 11.1858 307.324 11.7047C307.444 12.2236 307.504 12.7624 307.504 13.3212V13.411H299.149C299.109 13.1716 299.029 12.9321 298.909 12.6926C298.808 12.4531 298.618 12.1637 298.338 11.8245C298.057 11.4652 297.596 11.1759 296.955 10.9563C296.334 10.7368 295.573 10.6271 294.671 10.6271H294.551C292.948 10.6271 291.816 10.9863 291.155 11.7047C290.494 12.4032 290.163 13.2913 290.163 14.369V14.5187C290.163 15.6562 290.504 16.6241 291.185 17.4224C291.866 18.2007 292.988 18.5899 294.551 18.5899H294.671C295.553 18.5899 296.304 18.4801 296.925 18.2606C297.566 18.0211 298.027 17.7217 298.308 17.3625C298.608 16.9833 298.808 16.674 298.909 16.4345C299.029 16.1751 299.109 15.9256 299.149 15.6861H307.504V15.746C307.504 16.1252 307.474 16.4944 307.414 16.8536C307.374 17.2128 307.254 17.6519 307.053 18.1708C306.873 18.6697 306.622 19.1387 306.302 19.5777C305.981 20.0168 305.51 20.4658 304.889 20.9248C304.288 21.3639 303.577 21.7431 302.755 22.0624C301.954 22.3817 300.932 22.6411 299.69 22.8407C298.468 23.0403 297.095 23.14 295.573 23.14Z" fill="white"/>
<path d="M323.003 23.14H320.779C318.796 23.14 317.053 22.9604 315.55 22.6012C314.047 22.222 312.855 21.763 311.974 21.2242C311.112 20.6654 310.411 19.9968 309.87 19.2185C309.329 18.4402 308.968 17.7018 308.788 17.0033C308.607 16.3048 308.517 15.5664 308.517 14.7881V14.3091C308.517 13.5507 308.607 12.8323 308.788 12.1538C308.968 11.4553 309.319 10.7268 309.84 9.96848C310.381 9.21011 311.082 8.56151 311.943 8.02268C312.805 7.48384 313.987 7.03481 315.49 6.67559C317.013 6.31636 318.766 6.13675 320.749 6.13675H323.033C331.168 6.13675 335.235 8.85089 335.235 14.2792V14.818C335.235 15.6163 335.165 16.3547 335.025 17.0332C334.884 17.6918 334.554 18.4202 334.033 19.2185C333.532 20.0168 332.861 20.6853 332.019 21.2242C331.178 21.763 329.986 22.222 328.443 22.6012C326.9 22.9604 325.087 23.14 323.003 23.14ZM321.921 10.6869H321.891C320.048 10.6869 318.736 11.0561 317.954 11.7945C317.193 12.513 316.812 13.4011 316.812 14.4588V14.5785C316.812 15.6562 317.193 16.5942 317.954 17.3924C318.736 18.1708 320.048 18.5599 321.891 18.5599H321.921C323.725 18.5599 325.017 18.1608 325.798 17.3625C326.58 16.5443 326.97 15.6163 326.97 14.5785V14.4588C326.97 13.4011 326.58 12.513 325.798 11.7945C325.037 11.0561 323.745 10.6869 321.921 10.6869Z" fill="white"/>
<path d="M354.432 14.6384V14.4887C354.432 13.5108 353.981 12.6527 353.08 11.9143C352.198 11.1559 350.956 10.7767 349.353 10.7767H349.203C347.58 10.7767 346.418 11.136 345.717 11.8544C345.015 12.5529 344.665 13.431 344.665 14.4887V14.6384C344.665 15.6562 345.035 16.5443 345.777 17.3026C346.538 18.061 347.69 18.4402 349.233 18.4402H349.353C350.976 18.4402 352.228 18.061 353.11 17.3026C353.991 16.5243 354.432 15.6362 354.432 14.6384ZM354.432 0.419095H362.607V22.691H354.462V20.356C354.262 20.5756 354.001 20.8051 353.681 21.0446C353.38 21.2641 352.919 21.5435 352.298 21.8828C351.697 22.2021 350.906 22.4715 349.924 22.691C348.942 22.8906 347.86 22.9904 346.678 22.9904H346.167C342.861 22.9904 340.397 22.222 338.774 20.6853C337.171 19.1487 336.37 17.2029 336.37 14.8479V14.2193C336.37 13.1416 336.54 12.1538 336.881 11.2557C337.241 10.3377 337.782 9.49949 338.504 8.74113C339.225 7.98276 340.217 7.38406 341.479 6.945C342.741 6.50595 344.224 6.28643 345.927 6.28643H346.498C349.724 6.28643 352.368 7.06475 354.432 8.62139V0.419095Z" fill="white"/>
<path d="M377.142 10.0882C374.477 10.0882 372.924 10.8965 372.484 12.513H381.8C381.46 10.8965 379.907 10.0882 377.142 10.0882ZM389.915 16.8237V16.8835C389.915 17.4224 389.845 17.9313 389.704 18.4103C389.564 18.8892 389.244 19.438 388.743 20.0567C388.242 20.6554 387.581 21.1743 386.759 21.6133C385.938 22.0324 384.766 22.3917 383.243 22.691C381.74 22.9904 379.987 23.14 377.983 23.14H376.391C374.487 23.14 372.804 22.9704 371.342 22.6311C369.879 22.2919 368.717 21.8528 367.855 21.314C366.994 20.7751 366.293 20.1365 365.752 19.3981C365.211 18.6398 364.84 17.9014 364.64 17.1829C364.459 16.4445 364.369 15.6662 364.369 14.8479V14.2492C364.369 8.84091 368.346 6.13675 376.3 6.13675H377.953C379.416 6.13675 380.738 6.23653 381.921 6.4361C383.123 6.61572 384.134 6.86518 384.956 7.18449C385.777 7.5038 386.489 7.90294 387.09 8.3819C387.711 8.86087 388.202 9.34981 388.562 9.84874C388.923 10.3277 389.214 10.8765 389.434 11.4952C389.654 12.0939 389.795 12.6627 389.855 13.2015C389.935 13.7204 389.975 14.2891 389.975 14.9078V15.8059H372.393C372.674 17.7816 374.307 18.7695 377.292 18.7695H377.322C378.044 18.7695 378.685 18.7096 379.246 18.5899C379.827 18.4701 380.268 18.3404 380.568 18.2007C380.889 18.041 381.149 17.8614 381.349 17.6619C381.55 17.4623 381.68 17.3026 381.74 17.1829C381.8 17.0432 381.84 16.9235 381.86 16.8237H389.915Z" fill="white"/>
<path d="M84.9062 48.2059V47.5174L79.4965 48.4753C78.7752 48.5951 78.2643 48.7547 77.9638 48.9543C77.6633 49.1539 77.513 49.4532 77.513 49.8524V49.8823C77.513 50.3413 77.7033 50.7305 78.084 51.0498C78.4847 51.3691 79.1459 51.5287 80.0676 51.5287C81.5101 51.5287 82.6722 51.1995 83.5538 50.5409C84.4554 49.8623 84.9062 49.084 84.9062 48.2059ZM85.0565 52.9656C83.4135 54.6021 80.889 55.4203 77.4829 55.4203H77.1523C74.6278 55.4203 72.7445 54.9214 71.5022 53.9236C70.2801 52.9257 69.669 51.6984 69.669 50.2415V49.8823C69.669 48.4853 70.1699 47.4076 71.1717 46.6493C72.1935 45.871 73.8765 45.392 76.2207 45.2124L84.0046 44.5239C84.6057 44.444 84.9062 44.1846 84.9062 43.7455C84.9062 43.5061 84.8361 43.3065 84.6958 43.1468C84.5756 42.9872 84.245 42.8475 83.7041 42.7277C83.1631 42.5881 82.3917 42.5182 81.3899 42.5182H81.2697C80.4683 42.5182 79.7971 42.5781 79.2561 42.6978C78.7352 42.7976 78.3645 42.9573 78.1441 43.1768C77.9438 43.3963 77.8135 43.5659 77.7534 43.6857C77.7133 43.7855 77.6733 43.9451 77.6332 44.1646H70.0597V43.985C70.0597 43.4462 70.0997 42.9772 70.1799 42.5781C70.2801 42.1789 70.5305 41.7099 70.9312 41.1711C71.3319 40.6323 71.8729 40.1932 72.5541 39.854C73.2554 39.5147 74.2772 39.2253 75.6196 38.9858C76.982 38.7264 78.5849 38.5967 80.4282 38.5967H82.1112C84.0346 38.5967 85.6976 38.7164 87.1001 38.9559C88.5026 39.1754 89.5645 39.4548 90.2858 39.7941C91.0071 40.1134 91.5781 40.5325 91.9989 41.0514C92.4196 41.5503 92.6701 41.9993 92.7502 42.3985C92.8504 42.7776 92.9005 43.2366 92.9005 43.7755V49.7326C92.9005 50.1916 93.1309 50.4211 93.5917 50.4211H94.4633V55.121H87.6711C86.1685 55.121 85.2969 54.4025 85.0565 52.9656Z" fill="white"/>
<path d="M95.8669 55.121V39.0158H103.981V41.8596C104.282 41.5802 104.512 41.3707 104.673 41.231C104.853 41.0713 105.224 40.8019 105.785 40.4227C106.366 40.0435 106.927 39.7542 107.468 39.5546C108.009 39.3351 108.71 39.1355 109.571 38.9559C110.453 38.7563 111.375 38.6565 112.336 38.6565H112.517C113.959 38.6565 115.211 38.8561 116.273 39.2552C117.355 39.6344 118.187 40.1433 118.768 40.7819C119.349 41.4006 119.77 42.0492 120.03 42.7277C120.311 43.3863 120.451 44.0649 120.451 44.7634V55.121H112.246V47.4276C112.246 46.2901 111.926 45.392 111.284 44.7334C110.663 44.0549 109.682 43.7156 108.339 43.7156C106.997 43.7156 105.945 44.0748 105.184 44.7933C104.422 45.5117 104.041 46.4597 104.041 47.6371V55.121H95.8669Z" fill="white"/>
<path d="M140.27 47.0684V46.9187C140.27 45.9408 139.819 45.0827 138.918 44.3443C138.036 43.5859 136.794 43.2067 135.191 43.2067H135.041C133.418 43.2067 132.256 43.5659 131.555 44.2844C130.853 44.9829 130.503 45.861 130.503 46.9187V47.0684C130.503 48.0862 130.873 48.9743 131.615 49.7326C132.376 50.491 133.528 50.8702 135.071 50.8702H135.191C136.814 50.8702 138.066 50.491 138.948 49.7326C139.829 48.9543 140.27 48.0662 140.27 47.0684ZM140.27 32.8491H148.445V55.121H140.3V52.786C140.1 53.0056 139.839 53.2351 139.519 53.4745C139.218 53.6941 138.757 53.9735 138.136 54.3127C137.535 54.632 136.744 54.9015 135.762 55.121C134.78 55.3206 133.698 55.4203 132.516 55.4203H132.005C128.699 55.4203 126.235 54.652 124.612 53.1153C123.009 51.5786 122.208 49.6328 122.208 47.2779V46.6493C122.208 45.5716 122.378 44.5837 122.719 43.6857C123.079 42.7677 123.62 41.9295 124.342 41.1711C125.063 40.4127 126.055 39.814 127.317 39.375C128.579 38.9359 130.062 38.7164 131.765 38.7164H132.336C135.562 38.7164 138.206 39.4947 140.27 41.0514V32.8491Z" fill="white"/>
<path d="M172.468 43.2666H172.288C170.625 43.2666 169.423 43.5759 168.681 44.1946C167.96 44.8132 167.599 45.5816 167.599 46.4996V46.6493C167.599 47.6072 167.97 48.4155 168.711 49.074C169.473 49.7326 170.665 50.0619 172.288 50.0619H172.468C174.151 50.0619 175.433 49.7326 176.315 49.074C177.197 48.3955 177.637 47.5873 177.637 46.6493V46.5595C177.637 45.6215 177.197 44.8432 176.315 44.2245C175.454 43.5859 174.171 43.2666 172.468 43.2666ZM173.971 60.9584H171.657C169.753 60.9584 168.07 60.8087 166.608 60.5094C165.165 60.21 164.053 59.8508 163.272 59.4317C162.51 59.0126 161.889 58.5137 161.408 57.9349C160.948 57.3761 160.647 56.8872 160.507 56.4681C160.387 56.049 160.326 55.6299 160.326 55.2108V55.121H168.531C168.731 56.0191 170.134 56.4681 172.739 56.4681H172.829C176.095 56.4681 177.728 55.101 177.728 52.3669V52.0376C176.125 53.6342 173.5 54.4325 169.853 54.4325H169.373C165.926 54.4325 163.392 53.704 161.769 52.2472C160.146 50.7903 159.335 48.9643 159.335 46.769V46.2302C159.335 44.1147 160.096 42.3386 161.619 40.9017C163.141 39.4448 165.546 38.7164 168.832 38.7164H169.493C173.059 38.7164 175.794 39.5047 177.698 41.0813V39.0158H185.872V52.4268C185.872 53.1652 185.782 53.8837 185.602 54.5822C185.441 55.2806 185.101 56.029 184.58 56.8273C184.059 57.6256 183.378 58.3141 182.536 58.8928C181.715 59.4916 180.563 59.9805 179.08 60.3597C177.597 60.7588 175.894 60.9584 173.971 60.9584Z" fill="white"/>
<path d="M200.43 42.5182C197.765 42.5182 196.212 43.3265 195.771 44.943H205.088C204.747 43.3265 203.195 42.5182 200.43 42.5182ZM213.202 49.2537V49.3135C213.202 49.8524 213.132 50.3613 212.992 50.8402C212.852 51.3192 212.531 51.868 212.03 52.4867C211.529 53.0854 210.868 53.6043 210.047 54.0433C209.225 54.4624 208.053 54.8216 206.531 55.121C205.028 55.4203 203.275 55.57 201.271 55.57H199.678C197.775 55.57 196.092 55.4004 194.629 55.0611C193.167 54.7219 192.005 54.2828 191.143 53.744C190.281 53.2051 189.58 52.5665 189.039 51.8281C188.498 51.0697 188.128 50.3313 187.927 49.6129C187.747 48.8745 187.657 48.0962 187.657 47.2779V46.6792C187.657 41.2709 191.634 38.5667 199.588 38.5667H201.241C202.704 38.5667 204.026 38.6665 205.208 38.8661C206.41 39.0457 207.422 39.2952 208.244 39.6145C209.065 39.9338 209.776 40.3329 210.377 40.8119C210.999 41.2909 211.489 41.7798 211.85 42.2787C212.211 42.7577 212.501 43.3065 212.722 43.9252C212.942 44.5239 213.082 45.0926 213.142 45.6315C213.222 46.1504 213.263 46.7191 213.263 47.3378V48.2359H195.681C195.962 50.2116 197.595 51.1995 200.58 51.1995H200.61C201.331 51.1995 201.972 51.1396 202.533 51.0198C203.114 50.9001 203.555 50.7704 203.856 50.6307C204.176 50.471 204.437 50.2914 204.637 50.0918C204.838 49.8923 204.968 49.7326 205.028 49.6129C205.088 49.4732 205.128 49.3534 205.148 49.2537H213.202Z" fill="white"/>
<path d="M228.226 55.121H221.313C218.448 55.121 217.016 53.5943 217.016 50.5409V43.9551H213.92V39.0158H217.016V34.3159H225.13V39.0158H228.226V43.9551H225.13V48.7148C225.13 49.2337 225.21 49.6029 225.371 49.8224C225.551 50.022 225.922 50.1218 226.483 50.1218H228.226V55.121Z" fill="white"/>
<path d="M250.928 55.57H249.275C242.082 55.57 238.486 53.6641 238.486 49.8524V49.6428H246.81C246.81 49.8424 246.841 50.032 246.901 50.2116C246.981 50.3912 247.121 50.6007 247.321 50.8402C247.522 51.0797 247.862 51.2693 248.343 51.409C248.844 51.5487 249.445 51.6185 250.146 51.6185H250.207C251.509 51.6185 252.39 51.4988 252.851 51.2593C253.312 51.0198 253.543 50.6906 253.543 50.2715V50.2116C253.543 49.7925 253.342 49.4832 252.941 49.2836C252.541 49.0641 251.709 48.9343 250.447 48.8944L247.021 48.8046C241.451 48.6051 238.666 46.9187 238.666 43.7455V43.5659C238.666 42.8475 238.806 42.2188 239.087 41.68C239.367 41.1212 239.868 40.5924 240.589 40.0934C241.331 39.5945 242.423 39.2153 243.865 38.9559C245.328 38.6964 247.131 38.5667 249.275 38.5667H250.868C257.94 38.5667 261.477 40.2331 261.477 43.5659V43.7755H253.302C253.262 43.516 253.192 43.3065 253.092 43.1468C252.992 42.9672 252.681 42.7776 252.16 42.5781C251.659 42.3785 250.958 42.2787 250.056 42.2787H250.026C248.784 42.2787 247.943 42.3685 247.502 42.5481C247.081 42.7078 246.871 42.9872 246.871 43.3863V43.4163C246.871 43.7755 247.081 44.0549 247.502 44.2544C247.922 44.454 248.714 44.5738 249.876 44.6137L253.272 44.7035C255.656 44.7833 257.5 45.0328 258.802 45.4519C260.104 45.871 260.976 46.4198 261.417 47.0983C261.857 47.7768 262.078 48.6849 262.078 49.8224V50.032C262.078 50.6706 261.998 51.2494 261.837 51.7682C261.677 52.2672 261.356 52.7661 260.876 53.265C260.395 53.744 259.754 54.1531 258.952 54.4923C258.151 54.8117 257.069 55.0711 255.706 55.2707C254.364 55.4702 252.771 55.57 250.928 55.57Z" fill="white"/>
<path d="M271.949 46.9786V47.0983C271.949 48.1161 272.38 49.0142 273.241 49.7925C274.103 50.5509 275.345 50.93 276.968 50.93H277.118C278.761 50.93 279.943 50.5509 280.665 49.7925C281.386 49.0341 281.747 48.1361 281.747 47.0983V46.9786C281.747 45.9009 281.386 45.0028 280.665 44.2844C279.963 43.546 278.781 43.1768 277.118 43.1768H276.968C275.305 43.1768 274.053 43.546 273.211 44.2844C272.37 45.0228 271.949 45.9209 271.949 46.9786ZM263.774 39.0158H271.949V41.2609C272.31 40.9416 272.73 40.6323 273.211 40.3329C273.712 40.0136 274.584 39.6644 275.826 39.2852C277.068 38.906 278.401 38.7164 279.823 38.7164H280.454C282.237 38.7164 283.77 38.9359 285.052 39.375C286.355 39.7941 287.357 40.3928 288.058 41.1711C288.759 41.9295 289.26 42.7577 289.56 43.6557C289.881 44.5338 290.041 45.5117 290.041 46.5894V47.2181C290.041 48.2758 289.871 49.2736 289.53 50.2116C289.21 51.1296 288.689 51.9977 287.968 52.816C287.246 53.6142 286.225 54.2529 284.902 54.7318C283.58 55.1908 282.017 55.4203 280.214 55.4203H279.643C278.26 55.4203 276.958 55.2607 275.736 54.9414C274.534 54.6021 273.672 54.2828 273.151 53.9834C272.65 53.6841 272.25 53.4047 271.949 53.1453V60.7488H263.774V39.0158Z" fill="white"/>
<path d="M303.945 42.5182C301.28 42.5182 299.727 43.3265 299.286 44.943H308.603C308.262 43.3265 306.71 42.5182 303.945 42.5182ZM316.718 49.2537V49.3135C316.718 49.8524 316.647 50.3613 316.507 50.8402C316.367 51.3192 316.046 51.868 315.545 52.4867C315.045 53.0854 314.383 53.6043 313.562 54.0433C312.74 54.4624 311.568 54.8216 310.046 55.121C308.543 55.4203 306.79 55.57 304.786 55.57H303.193C301.29 55.57 299.607 55.4004 298.144 55.0611C296.682 54.7219 295.52 54.2828 294.658 53.744C293.797 53.2051 293.095 52.5665 292.554 51.8281C292.013 51.0697 291.643 50.3313 291.442 49.6129C291.262 48.8745 291.172 48.0962 291.172 47.2779V46.6792C291.172 41.2709 295.149 38.5667 303.103 38.5667H304.756C306.219 38.5667 307.541 38.6665 308.723 38.8661C309.925 39.0457 310.937 39.2952 311.759 39.6145C312.58 39.9338 313.291 40.3329 313.892 40.8119C314.514 41.2909 315.004 41.7798 315.365 42.2787C315.726 42.7577 316.016 43.3065 316.237 43.9252C316.457 44.5239 316.597 45.0926 316.657 45.6315C316.738 46.1504 316.778 46.7191 316.778 47.3378V48.2359H299.196C299.477 50.2116 301.11 51.1995 304.095 51.1995H304.125C304.846 51.1995 305.487 51.1396 306.048 51.0198C306.629 50.9001 307.07 50.7704 307.371 50.6307C307.691 50.471 307.952 50.2914 308.152 50.0918C308.353 49.8923 308.483 49.7326 308.543 49.6129C308.603 49.4732 308.643 49.3534 308.663 49.2537H316.718Z" fill="white"/>
<path d="M331.555 55.57H329.752C327.768 55.57 326.025 55.3904 324.522 55.0312C323.04 54.652 321.888 54.183 321.066 53.6242C320.245 53.0654 319.573 52.3969 319.053 51.6185C318.552 50.8203 318.221 50.0918 318.061 49.4333C317.921 48.7547 317.85 48.0263 317.85 47.248V46.7091C317.85 41.2809 321.807 38.5667 329.722 38.5667H331.585C333.629 38.5667 335.412 38.7563 336.935 39.1355C338.477 39.4947 339.649 39.9338 340.451 40.4527C341.252 40.9516 341.893 41.5603 342.374 42.2787C342.875 42.9972 343.186 43.6158 343.306 44.1347C343.426 44.6536 343.486 45.1924 343.486 45.7512V45.841H335.131C335.091 45.6015 335.011 45.3621 334.891 45.1226C334.791 44.8831 334.6 44.5937 334.32 44.2544C334.039 43.8952 333.579 43.6059 332.937 43.3863C332.316 43.1668 331.555 43.057 330.653 43.057H330.533C328.93 43.057 327.798 43.4163 327.137 44.1347C326.476 44.8332 326.145 45.7213 326.145 46.799V46.9486C326.145 48.0862 326.486 49.0541 327.167 49.8524C327.848 50.6307 328.97 51.0198 330.533 51.0198H330.653C331.535 51.0198 332.286 50.9101 332.907 50.6906C333.548 50.4511 334.009 50.1517 334.29 49.7925C334.59 49.4133 334.791 49.104 334.891 48.8645C335.011 48.6051 335.091 48.3556 335.131 48.1161H343.486V48.176C343.486 48.5552 343.456 48.9244 343.396 49.2836C343.356 49.6428 343.236 50.0819 343.035 50.6007C342.855 51.0997 342.605 51.5687 342.284 52.0077C341.964 52.4468 341.493 52.8958 340.872 53.3548C340.27 53.7939 339.559 54.173 338.738 54.4923C337.936 54.8117 336.914 55.0711 335.672 55.2707C334.45 55.4702 333.078 55.57 331.555 55.57Z" fill="white"/>
<path d="M353.305 32.8491V37.6687H345.131V32.8491H353.305ZM353.305 39.0158V55.121H345.131V39.0158H353.305Z" fill="white"/>
<path d="M370.152 48.2059V47.5174L364.743 48.4753C364.021 48.5951 363.51 48.7547 363.21 48.9543C362.909 49.1539 362.759 49.4532 362.759 49.8524V49.8823C362.759 50.3413 362.949 50.7305 363.33 51.0498C363.731 51.3691 364.392 51.5287 365.314 51.5287C366.756 51.5287 367.918 51.1995 368.8 50.5409C369.702 49.8623 370.152 49.084 370.152 48.2059ZM370.303 52.9656C368.66 54.6021 366.135 55.4203 362.729 55.4203H362.398C359.874 55.4203 357.991 54.9214 356.748 53.9236C355.526 52.9257 354.915 51.6984 354.915 50.2415V49.8823C354.915 48.4853 355.416 47.4076 356.418 46.6493C357.44 45.871 359.123 45.392 361.467 45.2124L369.251 44.5239C369.852 44.444 370.152 44.1846 370.152 43.7455C370.152 43.5061 370.082 43.3065 369.942 43.1468C369.822 42.9872 369.491 42.8475 368.95 42.7277C368.409 42.5881 367.638 42.5182 366.636 42.5182H366.516C365.714 42.5182 365.043 42.5781 364.502 42.6978C363.981 42.7976 363.611 42.9573 363.39 43.1768C363.19 43.3963 363.06 43.5659 363 43.6857C362.959 43.7855 362.919 43.9451 362.879 44.1646H355.306V43.985C355.306 43.4462 355.346 42.9772 355.426 42.5781C355.526 42.1789 355.777 41.7099 356.177 41.1711C356.578 40.6323 357.119 40.1932 357.8 39.854C358.502 39.5147 359.523 39.2253 360.866 38.9858C362.228 38.7264 363.831 38.5967 365.674 38.5967H367.357C369.281 38.5967 370.944 38.7164 372.346 38.9559C373.749 39.1754 374.811 39.4548 375.532 39.7941C376.253 40.1134 376.824 40.5325 377.245 41.0514C377.666 41.5503 377.916 41.9993 377.996 42.3985C378.097 42.7776 378.147 43.2366 378.147 43.7755V49.7326C378.147 50.1916 378.377 50.4211 378.838 50.4211H379.709V55.121H372.917C371.415 55.121 370.543 54.4025 370.303 52.9656Z" fill="white"/>
<path d="M389.288 32.8491V55.121H381.113V32.8491H389.288Z" fill="white"/>
<path d="M246.546 65.2791H254.721V73.631C257.005 71.9746 259.62 71.1464 262.565 71.1464H263.196C264.959 71.1464 266.482 71.3659 267.764 71.805C269.067 72.2241 270.068 72.8228 270.77 73.6011C271.491 74.3595 272.012 75.1976 272.332 76.1157C272.653 77.0137 272.813 78.0116 272.813 79.1092V79.7378C272.813 80.8155 272.633 81.8233 272.272 82.7613C271.932 83.6993 271.381 84.5574 270.619 85.3358C269.878 86.1141 268.846 86.7327 267.524 87.1917C266.201 87.6308 264.659 87.8503 262.896 87.8503H262.294C259.309 87.8503 256.735 87.0421 254.571 85.4256C254.43 85.8247 254.29 86.5332 254.15 87.551H246.546V65.2791ZM254.721 79.4086V79.5283C254.721 80.5261 255.152 81.4142 256.013 82.1925C256.875 82.9709 258.077 83.36 259.62 83.36H259.8C261.463 83.36 262.665 82.9908 263.406 82.2524C264.148 81.494 264.518 80.586 264.518 79.5283V79.4086C264.518 78.3109 264.148 77.4029 263.406 76.6844C262.685 75.946 261.483 75.5768 259.8 75.5768H259.62C258.037 75.5768 256.825 75.956 255.983 76.7144C255.142 77.4528 254.721 78.3508 254.721 79.4086Z" fill="white"/>
<path d="M288.488 88H286.264C284.281 88 282.538 87.8204 281.035 87.4612C279.532 87.082 278.34 86.623 277.459 86.0841C276.597 85.5253 275.896 84.8568 275.355 84.0785C274.814 83.3001 274.453 82.5617 274.273 81.8633C274.093 81.1648 274.003 80.4264 274.003 79.648V79.1691C274.003 78.4107 274.093 77.6923 274.273 77.0137C274.453 76.3152 274.804 75.5868 275.325 74.8284C275.866 74.0701 276.567 73.4215 277.429 72.8826C278.29 72.3438 279.472 71.8948 280.975 71.5356C282.498 71.1763 284.251 70.9967 286.234 70.9967H288.518C296.653 70.9967 300.72 73.7108 300.72 79.1391V79.678C300.72 80.4762 300.65 81.2146 300.51 81.8932C300.37 82.5518 300.039 83.2802 299.518 84.0785C299.017 84.8767 298.346 85.5453 297.505 86.0841C296.663 86.623 295.471 87.082 293.928 87.4612C292.385 87.8204 290.572 88 288.488 88ZM287.406 75.5469H287.376C285.533 75.5469 284.221 75.9161 283.439 76.6545C282.678 77.3729 282.297 78.261 282.297 79.3187V79.4385C282.297 80.5162 282.678 81.4541 283.439 82.2524C284.221 83.0307 285.533 83.4199 287.376 83.4199H287.406C289.21 83.4199 290.502 83.0208 291.283 82.2225C292.065 81.4042 292.456 80.4762 292.456 79.4385V79.3187C292.456 78.261 292.065 77.3729 291.283 76.6545C290.522 75.9161 289.23 75.5469 287.406 75.5469Z" fill="white"/>
<path d="M302.486 87.551V71.4457H310.601V74.2896C310.901 74.0102 311.132 73.8007 311.292 73.661C311.472 73.5013 311.843 73.2319 312.404 72.8527C312.985 72.4735 313.546 72.1841 314.087 71.9846C314.628 71.765 315.329 71.5655 316.191 71.3859C317.072 71.1863 317.994 71.0865 318.956 71.0865H319.136C320.578 71.0865 321.831 71.2861 322.893 71.6852C323.975 72.0644 324.806 72.5733 325.387 73.2119C325.968 73.8306 326.389 74.4792 326.649 75.1577C326.93 75.8163 327.07 76.4948 327.07 77.1933V87.551H318.865V79.8576C318.865 78.72 318.545 77.822 317.904 77.1634C317.283 76.4849 316.301 76.1456 314.958 76.1456C313.616 76.1456 312.564 76.5048 311.803 77.2233C311.041 77.9417 310.661 78.8897 310.661 80.0671V87.551H302.486Z" fill="white"/>
<path d="M353.653 71.4457V87.551H345.538V84.6772C343.374 86.8325 340.64 87.9102 337.334 87.9102H337.123C335.701 87.9102 334.459 87.7106 333.397 87.3115C332.335 86.9123 331.523 86.3835 330.962 85.7249C330.421 85.0663 330.021 84.3978 329.76 83.7192C329.5 83.0407 329.369 82.3422 329.369 81.6238V71.4457H337.574V79.1391C337.574 80.2567 337.875 81.1548 338.476 81.8333C339.077 82.5118 340.018 82.8511 341.301 82.8511C342.623 82.8511 343.655 82.4819 344.396 81.7435C345.138 81.0051 345.508 80.0671 345.508 78.9296V71.4457H353.653Z" fill="white"/>
<path d="M367.679 88H366.027C358.834 88 355.237 86.0941 355.237 82.2823V82.0728H363.562C363.562 82.2724 363.592 82.462 363.652 82.6416C363.732 82.8212 363.873 83.0307 364.073 83.2702C364.273 83.5097 364.614 83.6993 365.095 83.839C365.596 83.9787 366.197 84.0485 366.898 84.0485H366.958C368.261 84.0485 369.142 83.9288 369.603 83.6893C370.064 83.4498 370.294 83.1205 370.294 82.7014V82.6416C370.294 82.2225 370.094 81.9131 369.693 81.7136C369.292 81.494 368.461 81.3643 367.199 81.3244L363.772 81.2346C358.203 81.035 355.418 79.3487 355.418 76.1755V75.9959C355.418 75.2775 355.558 74.6488 355.838 74.11C356.119 73.5512 356.62 73.0223 357.341 72.5234C358.082 72.0245 359.174 71.6453 360.617 71.3859C362.079 71.1264 363.883 70.9967 366.027 70.9967H367.619C374.692 70.9967 378.228 72.6631 378.228 75.9959V76.2055H370.054C370.014 75.946 369.944 75.7365 369.843 75.5768C369.743 75.3972 369.433 75.2076 368.912 75.008C368.411 74.8085 367.71 74.7087 366.808 74.7087H366.778C365.536 74.7087 364.694 74.7985 364.253 74.9781C363.833 75.1378 363.622 75.4172 363.622 75.8163V75.8462C363.622 76.2055 363.833 76.4849 364.253 76.6844C364.674 76.884 365.465 77.0037 366.628 77.0437L370.024 77.1335C372.408 77.2133 374.251 77.4627 375.554 77.8818C376.856 78.3009 377.727 78.8498 378.168 79.5283C378.609 80.2068 378.829 81.1149 378.829 82.2524V82.462C378.829 83.1006 378.749 83.6793 378.589 84.1982C378.429 84.6971 378.108 85.1961 377.627 85.695C377.146 86.1739 376.505 86.5831 375.704 86.9223C374.902 87.2416 373.82 87.5011 372.458 87.7007C371.116 87.9002 369.523 88 367.679 88Z" fill="white"/>
<path d="M379.511 65.2791H390L387.235 80.3665H382.246L379.511 65.2791ZM389.008 81.7136V87.551H380.503V81.7136H389.008Z" fill="white"/>
</svg>
