<svg width="791" height="185" viewBox="0 0 791 185" fill="none" xmlns="http://www.w3.org/2000/svg">
<g filter="url(#filter0_d_10210_1529)">
<path d="M96.3357 70.1156V33.7208H142.425V151.279H96.3357V114.884H76.0896V151.279H30V33.7208H76.0896V70.1156H96.3357Z" fill="#6842E7"/>
<path d="M96.3357 70.1156V33.7208H142.425V151.279H96.3357V114.884H76.0896V151.279H30V33.7208H76.0896V70.1156H96.3357Z" fill="url(#paint0_linear_10210_1529)"/>
<path d="M230.247 33.7208L264.666 151.279H220.243L217.028 138.879H190.112L186.897 151.279H142.475L176.774 33.7208H230.247ZM209.763 102.806L203.57 76.3961L197.377 102.806H209.763Z" fill="#6842E7"/>
<path d="M230.247 33.7208L264.666 151.279H220.243L217.028 138.879H190.112L186.897 151.279H142.475L176.774 33.7208H230.247ZM209.763 102.806L203.57 76.3961L197.377 102.806H209.763Z" fill="url(#paint1_linear_10210_1529)"/>
<path d="M351.877 151.279H264.7V33.7208H311.385V102.968H351.877V151.279Z" fill="#6842E7"/>
<path d="M351.877 151.279H264.7V33.7208H311.385V102.968H351.877V151.279Z" fill="url(#paint2_linear_10210_1529)"/>
<path d="M401.045 90.4065L414.622 33.7208H461.307L427.96 151.279H374.606L340.307 33.7208H386.992L401.045 90.4065Z" fill="#6842E7"/>
<path d="M401.045 90.4065L414.622 33.7208H461.307L427.96 151.279H374.606L340.307 33.7208H386.992L401.045 90.4065Z" fill="url(#paint3_linear_10210_1529)"/>
<path d="M507.819 33.7208V151.279H461.253V33.7208H507.819Z" fill="#6842E7"/>
<path d="M507.819 33.7208V151.279H461.253V33.7208H507.819Z" fill="url(#paint4_linear_10210_1529)"/>
<path d="M588.291 81.3883V33.7208H630.927V151.279H588.172L559.947 100.874V151.279H517.311V33.7208H562.567L588.291 81.3883Z" fill="#6842E7"/>
<path d="M588.291 81.3883V33.7208H630.927V151.279H588.172L559.947 100.874V151.279H517.311V33.7208H562.567L588.291 81.3883Z" fill="url(#paint5_linear_10210_1529)"/>
<path d="M713.958 103.129H696.093V83.1597H761V151.279H741.349L728.249 118.588C724.319 141.617 710.623 154.5 686.566 154.5C656.078 154.5 637.737 129.539 637.737 96.526V90.4065C637.737 56.1052 656.673 30.5 701.095 30.5C742.302 30.5 759.094 53.2065 761 78.1675H712.29C711.218 75.752 708.479 71.887 699.666 71.887C689.305 71.887 684.541 78.4896 684.541 91.8558V93.1442C684.541 106.51 689.186 112.791 699.547 112.791C709.194 112.791 713.124 107.638 713.958 103.129Z" fill="#6842E7"/>
<path d="M713.958 103.129H696.093V83.1597H761V151.279H741.349L728.249 118.588C724.319 141.617 710.623 154.5 686.566 154.5C656.078 154.5 637.737 129.539 637.737 96.526V90.4065C637.737 56.1052 656.673 30.5 701.095 30.5C742.302 30.5 759.094 53.2065 761 78.1675H712.29C711.218 75.752 708.479 71.887 699.666 71.887C689.305 71.887 684.541 78.4896 684.541 91.8558V93.1442C684.541 106.51 689.186 112.791 699.547 112.791C709.194 112.791 713.124 107.638 713.958 103.129Z" fill="url(#paint6_linear_10210_1529)"/>
</g>
<defs>
<filter id="filter0_d_10210_1529" x="0" y="0.5" width="791" height="184" filterUnits="userSpaceOnUse" color-interpolation-filters="sRGB">
<feFlood flood-opacity="0" result="BackgroundImageFix"/>
<feColorMatrix in="SourceAlpha" type="matrix" values="0 0 0 0 0 0 0 0 0 0 0 0 0 0 0 0 0 0 127 0" result="hardAlpha"/>
<feOffset/>
<feGaussianBlur stdDeviation="15"/>
<feComposite in2="hardAlpha" operator="out"/>
<feColorMatrix type="matrix" values="0 0 0 0 0.342647 0 0 0 0 0.207843 0 0 0 0 0.792157 0 0 0 0.4 0"/>
<feBlend mode="normal" in2="BackgroundImageFix" result="effect1_dropShadow_10210_1529"/>
<feBlend mode="normal" in="SourceGraphic" in2="effect1_dropShadow_10210_1529" result="shape"/>
</filter>
<linearGradient id="paint0_linear_10210_1529" x1="203.983" y1="-101.337" x2="663.772" y2="315.692" gradientUnits="userSpaceOnUse">
<stop stop-color="#8C48FF"/>
<stop offset="0.482292" stop-color="#C9AAFF"/>
<stop offset="1" stop-color="#9354FF"/>
</linearGradient>
<linearGradient id="paint1_linear_10210_1529" x1="203.983" y1="-101.337" x2="663.772" y2="315.692" gradientUnits="userSpaceOnUse">
<stop stop-color="#8C48FF"/>
<stop offset="0.482292" stop-color="#C9AAFF"/>
<stop offset="1" stop-color="#9354FF"/>
</linearGradient>
<linearGradient id="paint2_linear_10210_1529" x1="203.983" y1="-101.337" x2="663.772" y2="315.692" gradientUnits="userSpaceOnUse">
<stop stop-color="#8C48FF"/>
<stop offset="0.482292" stop-color="#C9AAFF"/>
<stop offset="1" stop-color="#9354FF"/>
</linearGradient>
<linearGradient id="paint3_linear_10210_1529" x1="203.983" y1="-101.337" x2="663.772" y2="315.692" gradientUnits="userSpaceOnUse">
<stop stop-color="#8C48FF"/>
<stop offset="0.482292" stop-color="#C9AAFF"/>
<stop offset="1" stop-color="#9354FF"/>
</linearGradient>
<linearGradient id="paint4_linear_10210_1529" x1="203.983" y1="-101.337" x2="663.772" y2="315.692" gradientUnits="userSpaceOnUse">
<stop stop-color="#8C48FF"/>
<stop offset="0.482292" stop-color="#C9AAFF"/>
<stop offset="1" stop-color="#9354FF"/>
</linearGradient>
<linearGradient id="paint5_linear_10210_1529" x1="203.983" y1="-101.337" x2="663.772" y2="315.692" gradientUnits="userSpaceOnUse">
<stop stop-color="#8C48FF"/>
<stop offset="0.482292" stop-color="#C9AAFF"/>
<stop offset="1" stop-color="#9354FF"/>
</linearGradient>
<linearGradient id="paint6_linear_10210_1529" x1="203.983" y1="-101.337" x2="663.772" y2="315.692" gradientUnits="userSpaceOnUse">
<stop stop-color="#8C48FF"/>
<stop offset="0.482292" stop-color="#C9AAFF"/>
<stop offset="1" stop-color="#9354FF"/>
</linearGradient>
</defs>
</svg>
