<svg width="89" height="88" viewBox="0 0 89 88" fill="none" xmlns="http://www.w3.org/2000/svg">
<path d="M88.3334 44C88.3334 19.712 68.6214 0 44.3334 0C20.0454 0 0.333374 19.712 0.333374 44C0.333374 68.288 20.0454 88 44.3334 88C68.6214 88 88.3334 68.288 88.3334 44Z" fill="#FF0420"/>
<path d="M31.5206 55.6864C28.8806 55.6864 26.7334 55.0528 25.079 53.8208C23.4246 52.5536 22.5798 50.7584 22.5798 48.4704C22.5798 47.9776 22.6502 47.3792 22.7558 46.6752C23.0374 45.0912 23.4598 43.1904 23.9878 40.9376C25.5014 34.8832 29.3734 31.856 35.6038 31.856C37.2934 31.856 38.8422 32.1376 40.1798 32.736C41.5174 33.2992 42.5734 34.144 43.3478 35.2704C44.1222 36.3968 44.5094 37.6992 44.5094 39.248C44.5094 39.7056 44.439 40.304 44.3334 41.008C43.9814 42.9792 43.5942 44.88 43.1366 46.7456C42.3622 49.7728 41.0246 52.0256 39.1238 53.5392C37.223 55.0176 34.6886 55.7568 31.5206 55.7568V55.6864ZM32.0134 50.9344C33.2454 50.9344 34.3014 50.5472 35.1462 49.8432C36.0262 49.104 36.6598 48.0128 37.047 46.4992C37.575 44.4224 37.9622 42.6272 38.2086 41.0784C38.3142 40.6208 38.3494 40.128 38.3494 39.6352C38.3494 37.6288 37.2934 36.608 35.2166 36.608C33.9846 36.608 32.9286 36.9952 32.0486 37.6992C31.1686 38.4384 30.5702 39.5296 30.183 41.0432C29.7606 42.5216 29.3734 44.3168 28.9862 46.464C28.8806 46.9216 28.8454 47.3792 28.8454 47.872C28.8102 49.9136 29.9014 50.9344 32.0134 50.9344Z" fill="white"/>
<path d="M45.9878 55.3696C45.7414 55.3696 45.5654 55.2992 45.4246 55.1232C45.319 54.9472 45.2838 54.736 45.319 54.5248L49.895 33.0528C49.9302 32.8064 50.071 32.5952 50.2822 32.4544C50.4934 32.2784 50.7046 32.208 50.9158 32.208H59.7158C62.1798 32.208 64.1158 32.736 65.5942 33.7216C67.1078 34.7424 67.847 36.2208 67.847 38.1216C67.847 38.6848 67.7766 39.248 67.6358 39.8464C67.0726 42.3808 65.9814 44.2464 64.2918 45.4784C62.6374 46.7104 60.3494 47.3088 57.463 47.3088H52.9926L51.479 54.56C51.4086 54.8064 51.303 55.0176 51.0918 55.1584C50.8806 55.3344 50.6694 55.4048 50.4582 55.4048H45.9526L45.9878 55.3696ZM57.6742 42.7328C58.6246 42.7328 59.399 42.4864 60.103 41.9584C60.807 41.4304 61.2646 40.7264 61.511 39.776C61.5814 39.3888 61.6166 39.072 61.6166 38.7904C61.6166 38.1568 61.4054 37.664 61.0534 37.312C60.6662 36.96 60.0326 36.784 59.1174 36.784H55.1398L53.8726 42.6976H57.6742V42.7328Z" fill="white"/>
</svg>
