<svg width="89" height="88" viewBox="0 0 89 88" fill="none" xmlns="http://www.w3.org/2000/svg">
<g clip-path="url(#clip0_7169_39238)">
<path fill-rule="evenodd" clip-rule="evenodd" d="M44.8334 -0.0209961C69.1483 -0.0209961 88.8544 19.685 88.8544 44C88.8544 68.315 69.1483 88.021 44.8334 88.021C20.5184 88.021 0.812378 68.315 0.812378 44C0.812378 19.685 20.5184 -0.0209961 44.8334 -0.0209961Z" fill="#E60079"/>
<path d="M44.8333 12.4934C51.1116 12.4934 56.1929 15.454 56.1929 19.1076C56.1929 22.7611 51.1011 25.7218 44.8333 25.7218C38.5551 25.7218 33.4738 22.7611 33.4738 19.1076C33.4738 15.454 38.5656 12.4934 44.8333 12.4934Z" fill="white"/>
<path d="M44.8333 62.2887C51.1116 62.2887 56.1929 65.2493 56.1929 68.9029C56.1929 72.5564 51.1011 75.517 44.8333 75.517C38.5551 75.517 33.4738 72.5564 33.4738 68.9029C33.4738 65.2493 38.5656 62.2887 44.8333 62.2887Z" fill="white"/>
<path d="M17.5473 28.2414C20.6864 22.8031 25.7887 19.8845 28.9593 21.7112C32.1194 23.538 32.1404 29.4278 29.0013 34.8556C25.8622 40.2939 20.7599 43.2125 17.5893 41.3858C14.4291 39.559 14.4082 33.6692 17.5473 28.2414Z" fill="white"/>
<path d="M60.6759 53.1443C63.815 47.706 68.9173 44.7874 72.0774 46.6036C75.2375 48.4304 75.2585 54.3097 72.1194 59.748C68.9803 65.1863 63.878 68.105 60.7179 66.2887C57.5578 64.4619 57.5368 58.5827 60.6759 53.1443Z" fill="white"/>
<path d="M17.5893 46.6036C20.7494 44.7769 25.8622 47.706 29.0013 53.1338C32.1404 58.5721 32.1194 64.4514 28.9593 66.2782C25.7992 68.1049 20.6864 65.1758 17.5473 59.748C14.4082 54.3097 14.4291 48.4304 17.5893 46.6036Z" fill="white"/>
<path d="M60.7179 21.7112C63.878 19.8844 68.9803 22.8136 72.1194 28.2519C75.2585 33.6902 75.2375 39.5695 72.0774 41.3962C68.9173 43.223 63.815 40.2939 60.6759 34.8556C57.5368 29.4172 57.5578 23.538 60.7179 21.7112Z" fill="white"/>
</g>
<defs>
<clipPath id="clip0_7169_39238">
<rect width="88" height="88" fill="white" transform="translate(0.833374)"/>
</clipPath>
</defs>
</svg>
