<svg width="89" height="88" viewBox="0 0 89 88" fill="none" xmlns="http://www.w3.org/2000/svg">
<path d="M44.5 88C68.7176 88 88.5 68.1824 88.5 44C88.5 19.7824 68.6824 0 44.5 0C20.2824 0 0.5 19.8176 0.5 44C0.5 68.2176 20.3176 88 44.5 88Z" fill="url(#paint0_linear_7155_37742)"/>
<path d="M57.2424 53.504L69.7032 46.3232C70.372 45.936 70.7592 45.232 70.7592 44.4576V30.096C70.7592 29.3216 70.3368 28.6176 69.7032 28.2304L57.2424 21.0496C56.5736 20.6624 55.764 20.6624 55.0952 21.0496L42.6344 28.2304C41.9656 28.6176 41.5784 29.3216 41.5784 30.096V55.792L32.8488 60.8256L24.1192 55.792V45.7248L32.8488 40.6912L38.6216 44V37.2416L33.94 34.5312C33.6232 34.3552 33.236 34.2496 32.884 34.2496C32.4968 34.2496 32.1448 34.3552 31.828 34.5312L19.3672 41.712C18.6984 42.0992 18.3112 42.8032 18.3112 43.5776V57.9392C18.3112 58.7136 18.7336 59.4176 19.3672 59.8048L31.828 66.9856C32.4968 67.3728 33.3064 67.3728 33.9752 66.9856L46.436 59.8048C47.1048 59.4176 47.492 58.7136 47.492 57.9392V32.2432L47.6328 32.1376L56.2216 27.1744L64.9512 32.208V42.2752L56.2216 47.3088L50.484 44V50.7584L55.1656 53.4688C55.8344 53.856 56.644 53.856 57.3128 53.4688L57.2424 53.504Z" fill="white"/>
<defs>
<linearGradient id="paint0_linear_7155_37742" x1="-15.5946" y1="7.14601" x2="75.151" y2="62.7972" gradientUnits="userSpaceOnUse">
<stop stop-color="#A229C5"/>
<stop offset="1" stop-color="#7B3FE4"/>
</linearGradient>
</defs>
</svg>
