<svg width="88" height="88" viewBox="0 0 88 88" fill="none" xmlns="http://www.w3.org/2000/svg">
<path d="M7.95532 26.752V61.248C7.95532 63.4656 9.11692 65.472 11.0529 66.5984L40.9377 83.8464C42.8385 84.9376 45.1969 84.9376 47.0977 83.8464L76.9825 66.5984C78.8833 65.5072 80.0801 63.4656 80.0801 61.248V26.752C80.0801 24.5344 78.9185 22.528 76.9825 21.4016L47.0977 4.15361C45.1969 3.06241 42.8385 3.06241 40.9377 4.15361L11.0529 21.4016C9.15212 22.4928 7.99052 24.5344 7.99052 26.752H7.95532Z" fill="#213147"/>
<path d="M50.5121 50.688L46.2529 62.3744C46.1473 62.6912 46.1473 63.0432 46.2529 63.3952L53.5745 83.4944L62.0577 78.6016L51.8849 50.688C51.6385 50.0544 50.7585 50.0544 50.5121 50.688Z" fill="#12AAFF"/>
<path d="M59.0657 31.0464C58.8193 30.4128 57.9393 30.4128 57.6929 31.0464L53.4337 42.7328C53.3281 43.0496 53.3281 43.4016 53.4337 43.7536L65.4369 76.6656L73.9201 71.7728L59.0657 31.0816V31.0464Z" fill="#12AAFF"/>
<path d="M44.0001 5.456C44.2113 5.456 44.4225 5.5264 44.5985 5.632L76.9121 24.288C77.2993 24.4992 77.5105 24.9216 77.5105 25.344V62.656C77.5105 63.0784 77.2641 63.5008 76.9121 63.712L44.5985 82.368C44.4225 82.4736 44.2113 82.544 44.0001 82.544C43.7889 82.544 43.5777 82.4736 43.4017 82.368L11.0881 63.712C10.7009 63.5008 10.4897 63.0784 10.4897 62.656V25.3088C10.4897 24.8864 10.7361 24.464 11.0881 24.2528L43.4017 5.5968C43.5777 5.4912 43.7889 5.4208 44.0001 5.4208V5.456ZM44.0001 0C42.8385 0 41.7121 0.2816 40.6561 0.88L8.34254 19.536C6.26574 20.7328 4.99854 22.9152 4.99854 25.3088V62.6208C4.99854 65.0144 6.26574 67.1968 8.34254 68.3936L40.6561 87.0496C41.6769 87.648 42.8385 87.9296 44.0001 87.9296C45.1617 87.9296 46.2881 87.648 47.3441 87.0496L79.6577 68.3936C81.7345 67.1968 83.0017 65.0144 83.0017 62.6208V25.3088C83.0017 22.9152 81.7345 20.7328 79.6577 19.536L47.3089 0.88C46.2881 0.2816 45.1265 0 43.9649 0H44.0001Z" fill="#9DCCED"/>
<path d="M22.5985 76.7008L25.5905 68.5344L31.5745 73.4976L25.9777 78.6368L22.5985 76.7008Z" fill="#213147"/>
<path d="M41.2546 22.6687H33.053C32.4546 22.6687 31.8914 23.0559 31.6802 23.6191L14.1154 71.7727L22.5986 76.6655L41.9586 23.6191C42.1346 23.1263 41.7826 22.6335 41.2898 22.6335L41.2546 22.6687Z" fill="white"/>
<path d="M55.6162 22.6687H47.4146C46.8162 22.6687 46.253 23.0559 46.0418 23.6191L25.9778 78.6015L34.461 83.4943L56.285 23.6191C56.461 23.1263 56.109 22.6335 55.6162 22.6335V22.6687Z" fill="white"/>
</svg>
