<svg width="89" height="88" viewBox="0 0 89 88" fill="none" xmlns="http://www.w3.org/2000/svg">
<g clip-path="url(#clip0_7169_39195)">
<path d="M44.1667 88C68.4673 88 88.1667 68.3005 88.1667 44C88.1667 19.6995 68.4673 0 44.1667 0C19.8662 0 0.166748 19.6995 0.166748 44C0.166748 68.3005 19.8662 88 44.1667 88Z" fill="#FCFF52"/>
<path fill-rule="evenodd" clip-rule="evenodd" d="M68.7821 19.2262H19.5514V68.7772H68.7856V51.48H60.6157C57.7997 57.7913 51.4602 62.1843 44.2055 62.1843C34.2051 62.1843 26.1056 53.9616 26.1056 43.9683C26.1056 33.9715 34.2051 25.8192 44.2055 25.8192C51.601 25.8192 57.9405 30.3564 60.7565 36.8051H68.7856V19.2262H68.7821Z" fill="black"/>
</g>
<defs>
<clipPath id="clip0_7169_39195">
<rect width="88" height="88" fill="white" transform="translate(0.166748)"/>
</clipPath>
</defs>
</svg>
