<svg width="89" height="88" viewBox="0 0 89 88" fill="none" xmlns="http://www.w3.org/2000/svg">
<g opacity="0.8">
<path fill-rule="evenodd" clip-rule="evenodd" d="M88.6667 44C88.6667 68.3005 68.9672 88 44.6667 88C20.3662 88 0.666687 68.3005 0.666687 44C0.666687 19.6995 20.3662 0 44.6667 0C68.9672 0 88.6667 19.6995 88.6667 44ZM62.7163 55.298L56.0791 48.6799L44.6739 60.0661L33.2876 48.6799L26.6504 55.298L44.6739 73.3214L62.7163 55.298ZM51.4064 44.0072L44.6739 37.2746L39.715 42.2525L39.1429 42.8247L37.9604 44.0072V44.0262L44.6739 50.7397L51.4064 44.0072ZM28.6149 44.0072L21.9777 37.37L15.3405 43.9881L21.9777 50.6253L28.6149 44.0072ZM74.0072 44.0072L67.37 37.37L60.7328 43.9881L67.37 50.6253L74.0072 44.0072ZM62.6973 32.6972L44.6739 14.6738L26.6504 32.6972L33.2876 39.3154L44.6739 27.9291L56.0601 39.3344L62.6973 32.6972Z" fill="#F3BA2F"/>
</g>
</svg>
