<svg width="60" height="61" viewBox="0 0 60 61" fill="none" xmlns="http://www.w3.org/2000/svg">
<rect y="0.5" width="60" height="60" rx="8" fill="#1A1A1C"/>
<path d="M48 30.5C48 40.4411 39.9411 48.5 30 48.5C20.0589 48.5 12 40.4411 12 30.5C12 20.5589 20.0589 12.5 30 12.5C39.9411 12.5 48 20.5589 48 30.5ZM19.2 30.5C19.2 36.4647 24.0353 41.3 30 41.3C35.9647 41.3 40.8 36.4647 40.8 30.5C40.8 24.5353 35.9647 19.7 30 19.7C24.0353 19.7 19.2 24.5353 19.2 30.5Z" fill="url(#paint0_linear_8046_25732)"/>
<defs>
<linearGradient id="paint0_linear_8046_25732" x1="12" y1="12.5" x2="48" y2="48.5" gradientUnits="userSpaceOnUse">
<stop stop-color="#F7E158"/>
<stop offset="1" stop-color="#58F293"/>
</linearGradient>
</defs>
</svg>
