<svg width="27" height="20" viewBox="0 0 27 20" fill="none" xmlns="http://www.w3.org/2000/svg">
<g clip-path="url(#clip0_7939_55995)">
<path d="M0 0H26.6667V20H0V0Z" fill="#00008B"/>
<path d="M1.5625 0L6.64583 3.77083L11.7083 0H13.3333V1.29167L8.33333 5.02083L13.3333 8.72917V10H11.6667L6.66667 6.27083L1.6875 10H0V8.75L4.97917 5.04167L0 1.33333V0H1.5625Z" fill="white"/>
<path d="M8.83333 5.85417L13.3333 9.16667V10L7.6875 5.85417H8.83333ZM5 6.27083L5.125 7L1.125 10H0L5 6.27083ZM13.3333 0V0.0625L8.14583 3.97917L8.1875 3.0625L12.2917 0H13.3333ZM0 0L4.97917 3.66667H3.72917L0 0.875V0Z" fill="#FF0000"/>
<path d="M5.02083 0V10H8.35417V0H5.02083ZM0 3.33333V6.66667H13.3333V3.33333H0Z" fill="white"/>
<path d="M0 4.02083V6.02083H13.3333V4.02083H0ZM5.6875 0V10H7.6875V0H5.6875Z" fill="#FF0000"/>
<path d="M21.9587 16.5288L21.1046 16.6371L21.1962 17.4913L20.5796 16.8913L19.9671 17.4954L20.0504 16.6413L19.1962 16.5413L19.9171 16.0746L19.4629 15.3454L20.2796 15.6163L20.5671 14.8038L20.8629 15.6121L21.6754 15.3329L21.2296 16.0663L21.9546 16.5288H21.9587ZM21.8046 11.6454L21.9171 11.1038L21.5087 10.7288L22.0587 10.6663L22.2879 10.1621L22.5171 10.6663L23.0671 10.7288L22.6587 11.1038L22.7712 11.6454L22.2879 11.3704L21.8046 11.6454ZM17.4671 9.14544L16.6212 9.23711L16.6962 10.0829L16.0962 9.47878L15.4796 10.0663L15.5796 9.22044L14.7379 9.10794L15.4587 8.65794L15.0212 7.92878L15.8254 8.21211L16.1254 7.41628L16.4046 8.22044L17.2129 7.95794L16.7587 8.67878L17.4712 9.14544H17.4671ZM25.9587 7.77878L25.0879 7.89128L25.1837 8.76211L24.5546 8.14961L23.9296 8.76628L24.0171 7.89128L23.1462 7.79128L23.8837 7.31211L23.4212 6.56628L24.2546 6.84544L24.5462 6.02044L24.8462 6.84544L25.6754 6.55794L25.2171 7.30794L25.9587 7.77878ZM21.9546 4.29961L21.0921 4.39544L21.1712 5.26211L20.5587 4.64544L19.9296 5.24544L20.0296 4.38294L19.1671 4.26628L19.9046 3.80794L19.4587 3.06211L20.2796 3.34961L20.5837 2.53711L20.8671 3.35794L21.6921 3.08711L21.2296 3.82044L21.9546 4.29961ZM9.75039 16.0704L7.84206 16.2954L8.03372 18.2079L6.66706 16.8579L5.29206 18.1996L5.49622 16.2871L3.58789 16.0454L5.20872 15.0121L4.20872 13.3704L6.02539 13.9954L6.68372 12.1871L7.32956 13.9996L9.15039 13.3871L8.13789 15.0204L9.75456 16.0663L9.75039 16.0704Z" fill="white"/>
</g>
<defs>
<clipPath id="clip0_7939_55995">
<rect width="26.6667" height="20" fill="white"/>
</clipPath>
</defs>
</svg>
