<svg width="60" height="61" viewBox="0 0 60 61" fill="none" xmlns="http://www.w3.org/2000/svg">
<rect y="0.5" width="60" height="60" rx="8" fill="#1A1A1C"/>
<path d="M42.0558 12.7085C41.0075 12.5587 40.109 12.7085 39.0607 13.008C38.1621 13.3075 37.2636 13.9065 36.6646 14.6553C35.4666 16.0031 35.0173 17.9499 35.3168 19.747C35.6163 21.3943 35.9158 23.0416 36.0656 24.6889C36.2153 27.085 35.7661 29.4811 35.0173 31.8772C34.2685 33.9737 33.2202 35.4713 30.8241 35.9206C30.6744 35.9206 30.0754 35.9206 29.9256 35.9206C29.7759 35.9206 29.1768 35.9206 29.0271 35.9206C26.7808 35.6211 25.5827 33.9737 24.8339 31.8772C23.9354 29.6308 23.6359 27.2348 23.7856 24.6889C23.9354 23.0416 24.2349 21.2446 24.5344 19.5972C24.8339 17.8002 24.3847 16.0031 23.1866 14.5056C22.5876 13.7568 21.6891 13.1578 20.7905 12.8583C19.892 12.5587 18.8437 12.409 17.7954 12.5587C14.8003 13.1578 12.8535 15.7036 12.8535 18.3992C12.8535 19.4475 13.153 20.4958 13.752 21.3943C14.6506 23.0416 16.1481 24.0899 17.3462 25.2879C18.2447 26.0367 19.7423 28.283 20.491 30.5294C20.9403 32.0269 21.2398 33.3747 21.6891 34.8723C22.1383 36.9688 22.8871 41.4615 23.3364 43.4083C24.2349 47.4517 27.0803 48.3502 29.7759 48.5H29.9256C32.771 48.3502 35.6163 47.4517 36.5148 43.4083C36.9641 41.3118 37.7129 36.8191 38.1621 34.8723C38.4617 33.3747 38.9109 32.0269 39.3602 30.5294C40.109 28.1333 41.6065 26.0367 42.505 25.2879C43.8528 24.0899 45.3504 23.0416 46.2489 21.5441C46.8479 20.6455 47.1475 19.5972 47.1475 18.549C46.9977 15.7036 45.0509 13.1578 42.0558 12.7085Z" fill="url(#paint0_linear_8046_25712)"/>
<defs>
<linearGradient id="paint0_linear_8046_25712" x1="29.2918" y1="17.9138" x2="39.1762" y2="37.3455" gradientUnits="userSpaceOnUse">
<stop stop-color="#11A97D"/>
<stop offset="0.544792" stop-color="#3A5FB6"/>
<stop offset="1" stop-color="#6610F2"/>
</linearGradient>
</defs>
</svg>
