<svg width="60" height="61" viewBox="0 0 60 61" fill="none" xmlns="http://www.w3.org/2000/svg">
<rect y="0.5" width="60" height="60" rx="8" fill="#1A1A1C"/>
<path d="M18.1322 30.7408C18.664 29.0893 19.3778 27.5217 20.5395 26.2061V26.1361H20.3016C19.5038 26.1361 18.692 26.1641 17.8942 26.1221C17.5303 26.1081 17.3344 26.2341 17.1524 26.542C15.6549 29.0193 14.9271 31.8885 15.053 34.7717C15.151 37.0951 15.7808 39.2505 16.8305 41.3219C16.8865 41.4479 17.0125 41.5318 17.1524 41.5178L18.3841 41.5038C18.3841 41.5038 17.9502 40.5241 17.8383 40.1882C17.5723 39.3065 17.3764 38.4107 17.2504 37.501C17.0265 36.3253 17.0405 35.1216 17.2644 33.96C17.5024 32.8683 17.7823 31.7906 18.1322 30.7408Z" fill="#D71F0F"/>
<path d="M22.2475 40.286C22.4714 40.7059 22.9333 41.4897 23.857 41.4897C24.6128 41.4897 25.2846 40.7339 25.5225 40.244C26.1524 38.9564 26.3903 37.5288 26.3623 36.1012C26.3483 35.1075 26.1524 34.1417 25.9704 33.176C25.8305 32.3223 25.4946 31.5105 24.9627 30.8247C24.4448 30.2088 23.5351 30.1249 22.9193 30.6427C22.8633 30.6847 22.8213 30.7267 22.7793 30.7827C22.2755 31.3705 21.8976 32.0563 21.6736 32.7981C21.2817 34.0298 21.2537 35.2894 21.2957 36.5631C21.3377 37.8367 21.6736 39.2363 22.2475 40.286ZM23.0732 33.7499C23.1572 33.4699 23.2832 33.204 23.4511 32.9521C23.717 32.5602 24.067 32.5742 24.3469 32.9381C24.6828 33.372 24.8227 33.9038 24.8927 34.4217C24.9907 34.9675 25.0467 35.5274 25.0747 36.0732C25.1027 36.913 24.9627 37.7527 24.6688 38.5505C24.5848 38.7885 24.4588 39.0264 24.3049 39.2363C24.053 39.5862 23.717 39.5722 23.4511 39.2503C23.1852 38.9004 23.0172 38.4805 22.9473 38.0467C22.6393 36.6471 22.6673 35.1635 23.0732 33.7499Z" fill="#D71F0F"/>
<path d="M34.1855 40.2442C33.5696 38.3687 33.2617 36.4932 33.6116 34.5198C33.8356 33.2741 34.0315 32.0285 34.5214 30.8248L32.9118 29.999C32.4359 30.9228 32.114 31.9305 31.9601 32.9662C31.8061 33.9739 31.7501 35.0096 31.6522 36.0173C31.6102 35.9754 31.5542 35.9054 31.4982 35.8214C30.9664 35.1356 30.4345 34.4358 29.8887 33.75C29.3428 33.0642 28.783 32.3224 28.587 31.4266C28.573 31.3566 28.545 31.2867 28.517 31.2167L28.0972 30.013L26.4876 30.7548C26.8515 31.4686 27.1034 32.2384 27.2574 33.0222C27.5373 34.4778 27.5793 35.9614 27.3694 37.4309C27.2574 38.3687 27.0614 39.3064 26.7955 40.2162C26.6976 40.5381 26.2637 41.4758 26.2637 41.4758H28.1671C28.1671 41.4758 28.629 40.6081 28.741 40.3001C29.2029 38.9705 29.4268 37.5709 29.3848 36.1713C30.4065 37.5289 31.5542 38.8026 32.4359 40.2442C32.6179 40.5381 33.0238 41.4898 33.0238 41.4898H34.5774L34.1855 40.2442Z" fill="#D71F0F"/>
<path d="M19.3076 41.4892H21.1691C21.1691 41.4892 20.8891 40.5515 20.7912 40.2436C20.3153 38.76 19.9934 37.2484 20.0914 35.6809C20.1753 34.3232 20.4273 32.9796 20.8471 31.692C20.8611 31.65 20.8611 31.608 20.8611 31.566C19.8954 31.496 19.7555 31.4121 19.3216 30.7822C17.894 33.9174 18.0339 37.1644 18.9577 40.3836C19.0277 40.6635 19.3076 41.4892 19.3076 41.4892Z" fill="#D71F0F"/>
<path d="M21.7862 29.9146C21.7862 29.3266 21.3102 28.8506 20.7222 28.8506C20.1342 28.8506 19.6582 29.3266 19.6582 29.9146C19.6582 30.5026 20.1342 30.9786 20.7222 30.9786H20.7362C21.3242 30.9786 21.8002 30.5166 21.8002 29.9286V29.9146H21.7862Z" fill="#D71F0F"/>
<path d="M17.3066 43.1416C18.3144 43.9254 19.42 44.5832 20.5817 45.129H22.3592L23.3529 44.1213L22.3592 43.1556H17.3066V43.1416Z" fill="#D71F0F"/>
<path d="M47.6921 33.0779C47.2022 31.8042 46.4744 30.6846 45.6906 29.5929C45.5227 29.3549 45.3127 29.131 45.4667 28.7951C45.6766 28.2912 45.4947 27.8574 45.2568 27.4095C44.6829 26.3178 43.7592 25.52 43.0034 24.5823C42.8214 24.3583 42.5275 24.1624 42.6955 23.8125C43.0874 22.9447 42.6955 22.2309 42.1356 21.6851C39.2384 18.9418 37.097 17.4163 33.1781 16.4085C31.4426 15.9607 29.6511 15.7927 27.8736 15.9047C26.2361 16.0027 24.6265 16.2266 23.0869 16.8004C18.7062 18.424 15.5011 21.5451 13.5136 25.7859C11.8761 29.271 11.5961 32.672 12.5339 36.437C13.1217 38.8023 14.1434 40.3279 15.4171 41.4056C15.0392 40.6638 14.7173 39.908 14.4653 39.1242C13.6956 36.8009 13.6116 34.4215 13.9615 32.0142C14.4793 28.5012 15.9489 25.464 18.5382 23.0427C18.9301 22.6788 19.322 22.3429 19.7139 22.035C18.9301 22.7628 18.3983 23.5046 18.2723 24.1344C20.0918 22.2169 22.1632 21.0133 24.6545 20.5934C26.6 20.2715 28.9793 20.3834 30.6028 20.9573C29.6791 20.9853 28.8673 20.9713 27.6917 21.0692C25.5922 21.2372 24.1227 22.105 22.7091 23.6165C22.2612 24.0924 21.9393 24.9042 21.9393 24.9042C22.6391 24.1484 23.5348 23.5745 25.5922 23.2806C27.1038 23.0847 28.6294 23.1827 30.099 23.5745C33.514 24.4563 34.8577 26.6537 34.8577 26.6537C33.3321 25.8139 32.1004 25.3381 30.6168 25.1001C29.7491 24.9742 28.2515 25.0301 27.6637 25.3241C27.6637 25.3241 28.5174 25.436 28.9093 25.506C29.4412 25.618 29.6651 25.646 30.029 25.7299C32.1844 26.2338 33.738 27.1435 35.0256 28.949C35.2635 29.271 35.5855 29.8168 35.7394 30.8805C35.9494 32.2661 34.5777 32.63 34.5777 35.5412C34.5777 37.8646 35.5995 39.2922 36.3133 39.908C37.153 40.6358 37.7269 41.6995 37.5309 42.4413C37.4749 42.6512 37.181 43.1131 37.181 43.407C38.8605 42.5812 40.3721 41.0417 41.4638 39.6001C41.8697 39.0682 41.7437 38.7463 41.1279 38.5364C40.0222 38.1725 39.4204 37.8786 38.6366 36.9968C38.3707 36.7029 38.0628 36.129 38.3147 35.6952C38.5946 35.2193 39.0285 35.0513 39.6863 35.1493C40.3861 35.2473 40.722 35.5692 40.652 36.255C40.5821 36.8848 40.904 37.2767 41.3658 37.5986C42.4435 38.3684 43.8851 38.2425 45.2568 37.2627C46.6284 36.283 46.6144 36.255 46.0965 34.7154C45.9986 34.4075 45.8866 34.0996 46.0965 33.8477C46.1525 33.7777 46.2365 33.7357 46.3345 33.7357C46.6424 33.7357 46.4464 34.3935 46.5024 34.6734C46.5584 34.9534 46.7543 35.4572 47.1882 35.4992C47.6641 35.5412 47.972 35.1633 48 34.6455C48 34.1136 47.902 33.5678 47.6921 33.0779ZM36.1593 24.8342C35.5435 25.52 35.8514 26.0519 35.9074 26.8636C35.0536 25.66 34.9836 24.7642 35.6834 24.1764C36.3972 23.5745 37.4329 23.6865 38.2447 24.5963C37.4889 24.4703 36.7191 24.2184 36.1593 24.8342ZM41.3938 28.2912L42.6955 28.5851C42.8774 28.6271 43.0034 28.7531 42.9194 28.935C42.6815 29.3969 43.0034 29.6908 43.1713 30.0687C42.5135 29.6489 41.9957 29.089 41.3938 28.2912Z" fill="#D71F0F"/>
<path d="M24.6151 44.5866L24.5925 44.4346L24.4385 43.3986L24.41 43.2066H24.4279L24.7027 44.9506H24.6848L24.6484 44.7138L24.6288 44.5866H24.6151Z" fill="#D71F0F" stroke="white" stroke-width="0.3" stroke-miterlimit="10"/>
<path d="M25.2105 44.6106V43.2066H25.2465V44.6386C25.2465 44.7169 25.2657 44.8037 25.3137 44.8758L25.3267 44.8952L25.3448 44.9098C25.3624 44.9238 25.3808 44.9358 25.3997 44.9458C25.3635 44.9311 25.3288 44.911 25.2969 44.8854C25.2389 44.803 25.2105 44.7127 25.2105 44.6106ZM25.8913 44.6256C25.8994 44.7067 25.8812 44.7825 25.8423 44.8412C25.883 44.7754 25.8963 44.6983 25.8825 44.623V43.2066H25.8905V44.6106V44.6181L25.8913 44.6256Z" fill="#D71F0F" stroke="white" stroke-width="0.3" stroke-miterlimit="10"/>
<path d="M26.666 43.3506V43.2066H26.688V43.3506V44.9506H26.666V43.3506Z" fill="#D71F0F" stroke="white" stroke-width="0.3" stroke-miterlimit="10"/>
<path d="M27.4646 43.5467V43.5392L27.4639 43.5318C27.455 43.4431 27.4895 43.3467 27.5475 43.2748C27.6968 43.1523 27.9083 43.1514 28.0585 43.2721C28.1237 43.363 28.1538 43.4477 28.1454 43.5318L28.1446 43.5392V43.5467V44.6107V44.6182L28.1454 44.6256C28.1543 44.7144 28.1198 44.8108 28.0618 44.8826C28.0508 44.8917 28.0393 44.9001 28.0276 44.9079L28.0367 44.8988C28.1122 44.8233 28.1406 44.7217 28.1226 44.6231V43.5327C28.1226 43.4545 28.1035 43.3676 28.0555 43.2955L28.0425 43.2761L28.0244 43.2616C27.8952 43.1583 27.7246 43.1678 27.5954 43.2539L27.5705 43.2706L27.5538 43.2955C27.5254 43.3382 27.4676 43.4337 27.4866 43.5476V44.6387C27.4866 44.717 27.5058 44.8038 27.5538 44.8759L27.5668 44.8953L27.5849 44.9099C27.5853 44.9101 27.5857 44.9104 27.5861 44.9107C27.574 44.903 27.5622 44.8945 27.5508 44.8853C27.4856 44.7945 27.4555 44.7097 27.4639 44.6256L27.4646 44.6182V44.6107V43.5467Z" fill="#D71F0F" stroke="white" stroke-width="0.3" stroke-miterlimit="10"/>
<path d="M29.5425 44.5866L29.5199 44.4346L29.3659 43.3986L29.3374 43.2066H29.3685L29.6313 44.9506H29.6122L29.5758 44.7138L29.5562 44.5866H29.5425Z" fill="#D71F0F" stroke="white" stroke-width="0.3" stroke-miterlimit="10"/>
<path d="M30.109 44.6106V43.2066H30.159V44.6386C30.159 44.7169 30.1781 44.8037 30.2262 44.8758L30.2391 44.8952L30.2573 44.9098C30.286 44.9328 30.3175 44.9505 30.3504 44.9629C30.2953 44.9489 30.2423 44.9231 30.1954 44.8854C30.1373 44.803 30.109 44.7127 30.109 44.6106ZM30.7897 44.6256C30.7978 44.7067 30.7797 44.7824 30.7407 44.8411C30.7814 44.7753 30.7947 44.6983 30.781 44.623V43.2066H30.789V44.6106V44.6181L30.7897 44.6256Z" fill="#D71F0F" stroke="white" stroke-width="0.3" stroke-miterlimit="10"/>
<path d="M32.1041 43.5467V43.5927H32.0961V43.5327C32.0961 43.4545 32.077 43.3676 32.0289 43.2955L32.016 43.2761L31.9978 43.2616C31.8687 43.1583 31.698 43.1678 31.5689 43.2539L31.5439 43.2706L31.5273 43.2955C31.4989 43.3382 31.4411 43.4337 31.4601 43.5476V44.6387C31.4601 44.717 31.4792 44.8038 31.5273 44.8759L31.5402 44.8953L31.5584 44.9099C31.576 44.9239 31.5943 44.9359 31.6132 44.9458C31.577 44.9312 31.5424 44.9111 31.5105 44.8855C31.4525 44.803 31.4241 44.7128 31.4241 44.6107V43.5467V43.5392L31.4234 43.5318C31.4134 43.4319 31.4432 43.3402 31.5026 43.2785C31.652 43.1524 31.866 43.1502 32.0177 43.2719C32.0758 43.3544 32.1041 43.4447 32.1041 43.5467ZM32.0299 44.8744C32.0586 44.8311 32.1149 44.7365 32.0961 44.6238V44.4947H32.1041V44.6107V44.6182L32.1048 44.6256C32.1146 44.7231 32.0864 44.8128 32.0299 44.8744Z" fill="#D71F0F" stroke="white" stroke-width="0.3" stroke-miterlimit="10"/>
<path d="M32.8242 43.3506V43.2066H32.8462V43.3506V44.9506H32.8242V43.3506Z" fill="#D71F0F" stroke="white" stroke-width="0.3" stroke-miterlimit="10"/>
<path d="M33.607 43.2066H33.629V44.9506H33.607V43.2066Z" fill="#D71F0F" stroke="white" stroke-width="0.3" stroke-miterlimit="10"/>
<path d="M34.2654 43.5467V43.5392L34.2647 43.5318C34.2558 43.4431 34.2902 43.3467 34.3482 43.2748C34.4975 43.1523 34.709 43.1514 34.8593 43.2721C34.9244 43.363 34.9546 43.4477 34.9462 43.5318L34.9454 43.5392V43.5467V44.6107V44.6182L34.9462 44.6256C34.955 44.7144 34.9206 44.8108 34.8626 44.8826C34.8554 44.8885 34.848 44.8942 34.8405 44.8996L34.8562 44.8759C34.8847 44.8333 34.9425 44.7378 34.9234 44.6238V43.5327C34.9234 43.4545 34.9043 43.3676 34.8562 43.2955L34.8433 43.2761L34.8251 43.2616C34.696 43.1583 34.5254 43.1678 34.3962 43.2539L34.3713 43.2706L34.3546 43.2955C34.3262 43.3382 34.2684 43.4337 34.2874 43.5476V44.6387C34.2874 44.717 34.3065 44.8038 34.3546 44.8759L34.3675 44.8953L34.3857 44.9099C34.3861 44.9101 34.3865 44.9104 34.3868 44.9107C34.3748 44.903 34.363 44.8945 34.3516 44.8853C34.2864 44.7945 34.2563 44.7097 34.2647 44.6256L34.2654 44.6182V44.6107V43.5467Z" fill="#D71F0F" stroke="white" stroke-width="0.3" stroke-miterlimit="10"/>
<mask id="path-19-inside-1_8044_23222" fill="white">
<path d="M35.6553 43.6313V45.1153H35.3613V43.0713H35.7673L36.1033 44.2893V43.0713H36.3973V45.1153H36.0613L35.6553 43.6313Z"/>
</mask>
<path d="M35.6553 43.6313V45.1153H35.3613V43.0713H35.7673L36.1033 44.2893V43.0713H36.3973V45.1153H36.0613L35.6553 43.6313Z" fill="#D71F0F"/>
<path d="M35.6553 43.6313L35.9447 43.5521L35.3553 41.3979V43.6313H35.6553ZM35.6553 45.1153V45.4153H35.9553V45.1153H35.6553ZM35.3613 45.1153H35.0613V45.4153H35.3613V45.1153ZM35.3613 43.0713V42.7713H35.0613V43.0713H35.3613ZM35.7673 43.0713L36.0565 42.9915L35.9958 42.7713H35.7673V43.0713ZM36.1033 44.2893L35.8141 44.3691L36.4033 46.5049V44.2893H36.1033ZM36.1033 43.0713V42.7713H35.8033V43.0713H36.1033ZM36.3973 43.0713H36.6973V42.7713H36.3973V43.0713ZM36.3973 45.1153V45.4153H36.6973V45.1153H36.3973ZM36.0613 45.1153L35.772 45.1944L35.8324 45.4153H36.0613V45.1153ZM35.3553 43.6313V45.1153H35.9553V43.6313H35.3553ZM35.6553 44.8153H35.3613V45.4153H35.6553V44.8153ZM35.6613 45.1153V43.0713H35.0613V45.1153H35.6613ZM35.3613 43.3713H35.7673V42.7713H35.3613V43.3713ZM35.4781 43.1511L35.8141 44.3691L36.3925 44.2095L36.0565 42.9915L35.4781 43.1511ZM36.4033 44.2893V43.0713H35.8033V44.2893H36.4033ZM36.1033 43.3713H36.3973V42.7713H36.1033V43.3713ZM36.0973 43.0713V45.1153H36.6973V43.0713H36.0973ZM36.3973 44.8153H36.0613V45.4153H36.3973V44.8153ZM36.3507 45.0361L35.9447 43.5521L35.366 43.7105L35.772 45.1944L36.3507 45.0361Z" fill="white" mask="url(#path-19-inside-1_8044_23222)"/>
</svg>
