<svg width="27" height="20" viewBox="0 0 27 20" fill="none" xmlns="http://www.w3.org/2000/svg">
<g clip-path="url(#clip0_7939_55950)">
<path d="M0.167969 0H26.8346V20H0.167969V0Z" fill="white"/>
<path d="M11.502 0H15.502V20H11.502V0Z" fill="#FF0000"/>
<path d="M0.167969 8H26.8346V12H0.167969V8Z" fill="#FF0000"/>
<path fill-rule="evenodd" clip-rule="evenodd" d="M6.28398 15.5458C6.32565 14.8458 6.45065 14.25 6.45065 14.25C6.45065 14.25 6.04232 14.2917 5.83398 14.2917C5.62982 14.2917 5.21732 14.25 5.21732 14.25C5.21732 14.25 5.34232 14.8458 5.38398 15.55C4.67982 15.5083 4.08398 15.3833 4.08398 15.3833C4.08398 15.3833 4.12565 15.6917 4.12565 16C4.12565 16.3083 4.08398 16.6167 4.08398 16.6167C4.08398 16.6167 4.67982 16.4917 5.38398 16.45C5.34232 17.1542 5.21732 17.75 5.21732 17.75C5.21732 17.75 5.52565 17.7083 5.83398 17.7083C6.14232 17.7083 6.45065 17.75 6.45065 17.75C6.45065 17.75 6.32565 17.1542 6.28398 16.45C6.98815 16.4917 7.58398 16.6167 7.58398 16.6167C7.58398 16.6167 7.54232 16.2083 7.54232 16C7.54232 15.7958 7.58398 15.3833 7.58398 15.3833C7.58398 15.3833 6.98815 15.5083 6.28815 15.55L6.28398 15.5458ZM21.6173 3.54583C21.659 2.84583 21.784 2.25 21.784 2.25C21.784 2.25 21.3757 2.29167 21.1673 2.29167C20.9632 2.29167 20.5506 2.25 20.5506 2.25C20.5506 2.25 20.6756 2.84583 20.7173 3.54583C20.0132 3.50417 19.4173 3.38333 19.4173 3.38333C19.4173 3.38333 19.459 3.69167 19.459 4C19.459 4.30833 19.4173 4.61667 19.4173 4.61667C19.4173 4.61667 20.0132 4.49167 20.7173 4.45C20.6756 5.15417 20.5506 5.75 20.5506 5.75C20.5506 5.75 20.859 5.70833 21.1673 5.70833C21.4757 5.70833 21.784 5.75 21.784 5.75C21.784 5.75 21.659 5.15417 21.6173 4.45417C22.3215 4.49583 22.9173 4.62083 22.9173 4.62083C22.9173 4.62083 22.8757 4.20417 22.8757 4C22.8757 3.79583 22.9173 3.38333 22.9173 3.38333C22.9173 3.38333 22.3215 3.50833 21.6173 3.55V3.54583ZM6.28398 3.54583C6.32565 2.84583 6.45065 2.25 6.45065 2.25C6.45065 2.25 6.04232 2.29167 5.83398 2.29167C5.62982 2.29167 5.21732 2.25 5.21732 2.25C5.21732 2.25 5.34232 2.84583 5.38398 3.55C4.67982 3.50833 4.08398 3.38333 4.08398 3.38333C4.08398 3.38333 4.12565 3.69167 4.12565 4C4.12565 4.30833 4.08398 4.61667 4.08398 4.61667C4.08398 4.61667 4.67982 4.49167 5.38398 4.45C5.34232 5.15417 5.21732 5.75 5.21732 5.75C5.21732 5.75 5.52565 5.70833 5.83398 5.70833C6.14232 5.70833 6.45065 5.75 6.45065 5.75C6.45065 5.75 6.32565 5.15417 6.28398 4.45C6.98815 4.49167 7.58398 4.61667 7.58398 4.61667C7.58398 4.61667 7.54232 4.20833 7.54232 4C7.54232 3.79583 7.58398 3.38333 7.58398 3.38333C7.58398 3.38333 6.98815 3.50833 6.28815 3.55L6.28398 3.54583ZM21.6173 15.5458C21.659 14.8458 21.784 14.25 21.784 14.25C21.784 14.25 21.3757 14.2917 21.1673 14.2917C20.9632 14.2917 20.5506 14.25 20.5506 14.25C20.5506 14.25 20.6756 14.8458 20.7173 15.55C20.0132 15.5083 19.4173 15.3833 19.4173 15.3833C19.4173 15.3833 19.459 15.6917 19.459 16C19.459 16.3083 19.4173 16.6167 19.4173 16.6167C19.4173 16.6167 20.0132 16.4917 20.7173 16.45C20.6756 17.1542 20.5506 17.75 20.5506 17.75C20.5506 17.75 20.859 17.7083 21.1673 17.7083C21.4757 17.7083 21.784 17.75 21.784 17.75C21.784 17.75 21.659 17.1542 21.6173 16.45C22.3215 16.4917 22.9173 16.6167 22.9173 16.6167C22.9173 16.6167 22.8757 16.2083 22.8757 16C22.8757 15.7958 22.9173 15.3833 22.9173 15.3833C22.9173 15.3833 22.3215 15.5083 21.6173 15.55V15.5458Z" fill="#FF0000"/>
</g>
<defs>
<clipPath id="clip0_7939_55950">
<rect width="26.6667" height="20" fill="white" transform="translate(0.167969)"/>
</clipPath>
</defs>
</svg>
