<svg width="27" height="20" viewBox="0 0 27 20" fill="none" xmlns="http://www.w3.org/2000/svg">
<g clip-path="url(#clip0_7939_55969)">
<path d="M0.167969 0H26.8346V20H0.167969" fill="#EC1B2E"/>
<path d="M14.5976 4.29564C11.2934 4.08314 9.77672 8.41231 12.9017 10.0123C11.8184 9.07897 12.0434 7.70814 12.4809 6.99564L12.5601 7.04147C11.9851 8.02064 12.0934 9.23731 13.0226 9.9998C12.4934 9.48731 12.6267 8.37481 13.5267 7.96231C14.4267 7.54981 14.5101 6.32481 14.2101 5.91647C13.8017 5.20536 13.9309 4.66508 14.5976 4.29564ZM12.9976 6.83314L12.8017 7.14147L12.7267 6.78314L12.3684 6.68731L12.6934 6.50814L12.6684 6.13731L12.9392 6.39147L13.2851 6.25397L13.1309 6.59147L13.3642 6.87481L12.9976 6.83314Z" fill="white"/>
<path d="M19.1873 9.67742C18.3684 6.4693 13.7824 6.36465 13.2264 9.83113C13.7793 8.5124 15.1526 8.30278 15.9654 8.49869L15.9463 8.58815C14.8374 8.34387 13.7137 8.82287 13.2757 9.94219C13.5996 9.28055 14.6988 9.06358 15.3692 9.79206C16.0397 10.5205 17.2305 10.2212 17.5261 9.80975C18.0762 9.20165 18.63 9.15754 19.1873 9.67742ZM16.2796 8.93986L15.9259 8.84889L16.2435 8.66683L16.2239 8.29642L16.4947 8.55015L16.8397 8.41178L16.6816 8.7479L16.9193 9.03431L16.5507 8.99199L16.3533 9.30145L16.2796 8.93986Z" fill="white"/>
<path d="M15.4876 15.7067C18.2856 13.9365 16.968 9.54267 13.4994 10.0851C14.9244 10.2034 15.5481 11.4447 15.613 12.2782L15.522 12.2877C15.4117 11.1576 14.6089 10.2369 13.409 10.1662C14.1383 10.2698 14.6844 11.2482 14.1987 12.1109C13.7131 12.9737 14.3657 14.0137 14.8484 14.1677C15.5967 14.503 15.8098 15.016 15.4876 15.7067ZM15.2905 12.7134L15.2677 12.3488L15.539 12.5947L15.8852 12.4616L15.7276 12.7975L15.9658 13.0829L15.5973 13.0364L15.3984 13.3509L15.3247 12.9873L14.9694 12.8952L15.2905 12.7134Z" fill="white"/>
<path d="M8.61172 14.0506C11.1599 16.1646 14.9316 13.5537 13.3438 10.4225C13.6717 11.8143 12.6839 12.7911 11.9112 13.1104L11.874 13.0268C12.9148 12.5726 13.5423 11.5246 13.2387 10.3616C13.3656 11.0872 12.6038 11.9089 11.6333 11.7136C10.6627 11.5183 9.87522 12.4604 9.87791 12.9671C9.79028 13.7824 9.36821 14.1435 8.61172 14.0506ZM11.3976 12.9381L11.7373 12.8038L11.5874 13.1378L11.8209 13.4259L11.4527 13.3799L11.2549 13.6946L11.1852 13.3298L10.8246 13.2377L11.1477 13.0553L11.1255 12.6889L11.3976 12.9381Z" fill="white"/>
<path d="M8.06109 6.99913C6.83795 10.0759 10.4866 12.8561 12.9739 10.3785C11.7515 11.1204 10.5173 10.4828 9.97486 9.84654L10.0429 9.78541C10.7965 10.6348 11.9871 10.9078 12.9994 10.2597C12.3484 10.6046 11.3316 10.134 11.2174 9.15061C11.1032 8.16719 9.9639 7.70939 9.48285 7.86853C8.68036 8.03713 8.20644 7.74733 8.06109 6.99913ZM9.97997 9.30495L10.2127 9.58648L9.84872 9.54707L9.64685 9.85826L9.57688 9.4938L9.21647 9.40298L9.54189 9.22394L9.51799 8.85255L9.79133 9.10346L10.1329 8.9691L9.97997 9.30495Z" fill="white"/>
</g>
<defs>
<clipPath id="clip0_7939_55969">
<rect width="26.6667" height="20" fill="white" transform="translate(0.167969)"/>
</clipPath>
</defs>
</svg>
