<svg width="26" height="26" viewBox="0 0 26 26" fill="none" xmlns="http://www.w3.org/2000/svg">
<path fill-rule="evenodd" clip-rule="evenodd" d="M6.51756 19.9816C6.66993 20.134 6.87659 20.2196 7.09208 20.2196C7.30757 20.2196 7.51423 20.134 7.66661 19.9816L19.096 8.55217L19.0949 15.7831C19.0949 15.9989 19.1806 16.2058 19.3331 16.3584C19.4857 16.5109 19.6926 16.5967 19.9084 16.5967C20.1242 16.5967 20.3311 16.5109 20.4836 16.3584C20.6362 16.2058 20.7219 15.9989 20.7219 15.7831L20.7219 6.59074C20.7221 6.48387 20.7011 6.37802 20.6603 6.27926C20.6194 6.1805 20.5595 6.09076 20.4839 6.01519C20.4084 5.93962 20.3186 5.87971 20.2199 5.83887C20.1211 5.79803 20.0153 5.77708 19.9084 5.77722L10.716 5.77722C10.6092 5.77722 10.5034 5.79826 10.4047 5.83914C10.306 5.88003 10.2163 5.93995 10.1408 6.01549C9.98819 6.16806 9.90248 6.37498 9.90248 6.59074C9.90248 6.80651 9.98819 7.01343 10.1408 7.166C10.2933 7.31856 10.5002 7.40427 10.716 7.40427L17.947 7.40312L6.51756 18.8325C6.36519 18.9849 6.27958 19.1916 6.27958 19.4071C6.27958 19.6225 6.36519 19.8292 6.51756 19.9816Z" fill="url(#paint0_linear_7937_53933)" stroke="url(#paint1_linear_7937_53933)" stroke-width="0.4"/>
<defs>
<linearGradient id="paint0_linear_7937_53933" x1="17.1833" y1="3.58746" x2="22.9318" y2="22.054" gradientUnits="userSpaceOnUse">
<stop stop-color="#CDFF7C"/>
<stop offset="0.460938" stop-color="#8CFFAC"/>
<stop offset="0.994792" stop-color="#93FFEB"/>
</linearGradient>
<linearGradient id="paint1_linear_7937_53933" x1="17.1833" y1="3.58746" x2="22.9318" y2="22.054" gradientUnits="userSpaceOnUse">
<stop stop-color="#CDFF7C"/>
<stop offset="0.460938" stop-color="#8CFFAC"/>
<stop offset="0.994792" stop-color="#93FFEB"/>
</linearGradient>
</defs>
</svg>
