<svg width="60" height="61" viewBox="0 0 60 61" fill="none" xmlns="http://www.w3.org/2000/svg">
<rect y="0.5" width="60" height="60" rx="8" fill="#1A1A1C"/>
<path d="M17 32.189V15.5335C23.9004 11.5996 35.6916 11.4233 42.8485 15.4066C42.9492 15.463 42.9996 15.5511 42.9996 15.6709C43.0019 20.8057 42.9949 25.9369 42.9785 31.0645C42.9679 34.5966 42.4444 37.7268 40.2766 40.5573C38.1299 43.3597 33.3551 46.1479 30.1017 48.4533C30.0103 48.5167 29.9213 48.5156 29.8346 48.4498C23.8091 43.9695 17.1581 41.3504 17 32.189ZM40.5015 16.9011C35.5827 14.1481 24.5469 14.3773 19.5578 16.8765C19.5068 16.9022 19.4638 16.9414 19.4335 16.9899C19.4032 17.0383 19.3866 17.0942 19.3856 17.1514C19.3458 22.2368 19.3564 27.2928 19.4173 32.3194C19.5121 39.8876 24.7437 41.7276 29.9576 45.5064C29.9944 45.532 30.0382 45.5454 30.0829 45.5448C30.1276 45.5442 30.1711 45.5295 30.2071 45.5029C34.9783 41.9426 40.1537 39.951 40.5507 33.0033C40.6889 30.5828 40.6994 25.2601 40.5823 17.0351C40.58 16.974 40.553 16.9293 40.5015 16.9011Z" fill="#14C92B"/>
<path d="M34.7636 22.7635C36.573 24.1312 36.5062 25.8867 36.5168 28.0158C36.5273 30.4551 35.6595 32.4396 33.2001 33.2504C32.2901 33.55 31.092 33.4231 30.0555 33.4478C29.9361 33.4525 29.833 33.4959 29.7463 33.5782C28.2543 35.0352 26.4613 35.8683 24.3672 36.0774C24.1799 36.0962 24.1576 36.0445 24.3005 35.9223C25.1718 35.175 25.7059 34.2291 25.9026 33.0847C25.9261 32.9554 25.8827 32.8556 25.7726 32.7851C24.7912 32.1459 24.1037 31.3163 23.7102 30.2964C23.2956 29.2284 23.2113 26.3308 23.6119 25.1464C24.5359 22.4392 26.528 21.766 29.3388 21.7131C31.6928 21.6708 33.0595 21.4769 34.7636 22.7635Z" fill="#14C92B"/>
</svg>
