<svg width="15" height="15" viewBox="0 0 15 15" fill="none" xmlns="http://www.w3.org/2000/svg">
<path fill-rule="evenodd" clip-rule="evenodd" d="M0.517559 14.4816C0.669932 14.634 0.876595 14.7196 1.09208 14.7196C1.30757 14.7196 1.51423 14.634 1.66661 14.4816L13.096 3.05217L13.0949 10.2831C13.0949 10.4989 13.1806 10.7058 13.3331 10.8584C13.4857 11.0109 13.6926 11.0967 13.9084 11.0967C14.1242 11.0967 14.3311 11.0109 14.4836 10.8584C14.6362 10.7058 14.7219 10.4989 14.7219 10.2831L14.7219 1.09074C14.7221 0.983873 14.7011 0.878024 14.6603 0.779262C14.6194 0.680499 14.5595 0.590764 14.4839 0.515194C14.4084 0.439624 14.3186 0.379706 14.2199 0.33887C14.1211 0.298034 14.0153 0.277083 13.9084 0.277218L4.71601 0.277218C4.60917 0.277218 4.50338 0.298261 4.40468 0.339145C4.30598 0.380028 4.2163 0.439952 4.14076 0.515495C3.98819 0.668061 3.90248 0.874984 3.90248 1.09074C3.90248 1.30651 3.98819 1.51343 4.14075 1.666C4.29332 1.81856 4.50024 1.90427 4.716 1.90427L11.947 1.90312L0.517559 13.3325C0.365185 13.4849 0.279582 13.6916 0.279583 13.9071C0.279583 14.1225 0.365185 14.3292 0.517559 14.4816Z" fill="url(#paint0_linear_8011_20992)" stroke="url(#paint1_linear_8011_20992)" stroke-width="0.4"/>
<defs>
<linearGradient id="paint0_linear_8011_20992" x1="11.1833" y1="-1.91254" x2="16.9318" y2="16.554" gradientUnits="userSpaceOnUse">
<stop stop-color="#CDFF7C"/>
<stop offset="0.460938" stop-color="#8CFFAC"/>
<stop offset="0.994792" stop-color="#93FFEB"/>
</linearGradient>
<linearGradient id="paint1_linear_8011_20992" x1="11.1833" y1="-1.91254" x2="16.9318" y2="16.554" gradientUnits="userSpaceOnUse">
<stop stop-color="#CDFF7C"/>
<stop offset="0.460938" stop-color="#8CFFAC"/>
<stop offset="0.994792" stop-color="#93FFEB"/>
</linearGradient>
</defs>
</svg>
