<svg width="60" height="61" viewBox="0 0 60 61" fill="none" xmlns="http://www.w3.org/2000/svg">
<rect y="0.5" width="60" height="60" rx="8" fill="#1A1A1C"/>
<path fill-rule="evenodd" clip-rule="evenodd" d="M38.0719 26.7711C38.2694 27.165 38.467 27.5589 38.6646 28.0513C37.4792 29.233 35.3058 31.301 31.8483 33.369C27.8968 35.7324 24.7356 36.6187 23.3526 36.7172C23.0562 36.4217 22.8586 36.0278 22.661 35.7324C20.1914 31.4979 21.772 26.1803 26.0198 23.7184C30.2677 21.2565 35.701 22.6351 38.0719 26.7711ZM33.1325 36.4217C35.3058 35.24 37.8743 33.369 39.1585 32.4827C38.7634 35.0431 37.1828 37.4065 34.7131 38.7851C32.2434 40.1638 29.4774 40.3608 27.1065 39.4745C28.4895 38.7851 31.058 37.505 33.1325 36.4217ZM20.2902 32.4827L20.0926 30.3162C18.1168 31.7934 13.869 35.3385 12.5847 37.6034C11.1029 40.4592 12.8811 41.444 13.0787 41.5425C13.2763 41.6409 15.6471 42.3303 18.8083 41.3455C29.3786 38.2928 42.6161 29.1345 45.0858 26.2787C46.8639 24.1123 47.8518 22.0443 47.9506 21.4534C48.0494 20.6656 48.1482 19.287 46.6664 19.1885C44.7894 18.9915 40.344 19.1885 34.8119 21.7489C36.1949 22.6351 36.5901 22.9306 36.6889 22.9306C37.2816 22.7336 38.8622 22.3397 39.9488 22.6351C41.2331 22.9306 42.7149 24.1123 41.6282 25.9833C40.5416 27.8543 36.6889 32.0888 30.9592 34.8461C25.3283 37.6034 23.2538 37.8989 22.0683 38.0958C22.0683 38.0958 22.0683 38.0958 21.9695 38.0958C20.8829 38.1943 18.9071 38.0958 18.4132 37.2095C17.9193 36.4217 18.018 35.6339 18.3144 35.0431C18.512 34.7476 19.6974 33.172 20.2902 32.4827Z" fill="url(#paint0_linear_8046_25722)"/>
<defs>
<linearGradient id="paint0_linear_8046_25722" x1="30" y1="19.1318" x2="30" y2="41.8687" gradientUnits="userSpaceOnUse">
<stop offset="0.315625" stop-color="#E04F96"/>
<stop offset="1" stop-color="#4232CF"/>
</linearGradient>
</defs>
</svg>
