<svg width="27" height="20" viewBox="0 0 27 20" fill="none" xmlns="http://www.w3.org/2000/svg">
<g clip-path="url(#clip0_7939_56015)">
<mask id="mask0_7939_56015" style="mask-type:luminance" maskUnits="userSpaceOnUse" x="0" y="0" width="27" height="20">
<path d="M0.335938 0H27V20H0.335938V0Z" fill="white"/>
</mask>
<g mask="url(#mask0_7939_56015)">
<path fill-rule="evenodd" clip-rule="evenodd" d="M-1.33203 0H28.668V20H-1.33203V0Z" fill="#165D31"/>
<path fill-rule="evenodd" clip-rule="evenodd" d="M6.22683 5.66776C6.19558 6.13651 6.14871 6.95682 6.55105 7.04276C7.03152 7.08963 6.7659 6.23026 6.94168 6.07401C6.97293 5.99588 7.03152 5.99588 7.03543 6.09354V6.82401C7.03543 7.05838 7.19168 7.1287 7.30886 7.17557C7.43386 7.16776 7.5198 7.17557 7.56668 7.29276L7.62918 8.55448C7.62918 8.55448 7.91824 8.64041 7.93386 7.84745C7.94558 7.3787 7.84011 6.99198 7.90261 6.90213C7.90261 6.81229 8.0198 6.80838 8.09793 6.85135C8.22293 6.93729 8.27761 7.04666 8.47293 7.0076C8.7698 6.92166 8.94949 6.77713 8.9534 6.55057C8.94753 6.32792 8.90121 6.1082 8.81668 5.90213C8.8323 5.86307 8.76199 5.7576 8.77761 5.71854C8.8284 5.80448 8.91043 5.79666 8.92605 5.71854C8.87527 5.55448 8.79715 5.39432 8.67215 5.32791C8.56668 5.23416 8.41043 5.24979 8.35965 5.4451C8.3284 5.66776 8.43777 5.92948 8.59793 6.14823C8.63308 6.23026 8.67996 6.37088 8.66043 6.49588C8.57449 6.54666 8.48855 6.52323 8.41433 6.44901C8.41433 6.44901 8.17996 6.27323 8.17996 6.23026C8.24246 5.83182 8.19168 5.78495 8.15652 5.67166C8.13308 5.51932 8.05886 5.46854 8.00027 5.36698C7.94168 5.30448 7.86355 5.30448 7.82449 5.36698C7.71902 5.54666 7.7698 5.93338 7.84402 6.10916C7.89871 6.26932 7.98074 6.37088 7.94168 6.37088C7.91043 6.46073 7.84402 6.43729 7.79324 6.33182C7.73607 6.10986 7.70849 5.88132 7.71121 5.65213C7.69168 5.47245 7.66824 5.08963 7.54715 4.98807C7.47683 4.89432 7.37136 4.9412 7.3323 5.02713C7.32199 5.20164 7.32591 5.3767 7.34402 5.55057C7.42215 5.83963 7.44949 6.09745 7.48855 6.39041C7.50027 6.78495 7.26199 6.56229 7.27371 6.36307C7.32495 6.11262 7.32095 5.854 7.26199 5.60526C7.22293 5.5037 7.17996 5.48026 7.0823 5.49588C7.00808 5.49588 6.81668 5.70291 6.76199 6.05448C6.76199 6.05448 6.71511 6.23416 6.69558 6.39432C6.66824 6.57401 6.55105 6.70682 6.46511 6.37088C6.3948 6.12479 6.34793 5.52713 6.23074 5.66776H6.22683Z" fill="white"/>
<path fill-rule="evenodd" clip-rule="evenodd" d="M7.53516 7.58594L6.28516 8.1875C6.29688 7.90234 6.875 7.39062 7.27344 7.38672C7.52734 7.39062 7.46484 7.48437 7.53125 7.58594H7.53516Z" fill="white"/>
<path fill-rule="evenodd" clip-rule="evenodd" d="M7.31158 7.97677C6.65533 9.67599 8.85455 9.91427 9.10064 8.04708C9.12408 7.96896 9.21783 7.89474 9.23345 8.01974C9.18267 9.71114 7.53033 9.82442 7.24908 9.29317C7.18292 9.11038 7.14985 8.91726 7.15142 8.72286C7.11236 8.39083 6.93658 8.51974 6.90924 8.84786C6.88189 9.03146 6.8897 9.08224 6.8897 9.25802C6.97564 10.594 9.10455 10.0197 9.45221 8.91817C9.6358 8.3088 9.42095 7.85958 9.51861 7.85958C9.72955 8.08614 10.0264 7.89083 10.0928 7.81271C10.1202 7.77364 10.1905 7.7463 10.2374 7.79708C10.4014 7.91427 10.6905 7.85958 10.753 7.65255C10.7881 7.44552 10.8155 7.23458 10.8233 7.01974C10.6866 7.0588 10.5889 7.08614 10.5772 7.14474L10.5499 7.32442C10.5381 7.38302 10.4249 7.38302 10.417 7.3088C10.3663 7.07442 10.1553 7.04708 10.0264 7.40646C9.94439 7.47677 9.78814 7.49239 9.77252 7.38692C9.79205 7.14474 9.69439 7.11349 9.49908 7.22677L9.31158 5.8127C9.3897 5.8127 9.46783 5.8713 9.54205 5.77755C9.46392 5.52364 9.28814 5.00802 9.19049 4.96895C9.14752 4.91427 9.10845 4.94942 9.04595 4.96505C8.94439 4.9963 8.85064 5.08224 8.88189 5.25411C8.99908 5.98849 9.07721 6.54708 9.1983 7.28536C9.21783 7.36739 9.14752 7.48067 9.05377 7.46896C8.89752 7.36349 8.85846 7.14864 8.58502 7.15646C8.38971 7.15646 8.17095 7.3713 8.14361 7.57442C8.10845 7.73849 8.09674 7.91427 8.14361 8.05489C8.28033 8.21896 8.44439 8.20333 8.58892 8.16817C8.70611 8.11739 8.80377 8.00021 8.84674 8.02755C8.87408 8.06271 8.85064 8.45333 8.28814 8.75021C7.9483 8.90646 7.67486 8.93771 7.53033 8.66036C7.44049 8.48458 7.53814 7.82442 7.31158 7.97677Z" fill="white"/>
<path fill-rule="evenodd" clip-rule="evenodd" d="M10.1124 6.24954C10.2413 6.20267 10.8663 5.48392 10.8663 5.48392L10.7725 5.40579C10.7374 5.37845 10.7413 5.3472 10.7725 5.31986C10.9288 5.22611 10.878 5.03079 10.7999 4.93704C10.7469 4.91119 10.6885 4.89808 10.6295 4.89876C10.5705 4.89944 10.5125 4.91388 10.46 4.94095C10.3507 5.04642 10.3272 5.21439 10.4132 5.31595C10.4952 5.35501 10.5772 5.44095 10.5225 5.48783C10.2647 5.76126 9.56552 6.23392 9.64755 6.24954C9.66317 6.27298 10.0968 6.27298 10.1085 6.24954H10.1124ZM6.32333 8.78861C6.08895 9.16361 6.06942 9.7222 6.19833 9.89017C6.26864 9.96829 6.38192 10.0035 6.46395 9.97611C6.61239 9.91361 6.6788 9.61283 6.64364 9.50736C6.59286 9.42923 6.5538 9.41751 6.50302 9.48001C6.40145 9.69095 6.35849 9.54642 6.34677 9.42923C6.33557 9.23077 6.34605 9.03167 6.37802 8.83548C6.40536 8.67142 6.37802 8.71829 6.32333 8.78861ZM16.3663 8.19095C16.1397 7.69876 15.8233 7.21439 15.7257 7.03079C15.4213 6.54956 15.0981 6.08045 14.7569 5.62454C14.5147 5.33548 15.1554 5.74564 14.6788 5.16751L14.3311 4.87454C14.253 4.81986 14.0655 4.71829 14.0343 4.88236C14.0186 5.03079 14.0265 5.10892 14.0499 5.23001C14.0694 5.30814 14.1866 5.44486 14.2452 5.52298C15.046 6.58371 15.7494 7.7146 16.3468 8.90189C16.4483 8.85111 16.4249 8.27298 16.3663 8.19095Z" fill="white"/>
<path fill-rule="evenodd" clip-rule="evenodd" d="M15.3717 9.8241C15.3248 9.87488 15.481 10.0897 15.6842 10.0897C16.0201 10.0507 16.317 9.86316 16.5904 9.36316C16.7015 9.19683 16.7724 9.00693 16.7974 8.80848C16.8305 7.8602 16.7545 6.91127 16.5709 5.98035C16.5592 5.90223 16.5709 5.80848 16.5787 5.78504C16.6021 5.75769 16.6763 5.78504 16.7154 5.71863C16.774 5.66004 16.5592 5.17176 16.442 4.98816C16.4029 4.90223 16.3834 4.84754 16.3131 4.99598C16.2282 5.15976 16.1878 5.34294 16.1959 5.52723C16.356 6.64051 16.4068 7.61316 16.5084 8.72644C16.5201 8.83582 16.5045 8.99207 16.4302 9.05457C16.1355 9.38275 15.7748 9.64498 15.3717 9.8241ZM19.9224 9.82019C19.6802 9.96082 19.6802 10.121 19.8756 10.1249C20.2115 10.0858 20.6099 10.0585 20.8834 9.64441C20.98 9.44939 21.0358 9.23673 21.0474 9.01941C21.0966 8.08574 21.035 7.14952 20.8638 6.23035C20.856 6.15223 20.8209 5.96863 20.8326 5.94519C20.856 5.89051 20.9654 5.9491 21.0045 5.8866C21.0592 5.82801 20.7193 5.39051 20.5982 5.20301C20.5592 5.11707 20.5435 5.06238 20.4693 5.21082C20.3906 5.37612 20.366 5.562 20.399 5.74207C20.5787 6.95301 20.7115 7.85926 20.7388 8.92957C20.7232 9.03113 20.7193 9.08582 20.6724 9.21473C20.567 9.34754 20.4498 9.51941 20.3404 9.60144C20.231 9.67957 19.9967 9.75769 19.9224 9.82019Z" fill="white"/>
<path fill-rule="evenodd" clip-rule="evenodd" d="M20.1019 8.7378C20.1019 8.45264 20.1058 8.21045 20.098 7.99561C20.0955 7.81366 20.0556 7.63416 19.9808 7.46827C19.9105 7.30811 19.9535 7.1792 19.9183 7.00733C19.8871 6.83545 19.8949 6.57764 19.848 6.37842C19.8324 6.3003 19.7933 6.04639 19.8051 6.01905C19.8246 5.96436 19.8988 6.01905 19.9379 5.95655C19.9926 5.89796 19.7426 5.25342 19.6176 5.06983C19.5746 4.9878 19.4886 5.01514 19.391 5.14796C19.2933 5.2378 19.3285 5.43702 19.3676 5.62842C19.6058 6.89014 19.7894 8.03467 19.7504 9.23389C19.7347 9.33545 20.1019 8.9292 20.1019 8.7378ZM18.3168 7.1753C18.1644 7.16749 17.848 6.87452 17.7543 6.70655C17.7389 6.6655 17.7324 6.62168 17.7351 6.57793C17.7378 6.53419 17.7496 6.4915 17.7699 6.45264C17.8285 6.41358 17.9144 6.37452 17.9808 6.41358C17.9808 6.41358 18.0472 6.50733 18.0355 6.51905C18.1136 6.55811 18.1527 6.53858 18.1605 6.50342C18.1644 6.44483 18.1371 6.40967 18.1371 6.34717C18.1722 6.16749 18.3715 6.14014 18.4496 6.25342C18.5043 6.32374 18.5277 6.46827 18.5316 6.56592C18.5316 6.61671 18.4535 6.55811 18.4027 6.56592C18.3597 6.58155 18.348 6.63624 18.3441 6.68311C18.3363 6.81202 18.3207 7.01905 18.3168 7.17139V7.1753ZM15.5121 9.0503C15.5511 8.66749 15.4965 7.98389 15.4926 7.75733C15.4717 7.17466 15.4234 6.59329 15.348 6.01514C15.3011 5.68702 15.4808 6.0503 15.4574 5.85889C15.3988 5.53467 15.2191 5.31202 15.0043 5.01905C14.9379 4.92139 14.9379 4.90186 14.8324 5.04249C14.7152 5.30421 14.8168 5.4878 14.848 5.69483C15.0004 6.36671 15.0902 6.98389 15.1332 7.59717C15.1782 8.23425 15.1834 8.87351 15.1488 9.51124C15.266 9.51514 15.4457 9.32764 15.5121 9.0503Z" fill="white"/>
<path fill-rule="evenodd" clip-rule="evenodd" d="M20.6212 8.43797C20.3517 7.98485 19.9493 7.50047 19.8399 7.31688C19.4777 6.81105 19.0973 6.31854 18.6993 5.84032C18.3673 5.48876 18.8556 5.78172 18.6368 5.50829C18.4532 5.30907 18.4024 5.24266 18.2423 5.12157C18.1642 5.07079 18.1173 4.97313 18.086 5.1411C18.0736 5.28659 18.071 5.43276 18.0782 5.5786C18.0782 5.64501 18.1485 5.77391 18.211 5.85204C19.0196 6.84813 19.9063 7.86376 20.6173 9.1411C20.7188 9.09032 20.6837 8.5161 20.6173 8.43797H20.6212Z" fill="white"/>
<path fill-rule="evenodd" clip-rule="evenodd" d="M8.45648 7.60561C8.43695 7.64077 8.39398 7.68374 8.4096 7.72671C8.43695 7.76577 8.46429 7.77749 8.51117 7.77749C8.55413 7.77749 8.61663 7.78921 8.62835 7.76577C8.65179 7.73843 8.66742 7.68764 8.65179 7.63686C8.60492 7.51968 8.47992 7.56655 8.45648 7.60561Z" fill="#165D31"/>
<path fill-rule="evenodd" clip-rule="evenodd" d="M17.5039 14.1605C17.8633 14.1762 18.0977 14.1801 18.4141 14.2152L18.7891 14.1762C19.2031 14.1371 19.2187 14.766 19.2187 14.766C19.2187 15.1371 19.0742 15.1566 18.8906 15.1957C18.7852 15.2113 18.7344 15.1332 18.6758 15.0551C18.5874 15.0834 18.4933 15.0888 18.4023 15.0707C18.25 15.0629 18.1016 15.0629 17.9531 15.0512C17.7969 15.0394 17.7109 15.0707 17.5508 15.0551C17.5195 15.1059 17.4727 15.1762 17.3789 15.1566C17.3008 15.1449 17.2031 14.9223 17.2305 14.7465C17.2891 14.6215 17.2695 14.6644 17.2695 14.6098C15.8008 14.5707 14.3203 14.5043 12.8828 14.5238C11.7578 14.5277 10.6484 14.5746 9.53516 14.6215C8.94141 14.6137 8.48828 14.5199 8.17578 14.0629C8.20703 14.0629 9.69141 14.1449 10.125 14.1176C10.9258 14.1098 11.6602 14.0434 12.4766 14.0199C14.0859 14.0473 15.6836 14.0473 17.293 14.1605C17.1367 14.0551 17.1367 13.809 17.3711 13.7465C17.3906 13.7309 17.4023 13.8676 17.4375 13.8637C17.6289 13.8519 17.543 14.1098 17.5039 14.1605ZM11.0352 5.28554C10.793 5.98085 11.1758 6.74648 11.4414 6.67226C11.6367 6.75038 11.7539 6.38319 11.832 5.98476C11.8906 5.87148 11.9297 5.85976 11.957 5.91835C11.9492 6.4496 11.9961 6.57069 12.1328 6.73085C12.4375 6.96523 12.6914 6.7621 12.7109 6.74257L12.9453 6.50429C13 6.44569 13.0703 6.44569 13.1445 6.49257C13.2187 6.55898 13.207 6.67226 13.3633 6.75038C13.4961 6.80507 13.7734 6.76601 13.8398 6.65273C13.9258 6.50038 13.9492 6.4496 13.9883 6.39491C14.0508 6.31288 14.1562 6.34804 14.1562 6.37538C14.1445 6.42226 14.082 6.46523 14.125 6.55116C14.2031 6.60585 14.2188 6.57069 14.2617 6.55898C14.418 6.48085 14.5352 6.14491 14.5352 6.14491C14.5391 6.01991 14.4687 6.02773 14.4219 6.05898L14.3008 6.14101C14.2227 6.15273 14.0781 6.20351 14.0039 6.09023C13.9297 5.95741 13.9297 5.76601 13.875 5.62929C13.875 5.62148 13.7734 5.41444 13.8672 5.40273C13.9141 5.41054 14.0117 5.43788 14.0273 5.35585C14.0742 5.27382 13.9258 5.04335 13.8203 4.92616C13.7305 4.82851 13.6055 4.81679 13.4844 4.91835C13.3984 4.99648 13.4102 5.08241 13.3945 5.16444C13.3797 5.22323 13.3791 5.2847 13.3927 5.34378C13.4062 5.40286 13.4337 5.45787 13.4727 5.50429C13.5586 5.66835 13.7109 5.88319 13.6602 6.18788C13.6602 6.18788 13.5703 6.32851 13.4141 6.30898C13.3477 6.29726 13.2422 6.26991 13.1875 5.84804C13.1445 5.53554 13.1953 5.09023 13.0625 4.88319C13.0117 4.75429 12.9766 4.63319 12.8594 4.84804C12.8281 4.93398 12.6914 5.06288 12.7891 5.3246C12.8815 5.56045 12.9085 5.81687 12.8672 6.06679C12.8086 6.15273 12.7969 6.18007 12.7227 6.2621C12.6211 6.37929 12.5078 6.34804 12.4219 6.30507C12.3438 6.25429 12.2812 6.22694 12.2422 6.05116C12.25 5.77773 12.2656 5.32851 12.2148 5.23476C12.1406 5.08632 12.0195 5.14101 11.9687 5.18788C11.7364 5.44602 11.5808 5.76397 11.5195 6.10585C11.4492 6.33241 11.375 6.26601 11.3242 6.17616C11.1992 6.05898 11.1875 5.13319 11.0352 5.28554Z" fill="white"/>
<path fill-rule="evenodd" clip-rule="evenodd" d="M11.7689 6.80071C11.8822 6.72259 11.8314 6.6679 11.9955 6.83196C12.2073 7.20665 12.3302 7.62494 12.3549 8.05462C12.3471 8.15618 12.4174 8.21868 12.4525 8.19524C12.4681 7.96087 13.0424 7.63274 13.5697 7.58587C13.6478 7.56634 13.6088 7.41399 13.6205 7.33587C13.5892 7.0429 13.7846 6.77727 14.058 6.75774C14.433 6.81243 14.558 7.01165 14.5658 7.31243C14.5228 7.89837 13.9135 7.99602 13.5736 8.0429C13.5228 8.06243 13.4994 8.08587 13.5736 8.11321L15.0033 8.12102L15.0775 8.16009C15.0853 8.19915 15.0541 8.1679 14.9994 8.26165C14.9207 8.39981 14.8715 8.55276 14.8549 8.71087C14.4291 8.85149 13.9877 8.90618 13.5424 8.96477C13.3861 9.0429 13.308 9.14837 13.3392 9.26555C13.3939 9.39446 13.7377 9.52727 13.7377 9.53118C13.8041 9.57024 13.8783 9.6679 13.7181 9.86712C13.0228 9.83587 12.4799 9.53899 12.2924 9.12102C12.2377 9.07805 12.1752 9.12102 12.1361 9.17571C11.8627 9.52727 11.5971 9.83977 11.1322 10.0116C10.8588 10.082 10.5736 9.96868 10.4408 9.78899C10.351 9.68352 10.3549 9.57024 10.3236 9.5468C10.1713 9.61321 8.88221 10.1601 9.04627 9.90227C9.35877 9.57024 9.90564 9.32024 10.3822 8.99212C10.4174 8.87884 10.4799 8.50384 10.6674 8.38274C10.6791 8.38274 10.64 8.60149 10.6439 8.69524C10.6439 8.77337 10.6361 8.80071 10.6517 8.78118C10.6869 8.76165 11.265 8.30462 11.3158 8.16399C11.3705 8.08587 11.3275 7.88274 11.3275 7.87493C11.2181 7.59368 11.0658 7.57024 11.0111 7.42962C10.9603 7.24602 10.9838 7.03509 11.0892 6.97259C11.183 6.89055 11.2924 6.89837 11.3978 6.99212C11.515 7.09759 11.6166 7.30462 11.6478 7.45696C11.6283 7.51555 11.4916 7.4179 11.4525 7.44524C11.5277 7.53164 11.5777 7.63704 11.5971 7.74993C11.6752 8.07024 11.6517 8.19524 11.5736 8.40227C11.3158 8.94524 10.9877 9.1054 10.6986 9.30852C10.6908 9.30852 10.6869 9.44524 10.7924 9.51946C10.8314 9.55852 10.9838 9.57805 11.1596 9.51946C11.5351 9.31091 11.8388 8.99363 12.0306 8.6093C12.0638 8.31687 12.0318 8.02071 11.9369 7.74212C11.8236 7.4804 11.6908 7.1093 11.6908 7.10149C11.6869 6.93743 11.6986 6.88274 11.7689 6.80071ZM8.02674 5.2929C8.1908 5.37102 8.5033 5.33587 8.48768 5.07024L8.47986 4.94915C8.44861 4.87102 8.35486 4.89055 8.33533 4.96868C8.32752 4.99602 8.34705 5.03899 8.32361 5.05071C8.30799 5.06634 8.25721 5.05852 8.25721 4.9843C8.25721 4.96087 8.24158 4.93743 8.22986 4.9218C8.22205 4.91399 8.21424 4.91399 8.19471 4.91399C8.17127 4.91399 8.17127 4.9179 8.15955 4.93743C8.15564 4.95696 8.14783 4.97649 8.14783 4.99993C8.14783 5.02727 8.13221 5.03509 8.11658 5.03899C8.09314 5.03899 8.09705 5.03899 8.07752 5.03118C8.06971 5.01946 8.05799 5.01555 8.05799 4.99212L8.04627 4.92962C8.03846 4.9179 8.02283 4.91009 8.00721 4.90618C7.91736 4.90618 7.90955 5.01165 7.91736 5.05071C7.90955 5.05852 7.90564 5.24212 8.02674 5.2929Z" fill="white"/>
<path fill-rule="evenodd" clip-rule="evenodd" d="M12.851 7.332C13.015 7.41012 13.4096 7.36715 13.3119 7.11325L13.3041 6.98825C13.2689 6.91012 13.1791 6.92965 13.1596 7.01169C13.1518 7.03512 13.1713 7.07809 13.1439 7.08981C13.1322 7.10544 13.0775 7.09762 13.0814 7.02731C13.0814 7.00387 13.0658 6.97653 13.0541 6.9609C13.0424 6.957 13.0385 6.95309 13.015 6.95309C12.9955 6.95309 12.9955 6.9609 12.9838 6.98044C12.976 6.99997 12.9721 7.0195 12.9721 7.04294C12.9682 7.06637 12.9564 7.07419 12.9369 7.082C12.9174 7.082 12.9213 7.082 12.9057 7.07028C12.8939 7.05856 12.8822 7.05465 12.8822 7.03512L12.8705 6.97262C12.8627 6.9609 12.8471 6.95309 12.8314 6.94919C12.7416 6.94919 12.7338 7.05075 12.7377 7.08981C12.7338 7.09762 12.7299 7.28512 12.8549 7.332H12.851ZM15.6635 6.48825C15.8275 6.56637 16.1361 6.53122 16.1244 6.2695L16.1166 6.1445C16.0814 6.06637 15.9916 6.0859 15.9721 6.16403C15.9643 6.19137 15.9838 6.23434 15.9564 6.24997C15.9447 6.26169 15.89 6.25387 15.8939 6.17965C15.8939 6.15622 15.8783 6.13278 15.8666 6.11715C15.8549 6.10934 15.851 6.10934 15.8275 6.10934C15.808 6.10934 15.808 6.11715 15.7963 6.13669L15.7846 6.19528C15.7807 6.22262 15.7689 6.23434 15.7494 6.23434C15.7299 6.23434 15.7338 6.23434 15.7182 6.22653C15.7064 6.21481 15.6947 6.2109 15.6947 6.19137C15.6947 6.17184 15.6908 6.14059 15.683 6.12497C15.6752 6.11325 15.6596 6.10934 15.6439 6.10544C15.5541 6.10544 15.5463 6.207 15.5502 6.24606C15.5463 6.25387 15.5424 6.43747 15.6674 6.48825H15.6635ZM17.1205 8.60934C16.8353 8.93356 16.9603 9.46872 17.0268 9.5859C17.1205 9.7734 17.1947 9.8945 17.3783 9.98825C17.5463 10.1093 17.6791 10.0351 17.7494 9.94919C17.9174 9.7734 17.9213 9.32419 17.9994 9.23825C18.0541 9.07419 18.1947 9.10153 18.2611 9.17575C18.3233 9.26394 18.4065 9.33512 18.5033 9.38278C18.6596 9.5195 18.8471 9.54684 19.0346 9.42184C19.1596 9.34762 19.2416 9.25778 19.3158 9.07419C19.3939 8.85544 19.3549 7.83981 19.3353 7.23825L19.1713 6.3984C19.1713 6.39059 19.1518 5.99997 19.1322 5.91012C19.1322 5.87106 19.1205 5.85934 19.1596 5.86325C19.2025 5.90231 19.2064 5.90231 19.2377 5.91403C19.2768 5.92184 19.3158 5.84762 19.2885 5.78512L18.8978 5.05856C18.8666 5.02731 18.8236 4.99606 18.7728 5.06637C18.7429 5.0935 18.719 5.12668 18.7029 5.16372C18.6867 5.20076 18.6786 5.24081 18.6791 5.28122C18.6908 5.45309 18.7182 5.62887 18.7299 5.80075L18.8861 6.68356C18.9369 7.30856 18.9486 7.82419 18.9994 8.45309C18.9916 8.71872 18.9096 8.94919 18.8314 8.98434C18.8314 8.98434 18.7143 9.05075 18.6361 8.97653C18.5775 8.95309 18.3471 8.58981 18.3471 8.58981C18.2299 8.48434 18.1518 8.51169 18.0697 8.58981C17.8353 8.81637 17.7338 9.23044 17.5736 9.5195C17.5346 9.5859 17.4174 9.63669 17.2924 9.51559C16.9721 9.07419 17.1596 8.44919 17.1205 8.60934ZM15.7377 4.94919C15.8861 5.00778 15.9877 5.30856 15.9564 5.457C15.9252 5.63278 15.8471 5.82809 15.7924 5.80465C15.7299 5.78122 15.8314 5.62497 15.7728 5.4609C15.7416 5.35153 15.5385 5.15622 15.5619 5.10153C15.5228 4.98044 15.6478 4.92575 15.7377 4.94528V4.94919Z" fill="white"/>
<path fill-rule="evenodd" clip-rule="evenodd" d="M17.5973 8.78953C17.6246 8.43016 17.5738 8.21141 17.566 8.00047C17.5582 7.78953 17.3277 6.18016 17.2809 6.02391C17.2223 5.71922 17.5035 5.98485 17.4723 5.80516C17.3746 5.58641 17.1363 5.26219 17.0621 5.07078C17.0152 4.99266 17.0348 4.91453 16.9332 5.05125C16.8458 5.29096 16.815 5.54767 16.8434 5.80125C17.0855 7.06297 17.3316 8.10985 17.2926 9.30907C17.4098 9.30907 17.5387 9.04735 17.5973 8.78953ZM20.1129 5.4575C20.2496 5.52391 20.3277 5.89891 20.3121 6.00438C20.2848 6.19969 20.2145 6.41063 20.1637 6.38328C20.1051 6.35985 20.1754 6.09422 20.1481 6.01219C20.1168 5.895 19.9332 5.68407 19.9527 5.62157C19.9137 5.48875 20.0309 5.43407 20.1129 5.4575ZM10.1246 8.10985C10.2535 8.16063 10.3316 8.43407 10.3199 8.51219C10.2887 8.65672 10.2223 8.81297 10.1715 8.78953C10.1207 8.77391 10.1832 8.5786 10.1598 8.5161C10.1481 8.37157 9.96836 8.29344 9.97227 8.23094C9.94102 8.11375 10.0504 8.09422 10.1285 8.10985H10.1246Z" fill="white"/>
<path fill-rule="evenodd" clip-rule="evenodd" d="M13.2345 8.52344C13.3986 8.53125 13.4806 8.66406 13.3283 8.71875C13.172 8.76953 13.0275 8.8125 13.0236 9.03125C13.0822 9.34375 12.9455 9.23438 12.8674 9.19531C12.7736 9.125 12.508 8.96094 12.4689 8.60938C12.465 8.52734 12.5314 8.45312 12.6369 8.45312C12.7931 8.49609 13.0275 8.5 13.2345 8.52344Z" fill="#165D31"/>
<path fill-rule="evenodd" clip-rule="evenodd" d="M6.69214 4.8594C6.87964 4.91409 6.89136 5.19534 6.87964 5.27737C6.8523 5.42581 6.78589 5.58597 6.73902 5.56643C6.68433 5.5469 6.73902 5.34378 6.71168 5.28128C6.68433 5.19534 6.52418 5.03128 6.5398 4.9844C6.50464 4.88675 6.61793 4.83987 6.69214 4.8594ZM10.4382 6.1719C10.2898 6.25003 10.2351 6.4844 10.325 6.62503C10.4109 6.74222 10.5437 6.69925 10.5593 6.69925C10.7039 6.71487 10.7898 6.42972 10.7898 6.42972C10.7898 6.42972 10.7937 6.35159 10.6257 6.50393C10.5515 6.51565 10.5476 6.48831 10.5281 6.44925C10.5102 6.37488 10.5171 6.29671 10.5476 6.22659C10.575 6.15628 10.5203 6.12503 10.4382 6.1719ZM11.532 4.75003C11.4539 4.80081 11.3093 4.95315 11.3054 5.12503C11.3015 5.22268 11.282 5.22268 11.3445 5.28128C11.3953 5.35159 11.4382 5.34769 11.532 5.2969C11.5553 5.2822 11.5754 5.2628 11.5909 5.23994C11.6063 5.21707 11.6169 5.19124 11.6218 5.16409C11.6453 5.05472 11.5046 5.21878 11.489 5.09378C11.4578 4.97659 11.5476 4.92972 11.6336 4.82034C11.6336 4.74222 11.6336 4.69143 11.5281 4.75003H11.532ZM12.407 4.90628C12.3725 5.04852 12.3516 5.1937 12.3445 5.33987C12.3211 5.44925 12.4617 5.49612 12.5203 5.3555C12.614 5.10159 12.614 4.99222 12.6218 4.88675C12.5945 4.71878 12.4812 4.72268 12.407 4.90628ZM17.9539 7.7305C17.9695 7.71097 18.7351 7.168 18.7351 7.168C18.8132 7.14065 18.7937 7.44925 18.7585 7.44534C18.5211 7.67418 18.248 7.86284 17.95 8.00393C17.9109 8.03128 17.8757 7.7969 17.95 7.7305H17.9539ZM18.6453 7.72268C18.782 7.78909 18.8367 8.18362 18.821 8.28909C18.821 8.50003 18.6921 8.66409 18.6375 8.64065C18.5828 8.61331 18.6453 8.37893 18.6179 8.2969C18.5867 8.17972 18.4734 7.96487 18.4929 7.90237C18.4539 7.76956 18.5632 7.69925 18.6492 7.72268H18.6453ZM14.114 9.418C14.1774 9.34404 14.2511 9.27958 14.3328 9.22659C14.4109 9.18753 14.4812 9.25784 14.4773 9.25393C14.489 9.33206 14.4304 9.39847 14.45 9.50003C14.4656 9.53909 14.4773 9.58597 14.5515 9.57034C14.6726 9.47269 14.7859 9.46487 14.9031 9.46097C15.0007 9.46487 15.0046 9.62503 14.9421 9.62503C14.7195 9.6719 14.6218 9.7344 14.4617 9.793C14.3835 9.83987 14.3211 9.78128 14.3211 9.77737C14.3211 9.77347 14.2781 9.7344 14.3054 9.63284C14.3132 9.55472 14.282 9.50784 14.2117 9.51565C14.1648 9.5469 14.1179 9.56253 14.0945 9.50394C14.0828 9.46487 14.0789 9.44144 14.114 9.418ZM19.45 9.62894C19.4812 9.668 19.5046 9.70706 19.446 9.77737L19.3015 9.90237C19.2781 9.94144 19.2625 10.0117 19.3406 10.0313C19.4812 10.0703 19.8093 9.8555 19.8093 9.85159C19.864 9.81253 19.8484 9.7344 19.8406 9.7344C19.8093 9.69925 19.739 9.72268 19.6921 9.71487C19.6687 9.71487 19.5945 9.70706 19.6296 9.63675C19.6559 9.60223 19.6769 9.56407 19.6921 9.52347C19.7117 9.47659 19.6921 9.44534 19.614 9.418C19.532 9.40237 19.4968 9.41019 19.407 9.418C19.3601 9.42581 19.3445 9.44925 19.3328 9.50784C19.3367 9.59768 19.3914 9.59378 19.45 9.62503V9.62894Z" fill="white"/>
<path fill-rule="evenodd" clip-rule="evenodd" d="M14.1409 7.4103C14.1214 7.44936 14.0511 7.44936 13.9847 7.4103C13.9183 7.37123 13.8792 7.30873 13.9027 7.27358C13.9261 7.23842 13.9925 7.23842 14.0589 7.27358C14.1253 7.30873 14.1605 7.37514 14.1409 7.4103ZM10.6644 5.31655C10.6253 5.32826 10.5706 5.29311 10.5472 5.23842C10.5237 5.18373 10.5355 5.13686 10.5745 5.12514C10.6136 5.11342 10.6644 5.15248 10.6917 5.20326C10.7191 5.25405 10.7034 5.30873 10.6605 5.32045L10.6644 5.31655Z" fill="#165D31"/>
<path fill-rule="evenodd" clip-rule="evenodd" d="M17.5425 14.6484C17.9097 14.6641 18.2534 14.6484 18.6167 14.668C18.6831 14.7266 18.6362 14.8633 18.5933 14.8555L18.2886 14.8438C18.2847 14.7266 17.9878 14.7461 17.9956 14.8477C17.8355 14.8672 17.6909 14.8437 17.5269 14.8359C17.48 14.7773 17.4878 14.6719 17.5425 14.6484Z" fill="#165D31"/>
</g>
</g>
<defs>
<clipPath id="clip0_7939_56015">
<rect width="26.6667" height="20" fill="white" transform="translate(0.333984)"/>
</clipPath>
</defs>
</svg>
