<svg width="60" height="61" viewBox="0 0 60 61" fill="none" xmlns="http://www.w3.org/2000/svg">
<rect y="0.5" width="60" height="60" rx="8" fill="#1A1A1C"/>
<g clip-path="url(#clip0_8044_21654)">
<path fill-rule="evenodd" clip-rule="evenodd" d="M22.6331 21.3442L34.4812 28.2196L37.0635 26.6917C41.1962 24.2615 40.9899 21.9624 37.2154 19.6635C33.9027 17.8348 29.4486 17.3452 25.2154 19.8163L22.6331 21.3442ZM12 30.0535V21.9558L33.4166 34.3309L41.9227 29.4418V37.5395L33.4177 42.428V42.4293L33.4166 42.4286L33.4164 42.4287V42.4285L12 30.0535ZM48.0005 30.3588V22.2611C47.9942 24.5526 46.1018 26.9729 41.9245 29.4421V37.5398C46.0792 35.0859 47.9714 32.6658 48.0005 30.3588Z" fill="white"/>
</g>
<defs>
<clipPath id="clip0_8044_21654">
<rect width="36" height="36" fill="white" transform="translate(12 12.5)"/>
</clipPath>
</defs>
</svg>
