<svg width="28" height="20" viewBox="0 0 28 20" fill="none" xmlns="http://www.w3.org/2000/svg">
<g clip-path="url(#clip0_7939_54870)">
<mask id="mask0_7939_54870" style="mask-type:luminance" maskUnits="userSpaceOnUse" x="0" y="0" width="28" height="20">
<path d="M0.833984 0H27.5006V20H0.833984V0Z" fill="white"/>
</mask>
<g mask="url(#mask0_7939_54870)">
<path fill-rule="evenodd" clip-rule="evenodd" d="M0 0H30V20H0V0Z" fill="white"/>
<path fill-rule="evenodd" clip-rule="evenodd" d="M0 0H30V10H0V0Z" fill="#DF0000"/>
<path fill-rule="evenodd" clip-rule="evenodd" d="M6.916 1.67517C6.12675 1.84478 5.41988 2.28077 4.91408 2.90993C4.40828 3.53909 4.13434 4.32311 4.13825 5.13037C4.14215 5.93762 4.42368 6.71896 4.93555 7.34319C5.44742 7.96742 6.15848 8.39654 6.94933 8.5585C6.49627 8.6896 6.02179 8.72997 5.5531 8.67729C5.08441 8.62462 4.63073 8.47994 4.21808 8.25155C3.80542 8.02316 3.44192 7.71555 3.14841 7.34636C2.85489 6.97718 2.63715 6.55369 2.50766 6.10017C2.25048 5.18854 2.36472 4.21217 2.82539 3.38452C3.28605 2.55688 4.05568 1.9453 4.966 1.6835C5.63266 1.49184 6.24933 1.48767 6.92016 1.67517H6.916Z" fill="white"/>
<path fill-rule="evenodd" clip-rule="evenodd" d="M6.37435 4.58379L6.57852 5.20879L6.03685 4.82546L5.50352 5.21712L5.69935 4.58379L5.16602 4.19629L5.82852 4.18796L6.03685 3.56296L6.24518 4.18796H6.90352L6.37435 4.58379ZM7.10352 6.75046L7.31185 7.37962L6.77018 6.99629L6.23268 7.38379L6.43268 6.75462L5.89935 6.36296L6.56185 6.35879L6.76602 5.72962L6.97435 6.35462H7.64102L7.10352 6.75046ZM9.54102 6.73379L9.74518 7.36712L9.20352 6.97962L8.67018 7.36712L8.86602 6.73796L8.33268 6.35046L8.99518 6.34212L9.20352 5.71712L9.41185 6.34212H10.0702L9.54102 6.73379ZM10.266 4.58379L10.4702 5.21296L9.92852 4.82962L9.39518 5.21712L9.59518 4.58796L9.05768 4.19629L9.72435 4.19212L9.92435 3.56296L10.1327 4.18796H10.7993L10.266 4.58379ZM8.33685 3.15462L8.54518 3.78796L8.00352 3.40046L7.46602 3.79212L7.66602 3.15879L7.13268 2.76712L7.79102 2.76296L7.99935 2.13379L8.20768 2.75879H8.87435L8.33685 3.15462Z" fill="white"/>
</g>
</g>
<defs>
<clipPath id="clip0_7939_54870">
<rect width="26.6667" height="20" fill="white" transform="translate(0.833984)"/>
</clipPath>
</defs>
</svg>
