<svg width="60" height="61" viewBox="0 0 60 61" fill="none" xmlns="http://www.w3.org/2000/svg">
<rect y="0.5" width="60" height="59.9997" rx="8" fill="#1A1A1C"/>
<ellipse cx="30.7322" cy="46.0091" rx="7.06425" ry="2.49057" fill="#2C4658"/>
<path d="M23.8989 33.783L29.5958 44.8774C29.8237 45.2547 30.3706 46.0547 30.7352 46.2359C31.191 46.4623 31.6467 45.5566 32.1025 44.8774C32.5582 44.1982 36.8874 35.5955 37.7993 33.7834L37.7995 33.783C38.711 31.9717 39.3946 31.7453 41.2176 30.6132C43.0407 29.4811 44.6358 26.3113 44.8637 24.9528C45.0916 23.5943 45.0916 23.3679 44.408 22.6887C43.7243 22.0094 41.9013 22.9151 40.7619 22.9151C39.6225 22.9151 39.6225 22.2358 38.9389 21.3302C38.2552 20.4245 37.7995 17.934 35.5207 15.8962C33.2419 13.8585 29.3679 15.4434 28.2285 14.7642C27.9528 14.5998 27.7188 14.3622 27.5202 14.1004C26.863 13.2339 25.9129 12.6912 24.8842 13.0437C22.9632 13.7018 20.5118 14.6818 19.5692 15.217C17.974 16.1226 14.7837 18.3868 15.0116 24.0472C15.2395 29.7075 21.3922 31.9717 22.3037 32.4245C23.0329 32.7868 23.671 33.4811 23.8989 33.783Z" fill="#EBB22F"/>
<ellipse cx="30.0523" cy="24.9527" rx="3.64606" ry="3.62264" fill="#EDEFF6"/>
</svg>
