<svg width="60" height="61" viewBox="0 0 60 61" fill="none" xmlns="http://www.w3.org/2000/svg">
<rect y="0.5" width="60" height="60" rx="8" fill="white"/>
<path fill-rule="evenodd" clip-rule="evenodd" d="M12 30.5C12 29.5052 12.6987 28.6472 13.6729 28.4458L19.4706 27.2467C23.1303 26.4899 25.99 23.6301 26.7468 19.9704L27.9456 14.1729C28.1471 13.1987 29.0051 12.5 29.9999 12.5C30.9947 12.5 31.8527 13.1987 32.0542 14.1729L33.2531 19.9704C34.01 23.6302 36.8697 26.4899 40.5294 27.2467L46.3271 28.4458C47.3013 28.6472 48 29.5052 48 30.5C48 31.4949 47.3012 32.3529 46.327 32.5543L40.5295 33.753C36.8698 34.5097 34.01 37.3694 33.2532 41.0292L32.0542 46.8271C31.8527 47.8013 30.9947 48.5 29.9999 48.5C29.0051 48.5 28.1471 47.8013 27.9457 46.827L26.7468 41.0292C25.99 37.3694 23.1302 34.5097 19.4704 33.753L13.673 32.5543C12.6988 32.3529 12 31.4949 12 30.5Z" fill="#FF6D87"/>
</svg>
