<svg width="60" height="61" viewBox="0 0 60 61" fill="none" xmlns="http://www.w3.org/2000/svg">
<rect y="0.5" width="60" height="60" rx="8" fill="#A12B2B"/>
<path d="M45.4736 20.5958C44.088 22.8692 45.51 24.8126 47.005 27.086C48.7918 29.7994 48.0625 33.5395 45.6924 35.8129C44.7808 36.6929 44.6349 37.3896 45.0725 38.4896C45.6194 39.8097 45.6559 41.2397 45.2548 42.6331C44.4526 45.6032 41.3897 46.9599 37.8162 45.7865C36.7223 45.4198 36.0295 45.4932 35.1544 46.3732C32.2373 49.2333 27.6429 49.1966 24.6164 46.3365C23.8142 45.5665 23.2308 45.3098 22.1369 45.7132C19.8761 46.5199 17.5425 46.6665 15.6828 44.7598C13.7502 42.8164 13.8961 40.4697 14.7712 38.123C15.0994 37.1696 14.99 36.6562 14.2972 35.9229C11.2343 32.6961 11.2343 28.3327 14.2972 25.1059C14.99 24.3726 15.2453 23.7859 14.7348 22.9059C14.6618 22.7592 14.5889 22.5758 14.5524 22.3925C13.969 20.1558 13.9326 17.9924 15.6828 16.2323C17.4331 14.4723 19.6574 14.4723 21.8087 15.2056C23.0485 15.609 23.7777 15.499 24.7987 14.5823C27.8617 11.7222 32.3102 11.8322 35.3002 14.7656C36.066 15.5356 36.6859 15.6823 37.6704 15.279C38.3632 14.9856 39.2018 14.8756 39.9676 14.839C43.3222 14.5823 45.51 16.7457 45.4736 20.5958ZM40.2593 44.6498C43.2128 44.6498 44.7078 42.4864 43.7963 39.2963C42.7388 35.4829 40.1134 33.0628 36.4306 31.8528C35.5555 31.5594 34.6439 31.5961 33.7323 31.7794C32.8936 31.9261 32.6384 32.4028 33.3677 32.9895C34.9721 34.2728 35.9201 36.2896 37.9985 36.9496C38.5455 37.1329 38.8007 37.6829 38.7278 38.3063C38.6184 38.893 38.2538 39.2963 37.6704 39.4063C37.087 39.5163 36.5035 39.2963 36.3212 38.7463C35.7378 36.8762 34.0605 35.9596 32.8572 34.6029C32.529 34.2362 32.1644 33.5028 31.5809 33.7962C30.9611 34.0895 31.1069 34.8595 31.0705 35.4462C31.034 39.8097 35.8472 44.6865 40.2593 44.6498ZM44.015 20.0458C44.015 17.6624 42.7023 16.3057 40.2957 16.3057C35.8837 16.269 31.0705 21.0725 31.1069 25.5093C31.1069 25.7659 31.1069 25.9859 31.1434 26.2426C31.2163 26.646 31.1799 27.1593 31.6539 27.306C32.055 27.416 32.3102 27.0493 32.529 26.756C33.7688 25.2159 35.6649 24.2626 36.3212 22.2092C36.5035 21.6591 37.0869 21.4758 37.7068 21.5858C38.2538 21.6592 38.5455 22.0258 38.7278 22.5392C38.9101 23.1259 38.6914 23.7859 38.1809 23.9325C36.1754 24.5559 35.2638 26.426 33.8052 27.636C33.4406 27.9293 32.8572 28.2227 33.0395 28.7727C33.2583 29.3594 33.9511 29.286 34.4616 29.3227C38.8737 29.5427 44.0515 24.5559 44.015 20.0458ZM24.7987 29.2494C25.3457 29.1394 26.2937 29.4694 26.6219 28.736C26.9136 28.0393 26.0385 27.5993 25.5645 27.2326C24.1788 26.0959 23.3402 24.3359 21.4076 23.7859C20.8607 23.6392 20.6419 23.0159 20.7877 22.4292C20.8971 21.9158 21.2253 21.5492 21.7358 21.4391C22.3192 21.3291 22.9391 21.4025 23.1214 21.9892C23.7777 24.0426 25.7103 24.9959 26.9501 26.536C27.2418 26.9026 27.57 27.4893 28.0804 27.2693C28.6274 27.0493 28.5909 26.3526 28.6274 25.8393C28.9556 21.1825 23.4131 15.7923 18.8187 16.3057C16.8497 16.5257 15.5734 17.9924 15.6099 20.0824C15.6828 24.2259 20.496 29.1394 24.7987 29.2494ZM20.022 44.6498C23.486 44.3198 26.1479 41.9731 27.9346 38.453C28.518 37.2796 28.7732 36.0329 28.6274 34.7495C28.5909 34.3462 28.518 33.8328 28.0804 33.6862C27.6793 33.5395 27.4241 33.9062 27.2053 34.1995C25.9291 35.7762 23.9601 36.7662 23.2673 38.8563C23.0849 39.443 22.5015 39.5897 21.9181 39.553C21.2982 39.4797 20.9336 39.0763 20.8242 38.4896C20.7148 37.9029 20.9336 37.2796 21.517 37.1329C23.4496 36.5462 24.3247 34.7128 25.7832 33.5762C26.1843 33.2461 26.9865 32.8795 26.6219 32.1828C26.3302 31.5961 25.528 31.7428 24.9446 31.7428C20.6419 31.6694 15.6464 36.6562 15.6464 40.9464C15.6464 43.1831 17.1049 44.6498 20.022 44.6498ZM46.2393 30.4227C46.2393 28.846 45.7288 27.5993 44.7078 26.4259C44.088 25.6926 43.6139 25.4359 42.9211 26.3893C42.046 27.5627 40.8792 28.4427 39.6759 29.286C38.5455 30.0561 38.6184 30.8994 39.7488 31.7794C40.5875 32.4028 41.3897 33.0261 42.1189 33.7228C43.9421 35.4462 44.6714 35.2995 45.7288 32.9161C46.1299 32.1094 46.2029 31.2661 46.2393 30.4227ZM29.8307 46.8132C31.6174 46.8132 32.9666 46.2632 34.1334 45.1631C34.6439 44.6865 34.8991 44.2831 34.1334 43.7331C32.8207 42.8164 31.9091 41.533 30.9975 40.213C30.3047 39.1863 29.4661 39.223 28.7003 40.213C28.044 41.0564 27.4241 41.9731 26.6584 42.7797C24.981 44.5398 25.1269 45.2365 27.3512 46.2632C28.2263 46.6665 29.1014 46.8865 29.8307 46.8132ZM30.0495 14.1423C28.2992 14.1423 26.9136 14.6923 25.7832 15.7923C25.1634 16.379 25.0904 16.819 25.8197 17.369C26.9865 18.2491 27.8252 19.4224 28.7003 20.6325C29.4661 21.6958 30.3412 21.6958 31.1798 20.5958C31.8362 19.7158 32.4561 18.7991 33.1853 18.029C34.8991 16.3057 34.7897 15.719 32.529 14.6556C31.6903 14.2523 30.8152 14.1056 30.0495 14.1423ZM13.6773 30.3494C13.6773 32.0361 14.1513 33.3561 15.1723 34.4928C15.6828 35.0429 16.1204 35.4095 16.7403 34.5662C17.6154 33.3928 18.7822 32.5128 19.9855 31.6694C21.0794 30.8994 21.043 30.0194 19.9855 29.2127C19.1833 28.5893 18.4176 27.856 17.5789 27.306C16.9226 26.866 16.8497 25.5093 15.7922 25.9126C14.9536 26.2426 14.516 27.1593 14.1514 28.0027C13.8232 28.8094 13.6773 29.6527 13.6773 30.3494ZM29.7578 29.396C29.065 29.5427 28.6274 29.9094 28.7003 30.6427C28.7733 31.3394 29.2108 31.7428 29.9036 31.7061C30.5964 31.6694 30.9975 31.1928 30.9611 30.4961C30.8881 29.7627 30.4141 29.4694 29.7578 29.396Z" fill="#F4C484"/>
</svg>
