<svg width="28" height="20" viewBox="0 0 28 20" fill="none" xmlns="http://www.w3.org/2000/svg">
<g clip-path="url(#clip0_7939_56004)">
<mask id="mask0_7939_56004" style="mask-type:luminance" maskUnits="userSpaceOnUse" x="0" y="0" width="28" height="20">
<path d="M0.667969 0H27.3346V20H0.667969V0Z" fill="white"/>
</mask>
<g mask="url(#mask0_7939_56004)">
<path fill-rule="evenodd" clip-rule="evenodd" d="M0.667969 0H27.3346V20H0.667969V0Z" fill="white"/>
<path fill-rule="evenodd" clip-rule="evenodd" d="M0.667969 12.2225V13.8892H27.3346V12.2225H0.667969ZM0.667969 15.2775V16.9442H27.3346V15.2775H0.667969ZM0.667969 6.11083V7.7775H27.3346V6.11083H0.667969ZM0.667969 18.3333V20H27.3346V18.3333H0.667969ZM0.667969 9.16667V10.8333H27.3346V9.16667H0.667969ZM0.667969 0V1.66667H27.3346V0H0.667969ZM0.667969 3.05583V4.7225H27.3346V3.05583H0.667969Z" fill="#BD3D44"/>
<path d="M0.667969 0H17.3346V10.8333H0.667969V0Z" fill="#192F5D"/>
<path fill-rule="evenodd" clip-rule="evenodd" d="M2.1024 2.44927L1.4974 2.87344L1.70156 2.11844L1.16406 1.6401H1.86656L2.10156 1.02344L2.3774 1.6401H2.97573L2.50573 2.11844L2.6874 2.87344L2.1024 2.44927ZM5.43573 2.44927L4.83073 2.87344L5.0349 2.11844L4.49823 1.6401H5.1999L5.4349 1.02344L5.71073 1.6401H6.30906L5.83906 2.11844L6.02073 2.87344L5.43573 2.44927ZM8.16406 2.87344L8.76906 2.44844L9.35406 2.87344L9.1724 2.11844L9.6424 1.6401H9.04406L8.76823 1.02344L8.53323 1.6401H7.83156L8.36823 2.11844L8.16406 2.87344ZM12.1024 2.44844L11.4974 2.87344L11.7016 2.11844L11.1649 1.6401H11.8666L12.1016 1.02344L12.3774 1.6401H12.9757L12.5057 2.11844L12.6874 2.87344L12.1024 2.44844ZM1.4974 6.2076L2.1024 5.7826L2.6874 6.2076L2.50573 5.4526L2.97573 4.97427H2.3774L2.10156 4.3576L1.86656 4.97427H1.16406L1.70156 5.4526L1.4974 6.2076ZM5.43573 5.7826L4.83073 6.2076L5.0349 5.4526L4.49823 4.97427H5.1999L5.4349 4.3576L5.71073 4.97427H6.30906L5.83906 5.4526L6.02073 6.2076L5.43573 5.7826ZM8.16406 6.2076L8.76906 5.7826L9.35406 6.2076L9.1724 5.4526L9.6424 4.97427H9.04406L8.76823 4.3576L8.53323 4.97427H7.83156L8.36823 5.4526L8.16406 6.2076ZM12.1024 5.7826L11.4974 6.2076L11.7016 5.4526L11.1649 4.97427H11.8666L12.1016 4.3576L12.3774 4.97427H12.9757L12.5057 5.4526L12.6874 6.2076L12.1024 5.7826ZM1.4974 9.54094L2.1024 9.11594L2.6874 9.54094L2.50573 8.78594L2.97573 8.3076H2.3774L2.10156 7.69094L1.86656 8.3076H1.16406L1.70156 8.78594L1.4974 9.5401V9.54094ZM5.43573 9.11594L4.83073 9.54094L5.0349 8.78594L4.49823 8.3076H5.1999L5.4349 7.69094L5.71073 8.3076H6.30906L5.83906 8.78594L6.02073 9.5401L5.43573 9.11594ZM8.16406 9.54094L8.76906 9.11594L9.35406 9.54094L9.1724 8.78594L9.6424 8.3076H9.04406L8.76823 7.69094L8.53323 8.3076H7.83156L8.36823 8.78594L8.16406 9.5401V9.54094ZM12.1024 9.11594L11.4974 9.54094L11.7016 8.78594L11.1649 8.3076H11.8666L12.1016 7.69094L12.3774 8.3076H12.9757L12.5057 8.78594L12.6874 9.5401L12.1024 9.11594ZM14.8307 2.87427L15.4357 2.44927L16.0207 2.87427L15.8391 2.11927L16.3091 1.64094H15.7107L15.4349 1.02427L15.1999 1.64094H14.4974L15.0349 2.11927L14.8307 2.87427ZM15.4357 5.7826L14.8307 6.2076L15.0349 5.4526L14.4974 4.97427H15.1999L15.4349 4.3576L15.7107 4.97427H16.3091L15.8391 5.4526L16.0207 6.2076L15.4357 5.7826ZM14.8307 9.54094L15.4357 9.11594L16.0207 9.54094L15.8391 8.78594L16.3091 8.3076H15.7107L15.4349 7.69094L15.1999 8.3076H14.4974L15.0349 8.78594L14.8307 9.5401V9.54094ZM3.76906 4.1151L3.16406 4.5401L3.36823 3.7851L2.83073 3.30677H3.53323L3.76823 2.6901L4.04406 3.30677H4.6424L4.1724 3.7851L4.35406 4.5401L3.76906 4.1151ZM6.4974 4.5401L7.1024 4.1151L7.6874 4.5401L7.50573 3.7851L7.97573 3.30677H7.3774L7.10156 2.6901L6.86656 3.30677H6.16406L6.70156 3.7851L6.4974 4.5401ZM10.4357 4.1151L9.83073 4.5401L10.0349 3.7851L9.49823 3.30677H10.1999L10.4349 2.6901L10.7107 3.30677H11.3091L10.8391 3.7851L11.0207 4.5401L10.4357 4.1151ZM3.16406 7.87344L3.76906 7.44844L4.35406 7.87344L4.1724 7.11844L4.6424 6.6401H4.04406L3.76823 6.02344L3.53323 6.6401H2.83073L3.36823 7.11844L3.16406 7.87344ZM7.1024 7.44844L6.4974 7.87344L6.70156 7.11844L6.1649 6.6401H6.86656L7.10156 6.02344L7.3774 6.6401H7.97573L7.50573 7.11844L7.6874 7.87344L7.1024 7.44844ZM9.83073 7.87344L10.4357 7.44844L11.0207 7.87344L10.8391 7.11844L11.3091 6.6401H10.7107L10.4349 6.02344L10.1999 6.6401H9.49823L10.0349 7.11844L9.83073 7.87344ZM13.7691 4.1151L13.1641 4.5401L13.3682 3.7851L12.8316 3.30677H13.5332L13.7682 2.6901L14.0441 3.30677H14.6424L14.1724 3.7851L14.3541 4.5401L13.7691 4.1151ZM13.1641 7.87344L13.7691 7.44844L14.3541 7.87344L14.1724 7.11844L14.6424 6.6401H14.0441L13.7682 6.02344L13.5332 6.6401H12.8316L13.3682 7.11844L13.1641 7.87344Z" fill="white"/>
</g>
</g>
<defs>
<clipPath id="clip0_7939_56004">
<rect width="26.6667" height="20" fill="white" transform="translate(0.667969)"/>
</clipPath>
</defs>
</svg>
