<svg width="48" height="48" viewBox="0 0 48 48" fill="none" xmlns="http://www.w3.org/2000/svg">
<circle cx="24" cy="24" r="24" fill="white"/>
<path d="M37 34.855V35.7C37 36.0448 36.863 36.3754 36.6192 36.6192C36.3754 36.863 36.0448 37 35.7 37H33.1C27.2387 37 21.6175 34.6716 17.4729 30.5271C13.3284 26.3825 11 20.7613 11 14.9L11 12.3C11 11.9552 11.137 11.6246 11.3808 11.3808C11.6246 11.137 11.9552 11 12.3 11H17.5C17.8448 11 18.1754 11.137 18.4192 11.3808C18.663 11.6246 18.8 11.9552 18.8 12.3V17.5C18.8 18.228 18.397 19.203 17.89 19.71L15.108 22.492C17.084 27.172 20.828 30.916 25.508 32.892L28.264 30.136C28.784 29.616 29.759 29.213 30.474 29.213H35.7C36.0425 29.2164 36.3699 29.3549 36.6108 29.5983C36.8518 29.8418 36.987 30.1705 36.987 30.513V34.868L37 34.855Z" fill="#0F0F10"/>
</svg>
