<svg width="48" height="48" viewBox="0 0 48 48" fill="none" xmlns="http://www.w3.org/2000/svg">
<circle cx="24" cy="24" r="24" fill="white"/>
<path d="M33.3333 14H14.6667C12.1 14 10 16.1 10 18.6667V30.3333C10 32.9 12.1 35 14.6667 35H33.3333C35.9 35 38 32.9 38 30.3333V18.6667C38 16.1 35.9 14 33.3333 14ZM35.2 20.7667L25.9833 26.95C25.4 27.3 24.7 27.5333 24 27.5333C23.3 27.5333 22.6 27.3 22.0167 26.95L12.8 20.7667C12.3333 20.4167 12.2167 19.7167 12.5667 19.1333C12.9167 18.6667 13.6167 18.55 14.2 18.9L23.4167 25.0833C23.7667 25.3167 24.35 25.3167 24.7 25.0833L33.9167 18.9C34.5 18.55 35.2 18.6667 35.55 19.25C35.7833 19.7167 35.6667 20.4167 35.2 20.7667Z" fill="#0F0F10"/>
</svg>
