<svg width="67" height="67" viewBox="0 0 67 67" fill="none" xmlns="http://www.w3.org/2000/svg">
<g clip-path="url(#clip0_7705_50177)">
<path d="M33.5261 67.0522C52.0421 67.0522 67.0522 52.0421 67.0522 33.5261C67.0522 15.0101 52.0421 0 33.5261 0C15.0101 0 0 15.0101 0 33.5261C0 52.0421 15.0101 67.0522 33.5261 67.0522Z" fill="url(#paint0_linear_7705_50177)"/>
<path fill-rule="evenodd" clip-rule="evenodd" d="M15.1438 33.1606C24.9092 28.8784 31.4368 26.1107 34.7268 24.753C44.0222 20.8886 45.9544 20.2097 47.2077 20.1575C47.4688 20.1575 48.0954 20.2097 48.5132 20.523C48.8265 20.7841 48.931 21.1497 48.9832 21.4108C49.0354 21.6719 49.0876 22.2463 49.0354 22.7163C48.5132 27.9907 46.3721 40.8893 45.2233 46.7904C44.7533 49.297 43.8133 50.1325 42.9255 50.237C40.9933 50.3936 39.4789 48.9314 37.5989 47.7303C34.6746 45.7982 33.0035 44.5971 30.1313 42.7171C26.8413 40.5238 28.9824 39.3227 30.8624 37.3905C31.3324 36.8683 39.9489 29.0873 40.1056 28.3562C40.1056 28.2518 40.1578 27.9385 39.9489 27.7818C39.74 27.6251 39.4789 27.6773 39.27 27.7296C38.9567 27.7818 34.2568 30.9151 25.118 37.0772C23.7603 38.0172 22.5592 38.4349 21.4625 38.4349C20.2615 38.4349 17.9637 37.7561 16.2404 37.1816C14.1516 36.5028 12.4805 36.1372 12.6371 34.9883C12.7416 34.4139 13.5771 33.7872 15.1438 33.1606Z" fill="white"/>
</g>
<defs>
<linearGradient id="paint0_linear_7705_50177" x1="0" y1="33.5018" x2="67.0037" y2="33.5018" gradientUnits="userSpaceOnUse">
<stop stop-color="#2AABEE"/>
<stop offset="1" stop-color="#229ED9"/>
</linearGradient>
<clipPath id="clip0_7705_50177">
<rect width="67" height="67" fill="white"/>
</clipPath>
</defs>
</svg>
