<svg width="24" height="24" viewBox="0 0 24 24" fill="none" xmlns="http://www.w3.org/2000/svg">
<path d="M9.11996 2.87988C4.67809 2.87988 0.959961 5.93238 0.959961 9.83988C0.959961 11.9493 2.06059 13.7661 3.76121 15.0355L2.48621 18.8661L6.46684 16.4005C7.28996 16.6593 8.19934 16.7999 9.11996 16.7999C9.47809 16.7999 9.82684 16.7736 10.1737 16.7343C11.2218 18.7705 13.5975 20.1599 16.32 20.1599C17.1468 20.1599 17.9118 20.0043 18.6225 19.7924L21.9093 21.6318L20.9925 18.4874C22.23 17.4599 23.04 16.0293 23.04 14.3999C23.04 11.4186 20.4468 9.04113 17.16 8.69051C16.5112 5.33988 13.1156 2.87988 9.11996 2.87988ZM9.11996 3.83988C12.6281 3.83988 15.5175 5.92863 16.1775 8.64551C12.5681 8.71113 9.59996 11.2105 9.59996 14.3999C9.59996 14.8893 9.67684 15.3618 9.80996 15.8118C9.58309 15.8305 9.35246 15.8399 9.11996 15.8399C8.20871 15.8399 7.29559 15.7011 6.54371 15.4349L6.32809 15.3599L4.23371 16.6555L4.88996 14.6849L4.58996 14.4824C2.91934 13.3536 1.91996 11.7336 1.91996 9.83988C1.91996 6.54738 5.11496 3.83988 9.11996 3.83988ZM6.23996 6.71988C5.71121 6.71988 5.27996 7.15113 5.27996 7.67988C5.27996 8.20863 5.71121 8.63988 6.23996 8.63988C6.76871 8.63988 7.19996 8.20863 7.19996 7.67988C7.19996 7.15113 6.76871 6.71988 6.23996 6.71988ZM12 6.71988C11.4712 6.71988 11.04 7.15113 11.04 7.67988C11.04 8.20863 11.4712 8.63988 12 8.63988C12.5287 8.63988 12.96 8.20863 12.96 7.67988C12.96 7.15113 12.5287 6.71988 12 6.71988ZM16.32 9.59988C19.5581 9.59988 22.08 11.7768 22.08 14.3999C22.08 15.8193 21.3562 17.0643 20.1618 17.9493L19.8937 18.1499L20.3306 19.648L18.7706 18.7724L18.5681 18.8399C17.8968 19.0649 17.13 19.1999 16.32 19.1999C13.0818 19.1999 10.56 17.023 10.56 14.3999C10.56 11.7768 13.0818 9.59988 16.32 9.59988ZM14.16 12.4799C13.7756 12.4799 13.44 12.8155 13.44 13.1999C13.44 13.5843 13.7756 13.9199 14.16 13.9199C14.5443 13.9199 14.88 13.5843 14.88 13.1999C14.88 12.8155 14.5443 12.4799 14.16 12.4799ZM18.48 12.4799C18.0956 12.4799 17.76 12.8155 17.76 13.1999C17.76 13.5843 18.0956 13.9199 18.48 13.9199C18.8643 13.9199 19.2 13.5843 19.2 13.1999C19.2 12.8155 18.8643 12.4799 18.48 12.4799Z" fill="white"/>
</svg>
