<svg width="14" height="14" viewBox="0 0 14 14" fill="none" xmlns="http://www.w3.org/2000/svg">
<path d="M4.38476 13C4.28176 13.0005 4.17971 12.9804 4.08459 12.9409C3.98946 12.9014 3.90318 12.8433 3.83081 12.7701C3.68402 12.6231 3.60156 12.4238 3.60156 12.2161C3.60156 12.0084 3.68402 11.8091 3.83081 11.6622L8.50276 6.99022L3.83081 2.31827C3.69235 2.16968 3.61696 1.97313 3.62055 1.77005C3.62413 1.56698 3.7064 1.37322 3.85002 1.22959C3.99364 1.08597 4.1874 1.00371 4.39048 1.00012C4.59356 0.996539 4.7901 1.07192 4.9387 1.21039L10.1646 6.43628C10.3114 6.58325 10.3938 6.78249 10.3938 6.99022C10.3938 7.19795 10.3114 7.39718 10.1646 7.54416L4.9387 12.7701C4.86633 12.8433 4.78005 12.9014 4.68492 12.9409C4.5898 12.9804 4.48775 13.0005 4.38476 13Z" fill="#9D9D9E"/>
</svg>
