<svg width="168" height="88" viewBox="0 0 168 88" fill="none" xmlns="http://www.w3.org/2000/svg">
<g clip-path="url(#clip0_7716_51332)">
<path fill-rule="evenodd" clip-rule="evenodd" d="M40.5222 4.23173H26.8355L26.5508 14.0415H40.301C40.4273 10.355 40.5222 7.08482 40.5222 4.23173Z" fill="#9D9D9E"/>
<path fill-rule="evenodd" clip-rule="evenodd" d="M16.7515 4.23182H3.19102C3.25428 13.6249 2.4641 35.5527 0.820312 69.9832L13.8435 70.0474C13.8435 61.5519 14.7917 39.624 16.7515 4.23182Z" fill="#9D9D9E"/>
<path fill-rule="evenodd" clip-rule="evenodd" d="M39.6365 21.415H26.3922C26.0129 43.0542 25.4124 59.2438 24.6221 69.9832L38.5936 70.0474C38.4987 65.7195 38.8462 49.5303 39.6365 21.415Z" fill="#9D9D9E"/>
<path fill-rule="evenodd" clip-rule="evenodd" d="M46.8441 21.1264L45.2002 31.0005L51.9961 30.9362L50.795 69.9832L64.2609 70.0474L64.6084 31.0643H73.459L75.4189 21.0302H64.3872V19.5235C64.3872 15.4202 64.8929 12.9835 65.8729 12.3105C67.074 11.3805 70.9304 10.9961 77.4103 11.0923L79.212 1.89163C73.8384 1.63499 69.919 1.63499 67.4534 1.89163C62.7433 2.21215 59.1084 3.52654 56.5798 5.96291C54.1457 8.3031 52.8182 12.8877 52.5652 19.6839V21.1264H46.8441Z" fill="#9D9D9E"/>
<path fill-rule="evenodd" clip-rule="evenodd" d="M116.89 28.6599C112.718 23.3382 106.744 20.6775 98.9677 20.6775C92.6142 20.5493 87.1457 22.3124 82.4679 25.935C76.367 30.6796 73.0163 37.2515 72.4161 45.715C71.8785 53.2806 73.7751 59.4039 78.1691 64.0202C82.2149 68.2519 87.9678 70.496 95.3958 70.7524C102.002 70.9447 108.008 70.3677 113.477 69.0853L115.405 59.0511C111.011 61.0067 105.416 62.0006 98.6836 62.0006C92.4563 62.0006 88.5999 60.1731 87.0194 56.5505C86.0713 54.4989 85.5971 52.3512 85.5971 50.0749L85.8816 47.2856H121.221L121.347 46.1636C121.79 38.9184 120.304 33.0841 116.89 28.6599ZM90.3382 31.6735C92.393 29.4614 95.1431 28.3394 98.6836 28.3714C102.192 28.3394 104.879 29.7177 106.712 32.4427C108.103 34.687 108.64 37.1873 108.356 39.9765L108.198 41.1947L86.5452 41.0985C86.7667 37.3477 88.0308 34.2061 90.3382 31.6735Z" fill="#9D9D9E"/>
<path fill-rule="evenodd" clip-rule="evenodd" d="M144.106 34.5586L144.422 21.6391H129.313L129.028 34.5586H144.106Z" fill="#9D9D9E"/>
<path fill-rule="evenodd" clip-rule="evenodd" d="M162.187 13.9453C159.247 6.53998 157.129 1.89154 155.865 0H147.077C151.155 7.50153 153.715 15.7407 154.822 24.749C155.359 29.1408 155.549 35.4883 155.327 43.7594C155.17 54.2107 152.957 64.7576 148.69 75.369C147.014 79.5687 145.023 83.8003 142.684 88H152.451C155.075 83.9607 157.414 79.7609 159.405 75.369C160.353 73.2853 161.239 71.1693 162.028 69.0215C165.189 60.1413 166.865 51.8704 167.023 44.2084C167.244 33.02 165.632 22.9536 162.187 13.9453Z" fill="#9D9D9E"/>
<path fill-rule="evenodd" clip-rule="evenodd" d="M127.543 57.4805L127.227 70.3037H142.462L142.778 57.4805H127.543Z" fill="#9D9D9E"/>
</g>
<defs>
<clipPath id="clip0_7716_51332">
<rect width="166.222" height="88" fill="white" transform="translate(0.820312)"/>
</clipPath>
</defs>
</svg>
