<svg width="429" height="88" viewBox="0 0 429 88" fill="none" xmlns="http://www.w3.org/2000/svg">
<ellipse cx="38.2236" cy="81.9103" rx="17.1572" ry="6.08805" fill="#D8D8D8"/>
<path d="M21.613 52.0252L35.4495 79.1447C36.003 80.0671 37.3312 82.0227 38.2168 82.4654C39.3237 83.0189 40.4306 80.805 41.5375 79.1447C42.6445 77.4843 53.1602 56.4528 55.374 52.0252C57.5879 47.5975 59.2482 47.044 63.6759 44.2767C68.1036 41.5094 71.9778 33.761 72.5312 30.4403C73.0847 27.1195 73.0847 26.566 71.4243 24.9057C69.764 23.2453 65.3363 25.4591 62.569 25.4591C59.8017 25.4591 59.8017 23.7987 58.1413 21.5849C56.4809 19.3711 55.374 13.283 49.8394 8.30189C44.3048 3.32076 34.896 7.19497 32.1287 5.53459C30.6904 4.67158 29.7193 2.98306 29.0636 1.65304C28.581 0.674018 27.5296 0.187519 26.4873 0.511517C21.73 1.99027 13.8209 5.08518 11.0973 6.64151C7.22311 8.85535 -0.525318 14.3899 0.0281413 28.2264C0.5816 42.0629 15.525 47.5975 17.7388 48.7044C19.5099 49.5899 21.0596 51.2872 21.613 52.0252Z" fill="#9D9D9E"/>
<circle cx="36.5516" cy="30.4408" r="8.85535" fill="#D8D8D8"/>
<path d="M101.878 44.652C98.8578 44.652 96.0556 44.1789 93.4719 43.2328C90.9245 42.2502 88.7046 40.8673 86.8123 39.0842C84.9563 37.301 83.5007 35.2085 82.4453 32.8067C81.39 30.3685 80.8623 27.6937 80.8623 24.7824C80.8623 21.8711 81.39 19.2146 82.4453 16.8127C83.5007 14.3745 84.9563 12.2638 86.8123 10.4807C88.7046 8.6975 90.9245 7.33283 93.4719 6.38666C96.0556 5.40409 98.8578 4.91281 101.878 4.91281C105.408 4.91281 108.556 5.53146 111.322 6.76876C114.124 8.00607 116.453 9.78923 118.309 12.1183L111.431 18.3412C110.194 16.8855 108.829 15.7756 107.337 15.0114C105.881 14.2472 104.244 13.865 102.424 13.865C100.859 13.865 99.4218 14.1198 98.1117 14.6293C96.8017 15.1387 95.6735 15.8848 94.7274 16.8673C93.8176 17.8135 93.0897 18.9598 92.5439 20.3063C92.0344 21.6528 91.7797 23.1448 91.7797 24.7824C91.7797 26.42 92.0344 27.9121 92.5439 29.2585C93.0897 30.605 93.8176 31.7695 94.7274 32.7521C95.6735 33.6983 96.8017 34.4261 98.1117 34.9356C99.4218 35.445 100.859 35.6998 102.424 35.6998C104.244 35.6998 105.881 35.3177 107.337 34.5534C108.829 33.7892 110.194 32.6793 111.431 31.2237L118.309 37.4466C116.453 39.7392 114.124 41.5224 111.322 42.7961C108.556 44.0334 105.408 44.652 101.878 44.652Z" fill="#9D9D9E"/>
<path d="M136.525 44.3791C133.286 44.3791 130.411 43.724 127.9 42.414C125.389 41.1039 123.406 39.3025 121.95 37.0099C120.531 34.6808 119.821 32.0243 119.821 29.0402C119.821 26.0561 120.531 23.4177 121.95 21.1251C123.406 18.8324 125.389 17.0493 127.9 15.7756C130.411 14.4655 133.286 13.8105 136.525 13.8105C139.763 13.8105 142.638 14.4655 145.149 15.7756C147.697 17.0493 149.68 18.8324 151.099 21.1251C152.519 23.4177 153.228 26.0561 153.228 29.0402C153.228 32.0243 152.519 34.6808 151.099 37.0099C149.68 39.3025 147.697 41.1039 145.149 42.414C142.638 43.724 139.763 44.3791 136.525 44.3791ZM136.525 36.1365C137.726 36.1365 138.781 35.8635 139.691 35.3177C140.637 34.7718 141.383 33.9712 141.929 32.9158C142.475 31.8241 142.748 30.5322 142.748 29.0402C142.748 27.5481 142.475 26.2926 141.929 25.2737C141.383 24.2183 140.637 23.4177 139.691 22.8719C138.781 22.326 137.726 22.0531 136.525 22.0531C135.36 22.0531 134.305 22.326 133.359 22.8719C132.449 23.4177 131.703 24.2183 131.121 25.2737C130.575 26.2926 130.302 27.5481 130.302 29.0402C130.302 30.5322 130.575 31.8241 131.121 32.9158C131.703 33.9712 132.449 34.7718 133.359 35.3177C134.305 35.8635 135.36 36.1365 136.525 36.1365Z" fill="#9D9D9E"/>
<path d="M158.033 43.8878V14.3017H168.404V43.8878H158.033ZM163.218 11.0265C161.326 11.0265 159.798 10.4989 158.633 9.44352C157.469 8.38817 156.886 7.07809 156.886 5.51327C156.886 3.94845 157.469 2.63836 158.633 1.58302C159.798 0.527672 161.326 0 163.218 0C165.111 0 166.639 0.509477 167.804 1.52843C168.968 2.51099 169.551 3.78469 169.551 5.34951C169.551 6.98711 168.968 8.35178 167.804 9.44352C166.676 10.4989 165.147 11.0265 163.218 11.0265Z" fill="#9D9D9E"/>
<path d="M194.414 13.8105C196.706 13.8105 198.78 14.2835 200.636 15.2297C202.492 16.1395 203.948 17.5588 205.003 19.4875C206.095 21.4162 206.641 23.909 206.641 26.9659V43.8878H196.269V28.6581C196.269 26.5474 195.833 25.019 194.959 24.0728C194.122 23.0902 192.94 22.5989 191.411 22.5989C190.32 22.5989 189.319 22.8537 188.409 23.3632C187.499 23.8362 186.79 24.5823 186.28 25.6012C185.771 26.6202 185.516 27.9484 185.516 29.586V43.8878H175.144V14.3017H185.025V22.7081L183.114 20.2517C184.242 18.1046 185.789 16.5034 187.754 15.4481C189.719 14.3563 191.939 13.8105 194.414 13.8105Z" fill="#9D9D9E"/>
<path d="M204.161 43.8878L221.028 5.67703H231.673L248.595 43.8878H237.35L224.14 10.9719H228.398L215.188 43.8878H204.161ZM213.386 36.464L216.17 28.4943H234.839L237.623 36.464H213.386Z" fill="#9D9D9E"/>
<path d="M252.369 43.8878V14.6293C252.369 11.0629 253.424 8.22441 255.535 6.11372C257.682 3.96664 260.739 2.8931 264.705 2.8931C265.979 2.8931 267.234 3.02047 268.472 3.27521C269.709 3.52995 270.746 3.91205 271.583 4.42153L269.018 11.7362C268.581 11.4814 268.09 11.2813 267.544 11.1357C266.998 10.9538 266.452 10.8628 265.906 10.8628C264.814 10.8628 263.959 11.1903 263.34 11.8453C262.758 12.464 262.467 13.4284 262.467 14.7384V16.8673L262.74 21.1797V43.8878H252.369ZM248.056 23.1448V15.3935H269.509V23.1448H248.056Z" fill="#9D9D9E"/>
<path d="M273.717 43.8878V14.3017H283.597V22.9265L282.123 20.4701C282.996 18.2502 284.416 16.5944 286.381 15.5027C288.346 14.3745 290.73 13.8105 293.532 13.8105V23.1448C293.059 23.072 292.64 23.0356 292.276 23.0356C291.949 22.9992 291.585 22.981 291.184 22.981C289.074 22.981 287.363 23.5633 286.053 24.7278C284.743 25.856 284.088 27.7119 284.088 30.2957V43.8878H273.717Z" fill="#9D9D9E"/>
<path d="M297.812 43.8878V14.3017H308.183V43.8878H297.812ZM302.997 11.0265C301.105 11.0265 299.577 10.4989 298.412 9.44352C297.248 8.38817 296.665 7.07809 296.665 5.51327C296.665 3.94845 297.248 2.63836 298.412 1.58302C299.577 0.527672 301.105 0 302.997 0C304.89 0 306.418 0.509477 307.583 1.52843C308.747 2.51099 309.329 3.78469 309.329 5.34951C309.329 6.98711 308.747 8.35178 307.583 9.44352C306.455 10.4989 304.926 11.0265 302.997 11.0265Z" fill="#9D9D9E"/>
<path d="M327.587 44.3791C324.931 44.3791 322.493 43.7604 320.273 42.5231C318.053 41.2858 316.288 39.5209 314.978 37.2282C313.704 34.9356 313.067 32.2244 313.067 29.0948C313.067 25.9651 313.704 23.2722 314.978 21.0159C316.288 18.7233 318.053 16.9583 320.273 15.721C322.493 14.4473 324.931 13.8105 327.587 13.8105C330.28 13.8105 332.5 14.3563 334.247 15.4481C335.994 16.5398 337.304 18.2138 338.177 20.4701C339.051 22.6899 339.487 25.5648 339.487 29.0948C339.487 32.5883 339.014 35.4632 338.068 37.7195C337.158 39.9394 335.812 41.6133 334.029 42.7415C332.282 43.8332 330.135 44.3791 327.587 44.3791ZM329.771 36.1365C330.935 36.1365 331.973 35.8635 332.882 35.3177C333.829 34.7718 334.575 33.9712 335.12 32.9158C335.703 31.8605 335.994 30.5868 335.994 29.0948C335.994 27.6027 335.703 26.329 335.12 25.2737C334.575 24.2183 333.829 23.4177 332.882 22.8719C331.973 22.326 330.935 22.0531 329.771 22.0531C328.606 22.0531 327.551 22.326 326.605 22.8719C325.695 23.4177 324.949 24.2183 324.367 25.2737C323.821 26.329 323.548 27.6027 323.548 29.0948C323.548 30.5868 323.821 31.8605 324.367 32.9158C324.949 33.9712 325.695 34.7718 326.605 35.3177C327.551 35.8635 328.606 36.1365 329.771 36.1365ZM335.83 54.4776V38.9204L336.376 29.0948L336.321 19.3237V14.3017H346.202V54.4776H335.83Z" fill="#9D9D9E"/>
<path d="M365.324 44.3791C362.922 44.3791 360.757 43.906 358.828 42.9598C356.936 42.0136 355.444 40.5398 354.352 38.5383C353.297 36.5004 352.769 33.9348 352.769 30.8415V14.3017H363.141V29.1494C363.141 31.442 363.559 33.0796 364.396 34.0622C365.269 35.0447 366.489 35.536 368.053 35.536C369.072 35.536 370 35.2995 370.837 34.8264C371.674 34.3533 372.348 33.6073 372.857 32.5883C373.366 31.533 373.621 30.1865 373.621 28.5489V14.3017H383.993V43.8878H374.112V35.536L376.023 37.8832C375.004 40.0667 373.53 41.7043 371.601 42.7961C369.673 43.8514 367.58 44.3791 365.324 44.3791Z" fill="#9D9D9E"/>
<path d="M406.176 44.3791C402.682 44.3791 399.625 43.724 397.005 42.414C394.421 41.0675 392.402 39.2479 390.946 36.9553C389.527 34.6262 388.817 31.9879 388.817 29.0402C388.817 26.0925 389.509 23.4723 390.892 21.1797C392.311 18.8506 394.258 17.0493 396.732 15.7756C399.207 14.4655 401.991 13.8105 405.084 13.8105C407.995 13.8105 410.652 14.4109 413.054 15.6118C415.456 16.7763 417.366 18.5049 418.785 20.7976C420.205 23.0902 420.914 25.8741 420.914 29.1494C420.914 29.5133 420.896 29.9318 420.86 30.4049C420.823 30.8779 420.787 31.3146 420.751 31.7149H397.333V26.2563H415.237L411.307 27.7847C411.343 26.4382 411.089 25.2737 410.543 24.2911C410.033 23.3086 409.305 22.5444 408.359 21.9985C407.45 21.4526 406.376 21.1797 405.139 21.1797C403.901 21.1797 402.81 21.4526 401.863 21.9985C400.954 22.5444 400.244 23.3268 399.735 24.3457C399.225 25.3283 398.97 26.4928 398.97 27.8393V29.4223C398.97 30.8779 399.261 32.1334 399.844 33.1888C400.462 34.2441 401.336 35.0629 402.464 35.6452C403.592 36.1911 404.939 36.464 406.503 36.464C407.959 36.464 409.196 36.2638 410.215 35.8635C411.271 35.4268 412.308 34.7718 413.327 33.8984L418.785 39.5754C417.366 41.1403 415.619 42.3412 413.545 43.1782C411.471 43.9788 409.014 44.3791 406.176 44.3791Z" fill="#9D9D9E"/>
<path d="M80.8623 83.1866L88.7278 65.8181H91.1842L99.0744 83.1866H96.4692L89.4473 67.2076H90.4398L83.418 83.1866H80.8623ZM84.212 78.8445L84.8819 76.8595H94.6579L95.3774 78.8445H84.212Z" fill="#9D9D9E"/>
<path d="M106.928 83.3355C105.589 83.3355 104.389 83.046 103.331 82.4671C102.289 81.8881 101.47 81.0941 100.874 80.0851C100.279 79.0761 99.9811 77.9182 99.9811 76.6114C99.9811 75.3046 100.279 74.1467 100.874 73.1377C101.47 72.1287 102.289 71.343 103.331 70.7805C104.389 70.2016 105.589 69.9121 106.928 69.9121C108.119 69.9121 109.178 70.152 110.104 70.6317C111.047 71.0948 111.775 71.7896 112.288 72.7159L110.477 73.8821C110.047 73.2369 109.517 72.7655 108.889 72.4678C108.277 72.1535 107.615 71.9963 106.904 71.9963C106.044 71.9963 105.274 72.1866 104.596 72.567C103.918 72.9475 103.38 73.4851 102.983 74.1798C102.586 74.858 102.388 75.6685 102.388 76.6114C102.388 77.5543 102.586 78.3731 102.983 79.0678C103.38 79.7626 103.918 80.3001 104.596 80.6806C105.274 81.0611 106.044 81.2513 106.904 81.2513C107.615 81.2513 108.277 81.1024 108.889 80.8047C109.517 80.4904 110.047 80.0107 110.477 79.3656L112.288 80.5069C111.775 81.4167 111.047 82.1197 110.104 82.616C109.178 83.0957 108.119 83.3355 106.928 83.3355Z" fill="#9D9D9E"/>
<path d="M122.224 69.9121C123.299 69.9121 124.242 70.1189 125.053 70.5324C125.88 70.946 126.525 71.5745 126.988 72.4181C127.451 73.2618 127.683 74.3287 127.683 75.6189V83.1866H125.301V75.8919C125.301 74.6182 124.986 73.6588 124.358 73.0136C123.746 72.3685 122.877 72.046 121.753 72.046C120.909 72.046 120.173 72.2114 119.544 72.5422C118.916 72.873 118.428 73.361 118.08 74.0061C117.75 74.6512 117.584 75.4535 117.584 76.4129V83.1866H115.202V64.776H117.584V73.5843L117.113 72.6415C117.543 71.7813 118.204 71.1114 119.098 70.6317C119.991 70.152 121.033 69.9121 122.224 69.9121Z" fill="#9D9D9E"/>
<path d="M137.947 83.3355C136.541 83.3355 135.3 83.046 134.225 82.4671C133.166 81.8881 132.339 81.0941 131.744 80.0851C131.165 79.0761 130.875 77.9182 130.875 76.6114C130.875 75.3046 131.156 74.1467 131.719 73.1377C132.298 72.1287 133.083 71.343 134.076 70.7805C135.085 70.2016 136.218 69.9121 137.475 69.9121C138.749 69.9121 139.874 70.1933 140.85 70.7557C141.826 71.3181 142.586 72.1121 143.132 73.1377C143.695 74.1467 143.976 75.3294 143.976 76.6858C143.976 76.7851 143.968 76.9009 143.951 77.0332C143.951 77.1655 143.943 77.2896 143.926 77.4054H132.736V75.6934H142.686L141.718 76.2888C141.735 75.4452 141.561 74.6926 141.197 74.0309C140.833 73.3693 140.329 72.8565 139.683 72.4926C139.055 72.1121 138.319 71.9219 137.475 71.9219C136.648 71.9219 135.912 72.1121 135.267 72.4926C134.622 72.8565 134.117 73.3775 133.753 74.0557C133.389 74.7174 133.207 75.4783 133.207 76.3385V76.7355C133.207 77.6122 133.406 78.3979 133.803 79.0926C134.217 79.7708 134.787 80.3001 135.515 80.6806C136.243 81.0611 137.078 81.2513 138.021 81.2513C138.799 81.2513 139.502 81.119 140.13 80.8543C140.775 80.5896 141.338 80.1926 141.817 79.6633L143.132 81.2017C142.537 81.8964 141.793 82.4257 140.899 82.7896C140.023 83.1536 139.038 83.3355 137.947 83.3355ZM137.078 68.1256L132.91 64.9001H135.937L139.311 68.1256H137.078Z" fill="#9D9D9E"/>
<path d="M151.799 83.3355C150.476 83.3355 149.45 82.9799 148.723 82.2686C147.995 81.5573 147.631 80.54 147.631 79.2167V67.158H150.013V79.1174C150.013 79.8287 150.187 80.3746 150.534 80.755C150.898 81.1355 151.411 81.3257 152.072 81.3257C152.817 81.3257 153.437 81.119 153.933 80.7054L154.678 82.4175C154.314 82.7317 153.875 82.9633 153.363 83.1122C152.866 83.2611 152.345 83.3355 151.799 83.3355ZM145.398 71.9963V70.0362H153.784V71.9963H145.398Z" fill="#9D9D9E"/>
<path d="M162.977 83.3355C161.571 83.3355 160.33 83.046 159.255 82.4671C158.196 81.8881 157.369 81.0941 156.774 80.0851C156.195 79.0761 155.905 77.9182 155.905 76.6114C155.905 75.3046 156.187 74.1467 156.749 73.1377C157.328 72.1287 158.114 71.343 159.106 70.7805C160.115 70.2016 161.248 69.9121 162.505 69.9121C163.779 69.9121 164.904 70.1933 165.88 70.7557C166.856 71.3181 167.617 72.1121 168.163 73.1377C168.725 74.1467 169.006 75.3294 169.006 76.6858C169.006 76.7851 168.998 76.9009 168.981 77.0332C168.981 77.1655 168.973 77.2896 168.957 77.4054H157.766V75.6934H167.716L166.748 76.2888C166.765 75.4452 166.591 74.6926 166.227 74.0309C165.863 73.3693 165.359 72.8565 164.714 72.4926C164.085 72.1121 163.349 71.9219 162.505 71.9219C161.678 71.9219 160.942 72.1121 160.297 72.4926C159.652 72.8565 159.148 73.3775 158.784 74.0557C158.42 74.7174 158.238 75.4783 158.238 76.3385V76.7355C158.238 77.6122 158.436 78.3979 158.833 79.0926C159.247 79.7708 159.817 80.3001 160.545 80.6806C161.273 81.0611 162.108 81.2513 163.051 81.2513C163.829 81.2513 164.532 81.119 165.16 80.8543C165.805 80.5896 166.368 80.1926 166.848 79.6633L168.163 81.2017C167.567 81.8964 166.823 82.4257 165.93 82.7896C165.053 83.1536 164.069 83.3355 162.977 83.3355Z" fill="#9D9D9E"/>
<path d="M179.325 83.1866V68.87C179.325 67.5798 179.697 66.5542 180.441 65.7933C181.202 65.0158 182.277 64.6271 183.667 64.6271C184.18 64.6271 184.668 64.6933 185.131 64.8256C185.61 64.9414 186.016 65.1316 186.346 65.3963L185.627 67.2076C185.379 67.0091 185.098 66.8602 184.783 66.761C184.469 66.6452 184.138 66.5873 183.791 66.5873C183.096 66.5873 182.567 66.7858 182.203 67.1828C181.839 67.5632 181.657 68.1339 181.657 68.8948V70.6565L181.707 71.7482V83.1866H179.325ZM177.092 71.9963V70.0362H185.478V71.9963H177.092Z" fill="#9D9D9E"/>
<path d="M195.645 83.1866V80.4077L195.521 79.8866V75.1475C195.521 74.1385 195.224 73.361 194.628 72.8151C194.049 72.2527 193.172 71.9715 191.998 71.9715C191.221 71.9715 190.46 72.1039 189.715 72.3685C188.971 72.6166 188.342 72.9557 187.83 73.3858L186.837 71.5993C187.515 71.0535 188.326 70.6399 189.269 70.3587C190.228 70.061 191.229 69.9121 192.271 69.9121C194.074 69.9121 195.463 70.3505 196.439 71.2272C197.415 72.1039 197.903 73.4437 197.903 75.2467V83.1866H195.645ZM191.328 83.3355C190.352 83.3355 189.492 83.1701 188.748 82.8393C188.02 82.5084 187.457 82.0535 187.06 81.4746C186.663 80.8791 186.465 80.2092 186.465 79.4648C186.465 78.7535 186.63 78.1084 186.961 77.5295C187.309 76.9505 187.863 76.4873 188.624 76.14C189.401 75.7926 190.443 75.6189 191.75 75.6189H195.918V77.331H191.849C190.658 77.331 189.856 77.5295 189.442 77.9265C189.029 78.3234 188.822 78.8031 188.822 79.3656C188.822 80.0107 189.078 80.5317 189.591 80.9287C190.104 81.3092 190.815 81.4994 191.725 81.4994C192.618 81.4994 193.396 81.3009 194.057 80.9039C194.736 80.5069 195.224 79.928 195.521 79.1671L195.993 80.8047C195.678 81.5821 195.124 82.2024 194.33 82.6656C193.536 83.1122 192.536 83.3355 191.328 83.3355Z" fill="#9D9D9E"/>
<path d="M208.043 83.3355C206.703 83.3355 205.504 83.046 204.445 82.4671C203.403 81.8881 202.584 81.0941 201.989 80.0851C201.393 79.0761 201.096 77.9182 201.096 76.6114C201.096 75.3046 201.393 74.1467 201.989 73.1377C202.584 72.1287 203.403 71.343 204.445 70.7805C205.504 70.2016 206.703 69.9121 208.043 69.9121C209.234 69.9121 210.293 70.152 211.219 70.6317C212.162 71.0948 212.89 71.7896 213.402 72.7159L211.591 73.8821C211.161 73.2369 210.632 72.7655 210.003 72.4678C209.391 72.1535 208.729 71.9963 208.018 71.9963C207.158 71.9963 206.389 72.1866 205.711 72.567C205.032 72.9475 204.495 73.4851 204.098 74.1798C203.701 74.858 203.502 75.6685 203.502 76.6114C203.502 77.5543 203.701 78.3731 204.098 79.0678C204.495 79.7626 205.032 80.3001 205.711 80.6806C206.389 81.0611 207.158 81.2513 208.018 81.2513C208.729 81.2513 209.391 81.1024 210.003 80.8047C210.632 80.4904 211.161 80.0107 211.591 79.3656L213.402 80.5069C212.89 81.4167 212.162 82.1197 211.219 82.616C210.293 83.0957 209.234 83.3355 208.043 83.3355Z" fill="#9D9D9E"/>
<path d="M216.317 83.1866V70.0362H218.699V83.1866H216.317ZM217.508 67.5053C217.044 67.5053 216.656 67.3565 216.341 67.0587C216.044 66.761 215.895 66.3971 215.895 65.967C215.895 65.5204 216.044 65.1482 216.341 64.8504C216.656 64.5527 217.044 64.4038 217.508 64.4038C217.971 64.4038 218.351 64.5527 218.649 64.8504C218.963 65.1316 219.12 65.4873 219.12 65.9174C219.12 66.364 218.972 66.7444 218.674 67.0587C218.376 67.3565 217.987 67.5053 217.508 67.5053Z" fill="#9D9D9E"/>
<path d="M223.247 83.1866V64.776H225.629V83.1866H223.247Z" fill="#9D9D9E"/>
<path d="M236.032 83.3355C234.626 83.3355 233.386 83.046 232.31 82.4671C231.252 81.8881 230.425 81.0941 229.829 80.0851C229.25 79.0761 228.961 77.9182 228.961 76.6114C228.961 75.3046 229.242 74.1467 229.804 73.1377C230.383 72.1287 231.169 71.343 232.162 70.7805C233.171 70.2016 234.304 69.9121 235.561 69.9121C236.835 69.9121 237.959 70.1933 238.935 70.7557C239.911 71.3181 240.672 72.1121 241.218 73.1377C241.78 74.1467 242.062 75.3294 242.062 76.6858C242.062 76.7851 242.053 76.9009 242.037 77.0332C242.037 77.1655 242.029 77.2896 242.012 77.4054H230.822V75.6934H240.771L239.804 76.2888C239.82 75.4452 239.647 74.6926 239.283 74.0309C238.919 73.3693 238.414 72.8565 237.769 72.4926C237.141 72.1121 236.404 71.9219 235.561 71.9219C234.734 71.9219 233.998 72.1121 233.353 72.4926C232.707 72.8565 232.203 73.3775 231.839 74.0557C231.475 74.7174 231.293 75.4783 231.293 76.3385V76.7355C231.293 77.6122 231.492 78.3979 231.889 79.0926C232.302 79.7708 232.873 80.3001 233.601 80.6806C234.329 81.0611 235.164 81.2513 236.107 81.2513C236.884 81.2513 237.587 81.119 238.216 80.8543C238.861 80.5896 239.423 80.1926 239.903 79.6633L241.218 81.2017C240.623 81.8964 239.878 82.4257 238.985 82.7896C238.108 83.1536 237.124 83.3355 236.032 83.3355Z" fill="#9D9D9E"/>
<path d="M244.426 86.8588L245.667 81.8468L245.99 83.2859C245.51 83.2859 245.105 83.137 244.774 82.8393C244.459 82.5415 244.302 82.1363 244.302 81.6235C244.302 81.1272 244.459 80.722 244.774 80.4077C245.105 80.0934 245.502 79.9362 245.965 79.9362C246.444 79.9362 246.833 80.1017 247.131 80.4325C247.429 80.7468 247.578 81.1438 247.578 81.6235C247.578 81.7889 247.561 81.9543 247.528 82.1197C247.511 82.2686 247.47 82.4505 247.404 82.6656C247.354 82.8641 247.271 83.1122 247.156 83.4099L245.99 86.8588H244.426Z" fill="#9D9D9E"/>
<path d="M261.103 83.1866L255.347 70.0362H257.828L262.939 81.946H261.748L266.959 70.0362H269.291L263.535 83.1866H261.103Z" fill="#9D9D9E"/>
<path d="M277.006 83.3355C275.6 83.3355 274.36 83.046 273.285 82.4671C272.226 81.8881 271.399 81.0941 270.803 80.0851C270.224 79.0761 269.935 77.9182 269.935 76.6114C269.935 75.3046 270.216 74.1467 270.778 73.1377C271.357 72.1287 272.143 71.343 273.136 70.7805C274.145 70.2016 275.278 69.9121 276.535 69.9121C277.809 69.9121 278.933 70.1933 279.909 70.7557C280.885 71.3181 281.646 72.1121 282.192 73.1377C282.754 74.1467 283.036 75.3294 283.036 76.6858C283.036 76.7851 283.027 76.9009 283.011 77.0332C283.011 77.1655 283.003 77.2896 282.986 77.4054H271.796V75.6934H281.745L280.778 76.2888C280.794 75.4452 280.621 74.6926 280.257 74.0309C279.893 73.3693 279.388 72.8565 278.743 72.4926C278.115 72.1121 277.378 71.9219 276.535 71.9219C275.708 71.9219 274.972 72.1121 274.327 72.4926C273.681 72.8565 273.177 73.3775 272.813 74.0557C272.449 74.7174 272.267 75.4783 272.267 76.3385V76.7355C272.267 77.6122 272.466 78.3979 272.863 79.0926C273.276 79.7708 273.847 80.3001 274.575 80.6806C275.303 81.0611 276.138 81.2513 277.081 81.2513C277.858 81.2513 278.561 81.119 279.19 80.8543C279.835 80.5896 280.397 80.1926 280.877 79.6633L282.192 81.2017C281.597 81.8964 280.852 82.4257 279.959 82.7896C279.082 83.1536 278.098 83.3355 277.006 83.3355Z" fill="#9D9D9E"/>
<path d="M293.365 69.9121C294.44 69.9121 295.383 70.1189 296.194 70.5324C297.021 70.946 297.666 71.5745 298.129 72.4181C298.592 73.2618 298.824 74.3287 298.824 75.6189V83.1866H296.442V75.8919C296.442 74.6182 296.128 73.6588 295.499 73.0136C294.887 72.3685 294.018 72.046 292.894 72.046C292.05 72.046 291.314 72.2114 290.685 72.5422C290.057 72.873 289.569 73.361 289.221 74.0061C288.891 74.6512 288.725 75.4535 288.725 76.4129V83.1866H286.343V70.0362H288.626V73.5843L288.254 72.6415C288.684 71.7813 289.346 71.1114 290.239 70.6317C291.132 70.152 292.174 69.9121 293.365 69.9121Z" fill="#9D9D9E"/>
<path d="M308.666 83.3355C307.392 83.3355 306.251 83.0543 305.242 82.4919C304.249 81.9295 303.464 81.1438 302.885 80.1347C302.306 79.1257 302.016 77.9513 302.016 76.6114C302.016 75.2715 302.306 74.1054 302.885 73.1129C303.464 72.1039 304.249 71.3181 305.242 70.7557C306.251 70.1933 307.392 69.9121 308.666 69.9121C309.774 69.9121 310.775 70.1602 311.668 70.6565C312.561 71.1527 313.273 71.8971 313.802 72.8896C314.348 73.8821 314.621 75.1227 314.621 76.6114C314.621 78.1001 314.356 79.3407 313.827 80.3332C313.314 81.3257 312.611 82.0784 311.718 82.5911C310.825 83.0874 309.807 83.3355 308.666 83.3355ZM308.864 81.2513C309.691 81.2513 310.436 81.0611 311.097 80.6806C311.776 80.3001 312.305 79.7626 312.685 79.0678C313.082 78.3565 313.281 77.5377 313.281 76.6114C313.281 75.6685 313.082 74.858 312.685 74.1798C312.305 73.4851 311.776 72.9475 311.097 72.567C310.436 72.1866 309.691 71.9963 308.864 71.9963C308.021 71.9963 307.268 72.1866 306.606 72.567C305.945 72.9475 305.415 73.4851 305.019 74.1798C304.622 74.858 304.423 75.6685 304.423 76.6114C304.423 77.5377 304.622 78.3565 305.019 79.0678C305.415 79.7626 305.945 80.3001 306.606 80.6806C307.268 81.0611 308.021 81.2513 308.864 81.2513ZM313.355 83.1866V79.6385L313.504 76.5866L313.256 73.5347V64.776H315.638V83.1866H313.355Z" fill="#9D9D9E"/>
<path d="M323.916 83.3355C322.825 83.3355 321.783 83.1866 320.79 82.8889C319.814 82.5911 319.045 82.2272 318.483 81.7972L319.475 79.9114C320.037 80.2919 320.732 80.6144 321.559 80.8791C322.386 81.1438 323.23 81.2761 324.09 81.2761C325.198 81.2761 325.992 81.119 326.472 80.8047C326.968 80.4904 327.216 80.052 327.216 79.4896C327.216 79.0761 327.068 78.7535 326.77 78.5219C326.472 78.2904 326.075 78.1167 325.579 78.0009C325.099 77.8851 324.562 77.7858 323.966 77.7031C323.371 77.6039 322.775 77.4881 322.18 77.3558C321.584 77.2069 321.038 77.0084 320.542 76.7603C320.046 76.4956 319.649 76.14 319.351 75.6934C319.053 75.2302 318.904 74.6182 318.904 73.8573C318.904 73.0633 319.128 72.3685 319.574 71.773C320.021 71.1775 320.65 70.7226 321.46 70.4084C322.287 70.0775 323.263 69.9121 324.388 69.9121C325.248 69.9121 326.116 70.0196 326.993 70.2347C327.886 70.4332 328.614 70.7226 329.177 71.1031L328.159 72.9888C327.564 72.5918 326.944 72.3189 326.298 72.17C325.653 72.0212 325.008 71.9467 324.363 71.9467C323.321 71.9467 322.544 72.1204 322.031 72.4678C321.518 72.7986 321.262 73.2287 321.262 73.758C321.262 74.2046 321.41 74.552 321.708 74.8001C322.022 75.0317 322.419 75.2137 322.899 75.346C323.395 75.4783 323.941 75.5941 324.537 75.6934C325.132 75.7761 325.728 75.8919 326.323 76.0407C326.919 76.1731 327.456 76.3633 327.936 76.6114C328.432 76.8595 328.829 77.2069 329.127 77.6535C329.441 78.1001 329.598 78.6956 329.598 79.44C329.598 80.234 329.367 80.9205 328.904 81.4994C328.441 82.0784 327.787 82.5332 326.944 82.8641C326.1 83.1784 325.091 83.3355 323.916 83.3355Z" fill="#9D9D9E"/>
<path d="M339.239 83.1866V70.0362H341.521V73.6091L341.298 72.7159C341.662 71.8061 342.274 71.1114 343.134 70.6317C343.994 70.152 345.053 69.9121 346.31 69.9121V72.2196C346.211 72.2031 346.112 72.1948 346.012 72.1948C345.93 72.1948 345.847 72.1948 345.764 72.1948C344.491 72.1948 343.482 72.5753 342.737 73.3362C341.993 74.0971 341.621 75.1971 341.621 76.6362V83.1866H339.239Z" fill="#9D9D9E"/>
<path d="M356.44 83.1866V80.4077L356.316 79.8866V75.1475C356.316 74.1385 356.018 73.361 355.423 72.8151C354.844 72.2527 353.967 71.9715 352.793 71.9715C352.015 71.9715 351.254 72.1039 350.51 72.3685C349.766 72.6166 349.137 72.9557 348.624 73.3858L347.632 71.5993C348.31 71.0535 349.12 70.6399 350.063 70.3587C351.023 70.061 352.023 69.9121 353.066 69.9121C354.869 69.9121 356.258 70.3505 357.234 71.2272C358.21 72.1039 358.698 73.4437 358.698 75.2467V83.1866H356.44ZM352.123 83.3355C351.147 83.3355 350.287 83.1701 349.542 82.8393C348.814 82.5084 348.252 82.0535 347.855 81.4746C347.458 80.8791 347.26 80.2092 347.26 79.4648C347.26 78.7535 347.425 78.1084 347.756 77.5295C348.103 76.9505 348.657 76.4873 349.418 76.14C350.196 75.7926 351.238 75.6189 352.544 75.6189H356.713V77.331H352.644C351.453 77.331 350.651 77.5295 350.237 77.9265C349.823 78.3234 349.617 78.8031 349.617 79.3656C349.617 80.0107 349.873 80.5317 350.386 80.9287C350.899 81.3092 351.61 81.4994 352.52 81.4994C353.413 81.4994 354.19 81.3009 354.852 80.9039C355.53 80.5069 356.018 79.928 356.316 79.1671L356.787 80.8047C356.473 81.5821 355.919 82.2024 355.125 82.6656C354.331 83.1122 353.33 83.3355 352.123 83.3355Z" fill="#9D9D9E"/>
<path d="M370.078 83.3355C368.986 83.3355 367.986 83.0874 367.076 82.5911C366.183 82.0784 365.463 81.3257 364.917 80.3332C364.388 79.3407 364.123 78.1001 364.123 76.6114C364.123 75.1227 364.38 73.8821 364.892 72.8896C365.422 71.8971 366.133 71.1527 367.026 70.6565C367.936 70.1602 368.953 69.9121 370.078 69.9121C371.368 69.9121 372.51 70.1933 373.502 70.7557C374.495 71.3181 375.28 72.1039 375.859 73.1129C376.438 74.1054 376.728 75.2715 376.728 76.6114C376.728 77.9513 376.438 79.1257 375.859 80.1347C375.28 81.1438 374.495 81.9295 373.502 82.4919C372.51 83.0543 371.368 83.3355 370.078 83.3355ZM363.106 88.0002V70.0362H365.389V73.5843L365.24 76.6362L365.488 79.6881V88.0002H363.106ZM369.88 81.2513C370.723 81.2513 371.476 81.0611 372.138 80.6806C372.816 80.3001 373.345 79.7626 373.726 79.0678C374.123 78.3565 374.321 77.5377 374.321 76.6114C374.321 75.6685 374.123 74.858 373.726 74.1798C373.345 73.4851 372.816 72.9475 372.138 72.567C371.476 72.1866 370.723 71.9963 369.88 71.9963C369.053 71.9963 368.3 72.1866 367.622 72.567C366.96 72.9475 366.431 73.4851 366.034 74.1798C365.653 74.858 365.463 75.6685 365.463 76.6114C365.463 77.5377 365.653 78.3565 366.034 79.0678C366.431 79.7626 366.96 80.3001 367.622 80.6806C368.3 81.0611 369.053 81.2513 369.88 81.2513Z" fill="#9D9D9E"/>
<path d="M380.019 83.1866V70.0362H382.401V83.1866H380.019ZM381.21 67.5053C380.747 67.5053 380.358 67.3565 380.044 67.0587C379.746 66.761 379.597 66.3971 379.597 65.967C379.597 65.5204 379.746 65.1482 380.044 64.8504C380.358 64.5527 380.747 64.4038 381.21 64.4038C381.673 64.4038 382.054 64.5527 382.351 64.8504C382.666 65.1316 382.823 65.4873 382.823 65.9174C382.823 66.364 382.674 66.7444 382.376 67.0587C382.078 67.3565 381.69 67.5053 381.21 67.5053Z" fill="#9D9D9E"/>
<path d="M392.383 83.3355C391.109 83.3355 389.968 83.0543 388.959 82.4919C387.966 81.9295 387.18 81.1438 386.602 80.1347C386.023 79.1257 385.733 77.9513 385.733 76.6114C385.733 75.2715 386.023 74.1054 386.602 73.1129C387.18 72.1039 387.966 71.3181 388.959 70.7557C389.968 70.1933 391.109 69.9121 392.383 69.9121C393.491 69.9121 394.492 70.1602 395.385 70.6565C396.278 71.1527 396.99 71.8971 397.519 72.8896C398.065 73.8821 398.338 75.1227 398.338 76.6114C398.338 78.1001 398.073 79.3407 397.544 80.3332C397.031 81.3257 396.328 82.0784 395.435 82.5911C394.541 83.0874 393.524 83.3355 392.383 83.3355ZM392.581 81.2513C393.408 81.2513 394.153 81.0611 394.814 80.6806C395.493 80.3001 396.022 79.7626 396.402 79.0678C396.799 78.3565 396.998 77.5377 396.998 76.6114C396.998 75.6685 396.799 74.858 396.402 74.1798C396.022 73.4851 395.493 72.9475 394.814 72.567C394.153 72.1866 393.408 71.9963 392.581 71.9963C391.738 71.9963 390.985 72.1866 390.323 72.567C389.662 72.9475 389.132 73.4851 388.735 74.1798C388.338 74.858 388.14 75.6685 388.14 76.6114C388.14 77.5377 388.338 78.3565 388.735 79.0678C389.132 79.7626 389.662 80.3001 390.323 80.6806C390.985 81.0611 391.738 81.2513 392.581 81.2513ZM397.072 83.1866V79.6385L397.221 76.5866L396.973 73.5347V64.776H399.355V83.1866H397.072Z" fill="#9D9D9E"/>
<path d="M409.718 83.3355C408.312 83.3355 407.071 83.046 405.996 82.4671C404.937 81.8881 404.11 81.0941 403.515 80.0851C402.936 79.0761 402.646 77.9182 402.646 76.6114C402.646 75.3046 402.927 74.1467 403.49 73.1377C404.069 72.1287 404.854 71.343 405.847 70.7805C406.856 70.2016 407.989 69.9121 409.246 69.9121C410.52 69.9121 411.645 70.1933 412.621 70.7557C413.597 71.3181 414.357 72.1121 414.903 73.1377C415.466 74.1467 415.747 75.3294 415.747 76.6858C415.747 76.7851 415.739 76.9009 415.722 77.0332C415.722 77.1655 415.714 77.2896 415.697 77.4054H404.507V75.6934H414.457L413.489 76.2888C413.506 75.4452 413.332 74.6926 412.968 74.0309C412.604 73.3693 412.1 72.8565 411.454 72.4926C410.826 72.1121 410.09 71.9219 409.246 71.9219C408.419 71.9219 407.683 72.1121 407.038 72.4926C406.393 72.8565 405.888 73.3775 405.524 74.0557C405.16 74.7174 404.978 75.4783 404.978 76.3385V76.7355C404.978 77.6122 405.177 78.3979 405.574 79.0926C405.988 79.7708 406.558 80.3001 407.286 80.6806C408.014 81.0611 408.849 81.2513 409.792 81.2513C410.569 81.2513 411.272 81.119 411.901 80.8543C412.546 80.5896 413.109 80.1926 413.588 79.6633L414.903 81.2017C414.308 81.8964 413.563 82.4257 412.67 82.7896C411.794 83.1536 410.809 83.3355 409.718 83.3355Z" fill="#9D9D9E"/>
<path d="M425.842 77.7031L425.395 65.8181H428.199L427.728 77.7031H425.842ZM426.81 83.3355C426.347 83.3355 425.958 83.1784 425.644 82.8641C425.329 82.5498 425.172 82.1776 425.172 81.7475C425.172 81.2844 425.329 80.9039 425.644 80.6062C425.958 80.3084 426.347 80.1595 426.81 80.1595C427.273 80.1595 427.653 80.3084 427.951 80.6062C428.249 80.9039 428.398 81.2844 428.398 81.7475C428.398 82.1776 428.249 82.5498 427.951 82.8641C427.653 83.1784 427.273 83.3355 426.81 83.3355Z" fill="#9D9D9E"/>
</svg>
