<svg width="335" height="88" viewBox="0 0 335 88" fill="none" xmlns="http://www.w3.org/2000/svg">
<path d="M0.0429688 0V64.155L15.4251 57.3421V26.1162L42.2014 39.7421L83.7902 18.1678V0L42.2014 22.7098L0.0429688 0Z" fill="#9D9D9E"/>
<path d="M0.0429688 69.8322V87.4323L42.2014 66.4257L84.3599 88L83.7902 23.845L68.9777 31.7934V61.8838L42.2014 48.8257L0.0429688 69.8322Z" fill="#9D9D9E"/>
<path d="M95.1713 32.2682V0H101.348L115.085 22.7721H111.813L125.319 0H131.45L131.542 32.2682H124.535L124.489 10.7407H125.78L114.993 28.857H111.628L100.611 10.7407H102.178V32.2682H95.1713Z" fill="#9D9D9E"/>
<path d="M153.903 32.2682V27.428L153.442 26.3677V17.7014C153.442 16.1648 152.966 14.9663 152.013 14.1058C151.091 13.2453 149.662 12.8151 147.726 12.8151C146.405 12.8151 145.098 13.0302 143.808 13.4605C142.548 13.86 141.472 14.4131 140.581 15.12L137.999 10.0953C139.352 9.14266 140.98 8.4051 142.886 7.88266C144.791 7.36023 146.727 7.09901 148.694 7.09901C152.474 7.09901 155.409 7.99023 157.499 9.77266C159.588 11.5551 160.633 14.3363 160.633 18.1163V32.2682H153.903ZM146.343 32.637C144.407 32.637 142.747 32.3143 141.365 31.669C139.982 30.9929 138.921 30.0863 138.184 28.9492C137.446 27.8121 137.078 26.5368 137.078 25.1231C137.078 23.648 137.431 22.3573 138.138 21.2509C138.875 20.1446 140.028 19.2841 141.595 18.6695C143.162 18.0241 145.206 17.7014 147.726 17.7014H154.318V21.8963H148.51C146.819 21.8963 145.652 22.1729 145.006 22.726C144.392 23.2792 144.084 23.9707 144.084 24.8004C144.084 25.7224 144.438 26.4599 145.145 27.0131C145.882 27.5355 146.881 27.7968 148.141 27.7968C149.339 27.7968 150.415 27.5202 151.368 26.967C152.32 26.3831 153.012 25.538 153.442 24.4317L154.548 27.7507C154.026 29.3487 153.073 30.5626 151.69 31.3924C150.307 32.2221 148.525 32.637 146.343 32.637Z" fill="#9D9D9E"/>
<path d="M167.142 32.2682V7.46779H174.01V14.4746L173.042 12.4463C173.78 10.6946 174.963 9.37315 176.592 8.48193C178.22 7.55998 180.203 7.09901 182.538 7.09901V13.737C182.231 13.7063 181.954 13.6909 181.708 13.6909C181.463 13.6602 181.201 13.6448 180.925 13.6448C178.958 13.6448 177.36 14.2134 176.131 15.3505C174.932 16.4568 174.333 18.1931 174.333 20.5595V32.2682H167.142Z" fill="#9D9D9E"/>
<path d="M201.518 32.637C199.428 32.637 197.6 32.176 196.033 31.2541C194.465 30.3321 193.236 28.9338 192.345 27.0592C191.484 25.1538 191.054 22.7568 191.054 19.868C191.054 16.9485 191.469 14.5514 192.299 12.6768C193.128 10.8022 194.327 9.40388 195.894 8.48193C197.462 7.55998 199.336 7.09901 201.518 7.09901C203.854 7.09901 205.944 7.63681 207.787 8.71242C209.662 9.75729 211.137 11.2324 212.213 13.1378C213.319 15.0431 213.872 17.2865 213.872 19.868C213.872 22.4802 213.319 24.739 212.213 26.6443C211.137 28.5497 209.662 30.0248 207.787 31.0697C205.944 32.1146 203.854 32.637 201.518 32.637ZM186.859 41.2111V7.46779H193.728V12.5385L193.589 19.9141L194.05 27.2436V41.2111H186.859ZM200.274 26.7365C201.472 26.7365 202.532 26.4599 203.454 25.9068C204.407 25.3536 205.16 24.5699 205.713 23.5558C206.297 22.5109 206.589 21.2817 206.589 19.868C206.589 18.4236 206.297 17.1944 205.713 16.1802C205.16 15.1661 204.407 14.3824 203.454 13.8292C202.532 13.2761 201.472 12.9995 200.274 12.9995C199.075 12.9995 197.999 13.2761 197.047 13.8292C196.094 14.3824 195.341 15.1661 194.788 16.1802C194.235 17.1944 193.958 18.4236 193.958 19.868C193.958 21.2817 194.235 22.5109 194.788 23.5558C195.341 24.5699 196.094 25.3536 197.047 25.9068C197.999 26.4599 199.075 26.7365 200.274 26.7365Z" fill="#9D9D9E"/>
<path d="M230.994 32.637C228.167 32.637 225.678 32.0838 223.526 30.9775C221.406 29.8712 219.762 28.3653 218.594 26.4599C217.426 24.5238 216.842 22.3265 216.842 19.868C216.842 17.3787 217.411 15.1814 218.548 13.2761C219.716 11.34 221.298 9.83412 223.296 8.75852C225.294 7.65218 227.552 7.09901 230.072 7.09901C232.5 7.09901 234.682 7.62145 236.618 8.66632C238.585 9.68047 240.137 11.1556 241.274 13.0917C242.411 14.997 242.98 17.2865 242.98 19.9602C242.98 20.2368 242.964 20.5595 242.933 20.9282C242.903 21.2663 242.872 21.589 242.841 21.8963H222.697V17.7014H239.061L236.295 18.9461C236.295 17.6553 236.034 16.5336 235.512 15.5809C234.989 14.6283 234.267 13.8907 233.345 13.3683C232.423 12.8151 231.348 12.5385 230.118 12.5385C228.889 12.5385 227.798 12.8151 226.845 13.3683C225.924 13.8907 225.201 14.6436 224.679 15.627C224.156 16.5797 223.895 17.7168 223.895 19.0382V20.1446C223.895 21.4968 224.187 22.6953 224.771 23.7402C225.386 24.7543 226.231 25.538 227.306 26.0912C228.413 26.6136 229.703 26.8748 231.179 26.8748C232.5 26.8748 233.653 26.6751 234.636 26.2756C235.65 25.876 236.572 25.2768 237.402 24.4777L241.228 28.6265C240.091 29.9172 238.662 30.916 236.941 31.6229C235.22 32.299 233.238 32.637 230.994 32.637Z" fill="#9D9D9E"/>
<path d="M102.916 78.6883L92.3594 46.4201H100.104L109.277 75.0005H105.405L114.993 46.4201H121.908L131.127 75.0005H127.393L136.797 46.4201H143.942L133.386 78.6883H125.365L117.206 53.6113H119.326L110.937 78.6883H102.916Z" fill="#9D9D9E"/>
<path d="M158.067 79.0571C155.239 79.0571 152.75 78.5039 150.599 77.3976C148.478 76.2912 146.834 74.7854 145.666 72.88C144.499 70.9439 143.915 68.7466 143.915 66.2881C143.915 63.7988 144.483 61.6015 145.62 59.6962C146.788 57.7601 148.371 56.2542 150.368 55.1786C152.366 54.0723 154.625 53.5191 157.145 53.5191C159.572 53.5191 161.754 54.0415 163.691 55.0864C165.657 56.1006 167.209 57.5757 168.346 59.5118C169.483 61.4171 170.052 63.7066 170.052 66.3803C170.052 66.6569 170.037 66.9796 170.006 67.3483C169.975 67.6864 169.944 68.0091 169.914 68.3164H149.769V64.1215H166.134L163.368 65.3661C163.368 64.0754 163.107 62.9537 162.584 62.001C162.062 61.0484 161.34 60.3108 160.418 59.7884C159.496 59.2352 158.42 58.9586 157.191 58.9586C155.961 58.9586 154.871 59.2352 153.918 59.7884C152.996 60.3108 152.274 61.0637 151.751 62.0471C151.229 62.9998 150.968 64.1369 150.968 65.4583V66.5647C150.968 67.9169 151.26 69.1154 151.843 70.1603C152.458 71.1744 153.303 71.9581 154.379 72.5112C155.485 73.0337 156.776 73.2949 158.251 73.2949C159.572 73.2949 160.725 73.0952 161.708 72.6956C162.722 72.2961 163.644 71.6969 164.474 70.8978L168.3 75.0466C167.163 76.3373 165.734 77.3361 164.013 78.0429C162.292 78.719 160.31 79.0571 158.067 79.0571Z" fill="#9D9D9E"/>
<path d="M174.84 78.6883V44.484H182.031V78.6883H174.84Z" fill="#9D9D9E"/>
<path d="M188.705 78.6883V44.484H195.896V78.6883H188.705Z" fill="#9D9D9E"/>
<path d="M217.229 79.0571C215.047 79.0571 213.173 78.5961 211.605 77.6742C210.038 76.7522 208.839 75.3539 208.01 73.4793C207.18 71.5739 206.765 69.1769 206.765 66.2881C206.765 63.3686 207.195 60.9715 208.056 59.0969C208.947 57.2223 210.176 55.824 211.743 54.902C213.311 53.9801 215.139 53.5191 217.229 53.5191C219.565 53.5191 221.654 54.0415 223.498 55.0864C225.373 56.1313 226.848 57.6064 227.924 59.5118C229.03 61.4171 229.583 63.6759 229.583 66.2881C229.583 68.8696 229.03 71.113 227.924 73.0183C226.848 74.9237 225.373 76.4142 223.498 77.4898C221.654 78.5347 219.565 79.0571 217.229 79.0571ZM202.57 78.6883V44.484H209.761V58.9125L209.3 66.242L209.439 73.6176V78.6883H202.57ZM215.984 73.1566C217.183 73.1566 218.243 72.88 219.165 72.3269C220.118 71.7737 220.871 70.99 221.424 69.9759C222.008 68.931 222.3 67.7017 222.3 66.2881C222.3 64.8437 222.008 63.6144 221.424 62.6003C220.871 61.5862 220.118 60.8025 219.165 60.2493C218.243 59.6962 217.183 59.4196 215.984 59.4196C214.786 59.4196 213.71 59.6962 212.758 60.2493C211.805 60.8025 211.052 61.5862 210.499 62.6003C209.946 63.6144 209.669 64.8437 209.669 66.2881C209.669 67.7017 209.946 68.931 210.499 69.9759C211.052 70.99 211.805 71.7737 212.758 72.3269C213.71 72.88 214.786 73.1566 215.984 73.1566Z" fill="#9D9D9E"/>
<path d="M246.705 79.0571C243.878 79.0571 241.389 78.5039 239.237 77.3976C237.117 76.2912 235.473 74.7854 234.305 72.88C233.137 70.9439 232.553 68.7466 232.553 66.2881C232.553 63.7988 233.122 61.6015 234.259 59.6962C235.427 57.7601 237.009 56.2542 239.007 55.1786C241.004 54.0723 243.263 53.5191 245.783 53.5191C248.211 53.5191 250.393 54.0415 252.329 55.0864C254.296 56.1006 255.848 57.5757 256.985 59.5118C258.122 61.4171 258.691 63.7066 258.691 66.3803C258.691 66.6569 258.675 66.9796 258.644 67.3483C258.614 67.6864 258.583 68.0091 258.552 68.3164H238.408V64.1215H254.772L252.006 65.3661C252.006 64.0754 251.745 62.9537 251.223 62.001C250.7 61.0484 249.978 60.3108 249.056 59.7884C248.134 59.2352 247.059 58.9586 245.829 58.9586C244.6 58.9586 243.509 59.2352 242.556 59.7884C241.634 60.3108 240.912 61.0637 240.39 62.0471C239.867 62.9998 239.606 64.1369 239.606 65.4583V66.5647C239.606 67.9169 239.898 69.1154 240.482 70.1603C241.097 71.1744 241.942 71.9581 243.017 72.5112C244.124 73.0337 245.414 73.2949 246.89 73.2949C248.211 73.2949 249.363 73.0952 250.347 72.6956C251.361 72.2961 252.283 71.6969 253.113 70.8978L256.939 75.0466C255.802 76.3373 254.373 77.3361 252.652 78.0429C250.931 78.719 248.949 79.0571 246.705 79.0571Z" fill="#9D9D9E"/>
<path d="M263.478 78.6883V53.8879H270.669V78.6883H263.478ZM267.074 50.4306C265.752 50.4306 264.677 50.0464 263.847 49.2781C263.017 48.5098 262.602 47.5572 262.602 46.4201C262.602 45.283 263.017 44.3303 263.847 43.562C264.677 42.7938 265.752 42.4096 267.074 42.4096C268.395 42.4096 269.471 42.7784 270.301 43.5159C271.13 44.2228 271.545 45.1447 271.545 46.2818C271.545 47.4803 271.13 48.4791 270.301 49.2781C269.502 50.0464 268.426 50.4306 267.074 50.4306Z" fill="#9D9D9E"/>
<path d="M292.417 53.5191C294.384 53.5191 296.136 53.9186 297.672 54.7176C299.24 55.4859 300.469 56.6845 301.36 58.3132C302.251 59.9113 302.697 61.9703 302.697 64.4903V78.6883H295.506V65.5966C295.506 63.5991 295.06 62.124 294.169 61.1713C293.309 60.2186 292.079 59.7423 290.481 59.7423C289.344 59.7423 288.315 59.9881 287.393 60.4798C286.501 60.9408 285.795 61.663 285.272 62.6464C284.78 63.6298 284.535 64.8898 284.535 66.4264V78.6883H277.343V53.8879H284.212V60.7564L282.921 58.682C283.812 57.0225 285.088 55.7471 286.747 54.8559C288.407 53.9647 290.297 53.5191 292.417 53.5191Z" fill="#9D9D9E"/>
<path d="M321.058 88C318.723 88 316.464 87.708 314.282 87.1241C312.131 86.571 310.333 85.7259 308.888 84.5888L311.747 79.4259C312.791 80.2864 314.113 80.9624 315.711 81.4542C317.34 81.9766 318.938 82.2378 320.505 82.2378C323.056 82.2378 324.9 81.6693 326.037 80.5322C327.205 79.3951 327.788 77.7049 327.788 75.4615V71.7276L328.249 65.5044L328.157 59.2352V53.8879H334.98V74.5395C334.98 79.1493 333.781 82.5451 331.384 84.7271C328.987 86.909 325.545 88 321.058 88ZM319.952 77.4898C317.647 77.4898 315.557 76.9981 313.683 76.0147C311.839 75.0005 310.348 73.6022 309.211 71.8198C308.105 70.0066 307.552 67.9015 307.552 65.5044C307.552 63.0766 308.105 60.9715 309.211 59.1891C310.348 57.3759 311.839 55.9776 313.683 54.9942C315.557 54.0108 317.647 53.5191 319.952 53.5191C322.042 53.5191 323.886 53.9493 325.484 54.8098C327.082 55.6396 328.326 56.9457 329.217 58.7281C330.109 60.4798 330.554 62.7386 330.554 65.5044C330.554 68.2395 330.109 70.4983 329.217 72.2808C328.326 74.0325 327.082 75.3386 325.484 76.1991C323.886 77.0595 322.042 77.4898 319.952 77.4898ZM321.381 71.5893C322.641 71.5893 323.763 71.3434 324.746 70.8517C325.729 70.3293 326.498 69.6071 327.051 68.6852C327.604 67.7632 327.881 66.703 327.881 65.5044C327.881 64.2752 327.604 63.2149 327.051 62.3237C326.498 61.4018 325.729 60.6949 324.746 60.2032C323.763 59.6808 322.641 59.4196 321.381 59.4196C320.121 59.4196 318.999 59.6808 318.016 60.2032C317.032 60.6949 316.249 61.4018 315.665 62.3237C315.112 63.2149 314.835 64.2752 314.835 65.5044C314.835 66.703 315.112 67.7632 315.665 68.6852C316.249 69.6071 317.032 70.3293 318.016 70.8517C318.999 71.3434 320.121 71.5893 321.381 71.5893Z" fill="#9D9D9E"/>
</svg>
