<svg width="244" height="88" viewBox="0 0 244 88" fill="none" xmlns="http://www.w3.org/2000/svg">
<g clip-path="url(#clip0_7716_51301)">
<path d="M210.345 10.0896V6.41458L213.218 5.88003C213.419 6.34776 213.82 6.94912 214.154 7.48367C214.421 8.08504 214.755 8.75322 214.956 9.35459C214.154 9.82232 211.347 10.1564 210.345 10.0896ZM221.303 7.95141C221.571 7.61732 223.241 6.41458 223.776 6.08049C224.444 6.41458 227.183 9.35459 227.451 10.1564C226.649 10.691 224.778 11.8269 223.843 12.0942C223.375 11.2255 221.905 8.48596 221.303 7.95141ZM214.154 5.47912L216.092 4.41003C216.76 4.6773 219.366 7.14958 219.633 7.68413C219.165 8.01822 216.559 9.15414 215.891 9.22096L214.154 5.47912ZM216.96 3.67502C217.161 3.34093 217.695 2.73956 218.096 2.53911C219.7 2.94002 221.771 4.6773 222.974 5.34548C222.773 5.67957 221.036 6.88231 220.502 7.01594C219.967 6.54821 219.366 5.74639 218.764 5.34548C218.23 4.87775 217.495 4.20957 216.96 3.67502ZM199.988 5.94685C200.256 6.21413 200.59 6.34776 201.057 6.41458C204.933 3.27411 202.327 4.3432 205.534 5.47912C205.267 6.28094 204.398 7.41686 204.198 8.08504L204.933 8.61959L206.336 6.01367L209.009 6.48139C209.276 6.8823 209.142 7.68413 209.142 8.21868C209.142 8.82004 209.142 9.48823 209.142 10.1564L206.403 10.0228L207.004 10.9582L209.142 11.1587V17.9074H210.078L210.145 16.3037C211.08 16.2369 212.082 16.1701 212.951 16.0364C213.686 15.9696 214.354 16.1701 215.089 14.9005L210.078 15.3014V11.0251C211.013 10.9582 211.882 10.9582 212.684 10.7578C213.285 10.6241 214.622 10.4237 215.156 10.4237L216.359 14.1655L217.227 13.8314L216.025 10.0228C217.562 9.62186 218.764 8.75323 219.967 8.41914C220.568 8.75323 222.439 11.6932 222.573 12.5619C222.038 12.7623 221.37 12.9628 220.903 13.2301C221.972 13.4305 221.771 13.6978 223.041 13.4305C223.442 13.8983 223.241 14.0319 224.578 14.4328L223.976 12.9628L227.785 10.8246C230.725 15.9696 232.195 21.1815 230.725 27.4624C230.391 28.7988 229.99 30.1352 229.455 31.3379C228.453 33.4761 227.05 35.8815 225.446 37.552C224.912 38.0865 223.375 39.6902 222.707 40.0243C221.771 39.6234 221.036 38.8884 220.502 38.1534C219.967 37.4184 219.767 36.7502 219.767 35.8147C219.767 35.6811 219.767 35.4138 219.767 35.2802L219.833 35.0797C220.168 34.2111 222.105 35.4806 225.379 33.3424C226.716 32.4738 227.985 31.4047 228.854 29.7342C232.93 21.8497 225.647 13.0296 218.297 14.8337C214.822 15.7023 214.287 18.2415 212.082 19.1101C210.479 19.7115 208.14 18.776 208.942 20.7806C209.41 21.9165 208.875 21.7828 208.608 21.8496C207.806 22.1837 208.341 22.3842 208.14 23.1192C207.94 23.7206 207.539 23.3865 207.138 23.921C207.004 24.4556 207.205 24.4556 207.071 24.9233C206.937 25.391 205.467 26.3933 206.537 27.7965C207.272 28.7988 208.474 29.2665 209.477 30.4024C210.679 31.8056 210.011 33.0752 210.546 34.8124C211.748 38.4875 209.543 37.2179 204.398 39.0888C202.193 39.8906 200.122 40.8929 197.583 40.5588C196.781 40.492 196.313 39.9575 195.779 39.5566C194.643 38.6879 193.975 38.0197 195.378 35.9484C198.184 37.6188 201.258 36.082 203.062 35.9484C203.931 35.8815 205.334 36.817 206.737 35.7479C207.272 35.4138 208.407 33.142 207.472 32.407C206.937 32.1397 206.804 32.407 206.136 32.4738V32.407C206.136 32.4738 206.136 32.1397 205.935 31.8724L205.868 31.8056C205.467 31.4047 204.332 32.0061 203.997 32.3402C202.995 33.2088 203.73 32.6742 201.124 32.5406C197.783 32.4738 198.518 31.2042 198.117 28.3311C197.984 27.1951 197.85 26.2597 197.65 25.1906C197.449 24.1883 196.915 22.8519 198.117 22.7183C199.253 22.5178 201.458 23.7874 202.594 22.6515C202.795 22.451 202.862 22.3174 202.995 22.1837C203.73 21.5824 203.129 22.6515 203.931 21.3151C204.265 20.7806 203.997 21.5156 204.265 20.7137C204.398 20.1792 204.064 20.5801 204.465 20.1792C204.599 20.0455 204.933 19.9119 205 19.9119C205.067 18.7092 204.532 18.4419 205.2 17.3728C205.735 16.6378 205.935 16.5042 206.336 15.4351C207.405 12.0942 204.332 9.28777 201.859 8.15186C200.456 7.48367 198.585 7.01594 196.781 7.55049C195.177 8.08504 194.041 9.0205 193.24 10.0896C192.304 11.3591 191.903 13.0964 192.171 15.1678C192.438 17.2392 193.44 18.4419 191.569 19.7115C191.235 19.9119 190.901 20.0456 190.567 20.246C189.899 20.7137 188.295 22.0501 187.827 22.1837C187.694 15.7023 191.569 9.42141 196.113 5.7464C196.915 5.07821 200.122 2.94002 201.458 2.73956C201.859 3.14047 202.193 3.47456 202.527 3.87548C202.26 4.20957 200.523 5.61276 199.988 5.94685ZM211.748 0H208.007C207.205 0.334093 204.599 -0.133633 199.454 2.40547C191.77 6.21413 186.825 14.6333 187.092 23.4533C187.426 35.4806 197.382 45.3698 209.61 45.3698C221.972 45.3698 232.061 35.8147 232.462 23.7206C232.729 16.8383 230.057 11.0919 226.582 7.41686C226.114 6.88231 225.713 6.54822 225.246 6.08049C219.7 0.467734 212.55 0.334093 211.748 0Z" fill="#9D9D9E"/>
<path d="M122.946 30.6695C122.812 26.9277 124.616 22.8517 127.824 21.3817C129.093 20.7804 130.029 20.5799 131.632 20.5799C137.379 20.5799 140.586 24.8563 140.185 30.7363H122.946V30.6695ZM146.666 40.3582H139.784C139.45 42.6968 138.715 44.9018 136.644 46.1046C134.773 47.1737 131.365 47.6414 128.96 46.9064C124.483 45.5032 122.478 40.8259 122.946 35.0795H147.001C147.268 33.5427 147.001 29.0659 146.666 27.5959C145.33 20.7804 141.121 16.5708 134.038 15.9026C123.48 14.8335 117.734 21.1145 116.331 30.2018C115.596 34.9459 116.13 40.2914 117.935 44.1C119.605 47.775 122.211 50.381 126.688 51.5837C132.701 53.1873 140.653 51.6505 144.461 46.3719C145.531 44.835 146.466 42.63 146.666 40.3582Z" fill="#9D9D9E"/>
<path d="M42.8306 21.7828V16.7046H36.6165C36.3492 17.5733 36.5497 39.4897 36.5497 42.4298C36.5497 45.1693 36.4161 48.4434 36.6165 51.1162H43.0979C43.2984 48.7107 43.0979 35.4138 43.0979 31.7388C43.0979 28.8656 43.5656 25.792 44.9688 23.9879C46.3052 22.3842 48.4434 20.7806 51.3834 20.6469C59.4016 20.3128 59.8694 25.6583 59.8694 31.6052V51.0494H66.4176V26.6606C66.2171 19.3774 60.738 15.4351 52.987 15.5687C48.9111 15.6355 45.3029 17.7069 43.2316 21.1815C43.1647 21.3151 43.0979 21.3819 43.0311 21.4488C42.8975 21.7828 43.0979 21.716 42.8306 21.7828Z" fill="#9D9D9E"/>
<path d="M0.133117 16.7713C-0.0673387 17.5063 0.0662943 30.9368 0.0662943 32.8745C0.0662943 38.22 -0.468253 43.0309 2.00403 47.1069C4.07541 50.5814 7.48315 52.586 13.1627 52.1851C17.5727 51.851 20.6464 49.9801 22.985 46.706C23.2523 46.305 23.1187 46.4387 23.4528 46.2382V51.2496H29.8005L29.7337 16.8381H23.386C23.1855 17.6399 23.3191 25.1904 23.3191 26.6604C23.3191 34.6786 24.856 46.7728 14.8332 47.5078C11.4254 47.775 9.15361 46.4387 8.0177 44.3673C6.74815 41.9618 6.68133 39.0886 6.68133 35.8813C6.68133 33.3422 6.88179 17.7067 6.48087 16.5708C6.01314 16.8381 6.01314 16.7713 5.07768 16.7713H0.133117Z" fill="#9D9D9E"/>
<path d="M106.709 39.5566C106.442 41.9621 105.84 44.3676 103.836 45.8376C101.898 47.2408 99.0916 47.7085 96.4189 46.8399C92.1425 45.3698 90.7393 39.8907 90.6725 34.2112C90.6725 28.4648 91.7416 23.0525 95.8843 21.1815C98.0225 20.1793 101.43 20.2461 103.301 21.5825C105.239 22.9856 105.974 24.7229 106.308 27.7298H112.723C112.789 23.2529 110.117 19.6447 107.578 17.9743C100.161 13.0297 83.9238 15.2347 83.9238 34.4116C83.9238 43.8998 87.7993 50.448 96.1516 51.8512C100.695 52.5862 105.105 51.584 107.978 49.4458C110.184 47.8421 113.19 43.9667 113.057 39.6235H106.709V39.5566Z" fill="#9D9D9E"/>
<path d="M166.311 0H163.438C163.104 0.200456 161.433 0.400917 160.832 0.601373C152.881 2.94002 154.484 10.5573 154.351 16.7715H148.538L148.471 21.2483L154.351 21.3151V51.0494H160.832V21.2483H168.65V16.7046H160.832C160.832 15.0342 160.832 13.2969 160.832 11.6264C160.832 8.68641 160.565 6.21412 165.042 5.81321C166.311 5.67957 168.917 6.08049 169.652 5.94685V0.668185L166.311 0Z" fill="#9D9D9E"/>
<path d="M72.5645 51.1829H78.979C79.1795 49.6461 79.0458 28.8656 79.0458 25.391C79.0458 23.921 79.2463 17.64 78.979 16.7046H72.6981L72.5645 51.1829Z" fill="#9D9D9E"/>
<path d="M189.965 49.7802C192.571 51.2502 198.919 52.3861 202.326 51.2502C204.932 50.3816 203.529 49.112 206.335 49.9139C207.004 50.1143 207.872 50.3816 208.34 50.7157L206.402 52.0521C205.066 53.0543 201.859 55.5934 201.324 56.9298C201.859 57.2639 201.992 57.5312 202.727 57.7985C203.796 56.4621 204.732 55.4598 206.001 54.2571C206.469 53.8562 209.275 51.5175 209.877 51.5843C210.545 51.6511 213.218 53.923 213.752 54.3239C215.289 55.7271 216.291 57.1303 216.96 57.7316C217.561 57.5312 217.962 57.1971 218.363 56.9298C217.695 55.393 214.755 53.0543 213.284 52.0521L211.414 50.7157C211.948 50.3148 212.817 50.1143 213.552 49.9139C214.888 49.5798 214.888 49.4461 215.69 50.248C216.625 51.1834 218.296 51.6512 219.966 51.718C221.77 51.7848 223.708 51.6511 225.445 51.2502C225.579 51.2502 229.588 50.1143 229.655 49.847L229.722 49.7802C225.98 48.2434 218.63 47.9093 214.22 48.7111C213.418 48.8448 209.81 49.9139 209.81 49.9139C209.275 49.9139 205.934 48.1098 199.921 48.2434C197.515 48.3102 191.635 48.9116 189.965 49.7802Z" fill="#9D9D9E"/>
<path d="M71.8975 8.6862H79.7152L79.782 1.53662H71.9643L71.8975 8.6862Z" fill="#9D9D9E"/>
<path d="M226.114 47.9087C229.054 48.7774 231.861 47.9088 233.798 46.5056C235.268 45.5033 237.407 43.0978 238.142 41.0933C235.536 41.6278 233.531 42.6969 231.527 43.8328C229.856 44.7683 226.716 46.5056 226.114 47.9087Z" fill="#9D9D9E"/>
<path d="M193.574 47.8419C192.505 45.7706 184.086 41.1601 181.613 41.0933C183.217 44.1669 185.556 47.1737 189.164 47.9756C190.233 48.176 192.638 48.3097 193.574 47.8419Z" fill="#9D9D9E"/>
<path d="M199.453 47.5083C199.921 45.8379 192.103 39.2228 190.9 38.9556C191.435 43.8333 193.573 48.3102 199.453 47.5083Z" fill="#9D9D9E"/>
<path d="M220.167 47.4411C221.303 47.7084 222.773 47.5079 223.842 47.1738C226.982 46.1716 228.653 42.4297 228.787 39.022C227.784 39.2892 220.501 45.1693 220.167 47.4411Z" fill="#9D9D9E"/>
<path d="M233.13 41.8284C237.206 41.4943 242.351 34.7457 242.351 30.937C239.277 32.5407 233.865 38.8884 233.13 41.8284Z" fill="#9D9D9E"/>
<path d="M186.557 41.8284C186.022 39.0221 180.209 32.4738 177.336 30.937C177.47 33.877 180.543 38.4875 183.016 40.2248C183.817 40.7593 185.354 41.8284 186.557 41.8284Z" fill="#9D9D9E"/>
<path d="M229.454 43.4987C231.058 42.8306 232.662 40.8928 233.33 39.0219C234.132 36.5496 233.664 33.8769 232.929 31.6719C231.325 32.8078 228.319 42.0287 229.454 43.4987Z" fill="#9D9D9E"/>
<path d="M190.366 43.5656C190.968 42.0287 189.832 38.5542 189.431 37.0842C189.097 36.0151 188.362 33.9437 187.827 32.9414C187.56 32.4737 187.226 32.1396 187.025 31.6719C186.691 32.006 186.558 32.6741 186.424 33.2087C185.956 35.0796 185.956 37.2178 186.491 39.0219C186.892 40.2246 187.359 40.9596 188.028 41.6947C189.03 42.8974 189.765 43.031 190.366 43.5656Z" fill="#9D9D9E"/>
<path d="M238.074 32.8082C238.408 32.8082 238.742 32.4741 239.277 32.0064C240.613 30.9373 241.415 29.935 242.15 28.3313C242.818 26.7277 243.62 22.8522 243.152 20.8477C242.284 21.2486 240.413 25.1909 240.012 26.1931C239.143 27.9304 238.074 30.6032 238.074 32.8082Z" fill="#9D9D9E"/>
<path d="M176.535 22.0505C176.535 25.5919 177.203 28.6656 179.408 31.071C179.742 31.4719 181.078 32.6078 181.68 32.8083C181.68 30.0019 179.475 24.9905 178.005 22.5851C177.671 22.1173 177.47 21.7832 177.002 21.2487C176.802 20.9814 176.735 20.6473 176.535 20.9814C176.468 21.1819 176.535 21.7832 176.535 22.0505Z" fill="#9D9D9E"/>
<path d="M182.682 31.6721C182.682 33.4094 183.417 35.414 184.352 36.3494C185.688 35.2135 186.29 26.5939 185.221 24.723L185.154 24.6562L185.087 24.5894C184.352 25.3244 183.818 26.5271 183.417 27.5962C182.882 28.9994 182.682 30.0017 182.682 31.6721Z" fill="#9D9D9E"/>
<path d="M235.335 36.3493C236.671 35.0798 237.273 32.1398 237.005 30.1352C236.738 28.5316 235.468 25.057 234.466 24.5225C233.664 26.7943 233.865 34.7457 235.335 36.3493Z" fill="#9D9D9E"/>
<path d="M239.678 23.9879C243.286 20.7806 241.749 12.896 240.68 11.6265C240.613 11.6933 240.613 11.6933 240.546 11.8937C239.477 14.1656 238.542 22.1838 239.678 23.9879Z" fill="#9D9D9E"/>
<path d="M180.009 23.9875L180.276 23.3861C180.477 22.5843 180.477 21.7825 180.477 20.9138C180.477 18.5084 180.21 13.497 179.007 11.6929C178.74 12.027 178.606 12.6283 178.472 13.0961C177.47 16.5706 177.336 21.3816 180.009 23.9875Z" fill="#9D9D9E"/>
<path d="M238.074 28.5986C239.21 27.0618 238.809 24.0549 238.074 22.3177C237.406 20.8477 235.669 18.3085 234.6 17.8408C234.466 21.8499 236.27 25.9927 238.074 28.5986Z" fill="#9D9D9E"/>
<path d="M181.68 28.5314C181.747 28.4645 181.747 28.4646 181.881 28.3309C183.751 25.9255 185.221 20.7804 185.155 17.9072C184.553 18.1077 183.618 19.2436 183.217 19.7781C182.682 20.5132 182.215 21.2481 181.747 22.1836C181.012 23.8541 180.544 26.7941 181.68 28.5314Z" fill="#9D9D9E"/>
<path d="M181.613 19.8451C182.882 18.8428 184.018 17.5065 185.021 15.836C185.756 14.7001 187.159 12.2946 187.359 10.7578C183.951 12.2278 181.011 15.6356 181.613 19.8451Z" fill="#9D9D9E"/>
<path d="M238.075 19.8451C238.476 17.4396 237.741 15.3682 236.605 13.965C235.803 12.8959 233.598 10.9582 232.462 10.6909C232.996 12.4282 233.798 14.3659 234.734 15.7691C236.07 17.8405 236.471 18.3082 238.075 19.8451Z" fill="#9D9D9E"/>
<path d="M238.676 14.8335C239.21 14.0985 239.077 12.7621 238.876 11.9603C238.409 9.82211 235.869 6.48117 234.399 5.81299C234.399 9.28755 236.872 13.6976 238.676 14.8335Z" fill="#9D9D9E"/>
<path d="M181.012 14.8338C182.883 14.2325 185.355 8.08515 185.288 5.67969C185.021 6.14742 183.35 7.28333 182.014 9.35471C181.279 10.4906 180.076 13.1634 181.012 14.8338Z" fill="#9D9D9E"/>
<path d="M11.3591 87.7426V85.1367C10.0228 87.0744 8.15186 88.0767 5.88003 88.0767C4.81093 88.0767 3.87547 87.8762 3.00683 87.4753C2.13819 87.0744 1.47001 86.6067 1.0691 86.0053C0.601366 85.404 0.334095 84.6689 0.200458 83.8003C0.0668205 83.2658 0 82.3303 0 81.0607V70.303H2.94002V79.9248C2.94002 81.4617 3.00684 82.5308 3.14047 83.0653C3.34093 83.8671 3.74184 84.4685 4.3432 84.8694C4.94457 85.3371 5.67957 85.5376 6.54821 85.5376C7.41686 85.5376 8.28549 85.2703 9.0205 84.8694C9.82232 84.4017 10.3569 83.8003 10.691 82.9985C11.0251 82.1967 11.1587 81.0608 11.1587 79.5907V70.303H14.0987V87.7426H11.3591ZM18.7092 87.7426V70.303H21.3819V72.7753C22.6515 70.9043 24.5224 69.9021 26.9279 69.9021C27.997 69.9021 28.9324 70.1025 29.8011 70.5034C30.6697 70.8375 31.3379 71.3721 31.7388 71.9734C32.2065 72.5748 32.4738 73.3098 32.6742 74.1116C32.8079 74.6462 32.8747 75.6485 32.8747 76.9848V87.6758H29.9347V77.1185C29.9347 75.9157 29.8679 74.9803 29.6006 74.4457C29.4001 73.8443 28.9992 73.3766 28.3979 73.0425C27.7965 72.7084 27.1283 72.508 26.3265 72.508C25.0569 72.508 23.9878 72.9089 23.0524 73.7107C22.1169 74.5125 21.716 76.0494 21.716 78.2544V87.7426H18.7092ZM37.3515 67.0289V63.6211H40.2916V67.0289H37.3515ZM37.3515 87.7426V70.303H40.2916V87.7426H37.3515ZM51.2498 85.0699L51.6507 87.6758C50.8489 87.8762 50.0471 87.9431 49.4457 87.9431C48.3766 87.9431 47.5748 87.7426 46.9734 87.4085C46.372 87.0744 45.9711 86.6067 45.7039 86.0721C45.4366 85.5376 45.3698 84.3349 45.3698 82.5976V72.5748H43.1647V70.303H45.3698V65.9598L48.3098 64.1557V70.2362H51.2498V72.508H48.3098V82.7312C48.3098 83.5998 48.3766 84.1344 48.4434 84.3349C48.5102 84.6021 48.7107 84.8026 48.978 84.9362C49.2452 85.0699 49.5125 85.1367 49.9802 85.1367C50.3143 85.2035 50.7152 85.1367 51.2498 85.0699ZM66.0835 82.063L69.1572 82.4639C68.6894 84.268 67.8208 85.6044 66.4844 86.6067C65.2149 87.609 63.5444 88.0767 61.5398 88.0767C59.0007 88.0767 56.9962 87.2749 55.4594 85.738C53.9894 84.2012 53.2543 81.9962 53.2543 79.123C53.2543 76.183 53.9893 73.9112 55.5262 72.3075C57.063 70.7039 59.0007 69.9021 61.4062 69.9021C63.7449 69.9021 65.6158 70.7039 67.0858 72.3075C68.5558 73.9112 69.2908 76.1162 69.2908 78.9894C69.2908 79.1898 69.2908 79.4571 69.2908 79.7912H56.328C56.4616 81.7289 56.9962 83.1989 57.9316 84.2012C58.9339 85.2035 60.1367 85.738 61.6067 85.738C62.6758 85.738 63.6112 85.4708 64.3462 84.8694C65.0144 84.268 65.6158 83.3326 66.0835 82.063ZM56.3948 77.3857H66.1503C66.0167 75.9157 65.6158 74.7798 65.0144 74.1116C64.0789 72.9757 62.8762 72.4412 61.3394 72.4412C60.003 72.4412 58.8671 72.9089 57.9316 73.7775C56.9962 74.5794 56.4616 75.8489 56.3948 77.3857ZM82.8549 87.7426V72.5748H80.249V70.303H82.8549V68.4321C82.8549 67.2293 82.9218 66.3607 83.189 65.8261C83.4563 65.0243 83.9909 64.423 84.659 63.9552C85.394 63.4875 86.3963 63.2202 87.6659 63.2202C88.4677 63.2202 89.4031 63.287 90.4054 63.4875L89.9377 66.0934C89.3363 66.0266 88.735 65.9598 88.2004 65.9598C87.3318 65.9598 86.6636 66.1602 86.3295 66.4943C85.9954 66.8952 85.795 67.5634 85.795 68.6325V70.2362H89.2027V72.508H85.8618V87.6758H82.8549V87.7426ZM90.4054 78.9894C90.4054 75.7821 91.2741 73.3766 93.0782 71.8398C94.615 70.5702 96.4191 69.9021 98.5573 69.9021C100.963 69.9021 102.9 70.7039 104.437 72.2407C105.974 73.7775 106.709 75.9825 106.709 78.7221C106.709 80.9271 106.375 82.7312 105.707 84.0008C105.039 85.2703 104.036 86.2726 102.767 87.0076C101.497 87.7426 100.094 88.0767 98.5573 88.0767C96.085 88.0767 94.1473 87.2749 92.6104 85.738C91.1404 84.2012 90.4054 81.9294 90.4054 78.9894ZM93.4123 78.9894C93.4123 81.1944 93.88 82.8649 94.8823 84.0008C95.8845 85.0699 97.0873 85.6712 98.5573 85.6712C100.027 85.6712 101.23 85.1367 102.232 84.0008C103.235 82.8649 103.702 81.1944 103.702 78.9226C103.702 76.7844 103.235 75.1807 102.232 74.0448C101.23 72.9089 100.027 72.3743 98.5573 72.3743C97.0205 72.3743 95.8177 72.9089 94.8823 74.0448C93.9468 75.1139 93.4123 76.7844 93.4123 78.9894ZM110.184 87.7426V70.303H112.856V72.9757C113.525 71.7062 114.193 70.9043 114.727 70.5703C115.329 70.1693 115.93 69.9689 116.598 69.9689C117.601 69.9689 118.603 70.303 119.605 70.9043L118.536 73.6439C117.801 73.243 117.133 73.0425 116.398 73.0425C115.73 73.0425 115.128 73.243 114.661 73.6439C114.126 74.0448 113.792 74.5794 113.591 75.2475C113.257 76.3166 113.057 77.4525 113.057 78.7221V87.8094H110.184V87.7426ZM142.123 81.328L144.996 81.7289C144.662 83.6667 143.86 85.2703 142.591 86.4062C141.254 87.5421 139.651 88.0767 137.78 88.0767C135.441 88.0767 133.503 87.2749 132.033 85.738C130.63 84.2012 129.895 81.9294 129.895 79.0562C129.895 77.1853 130.229 75.5148 130.831 74.1116C131.432 72.7084 132.367 71.6394 133.637 70.9712C134.907 70.2362 136.31 69.9021 137.78 69.9021C139.651 69.9021 141.254 70.3698 142.457 71.3053C143.66 72.3075 144.395 73.6439 144.796 75.3812L141.922 75.8489C141.655 74.713 141.121 73.7775 140.452 73.1762C139.717 72.5748 138.916 72.3075 137.913 72.3075C136.443 72.3075 135.241 72.8421 134.305 73.9112C133.37 74.9803 132.902 76.6507 132.902 78.9894C132.902 81.328 133.37 82.9985 134.238 84.0676C135.107 85.1367 136.31 85.6712 137.713 85.6712C138.849 85.6712 139.851 85.3371 140.586 84.6021C141.388 83.8671 141.922 82.798 142.123 81.328ZM147.535 87.7426V63.6879H150.475V72.3743C151.878 70.7707 153.616 69.9689 155.687 69.9689C156.957 69.9689 158.093 70.2361 159.028 70.7707C159.963 71.3052 160.632 71.9734 161.033 72.8421C161.434 73.7107 161.634 75.0471 161.634 76.7844V87.8094H158.694V76.7844C158.694 75.3144 158.36 74.2453 157.692 73.5771C157.09 72.9089 156.155 72.5748 155.019 72.5748C154.15 72.5748 153.348 72.8421 152.547 73.243C151.745 73.7107 151.21 74.3121 150.876 75.1139C150.542 75.9157 150.408 76.9848 150.408 78.3212V87.8094H147.535V87.7426ZM166.178 67.0289V63.6211H169.118V67.0289H166.178ZM166.178 87.7426V70.303H169.118V87.7426H166.178ZM173.594 87.7426V63.6879H176.534V87.7426H173.594ZM192.37 87.7426V85.5376C191.301 87.2081 189.631 88.1435 187.493 88.1435C186.09 88.1435 184.82 87.7426 183.684 87.0076C182.548 86.2726 181.613 85.2035 180.944 83.8003C180.343 82.4639 180.009 80.8603 180.009 79.0562C180.009 77.3189 180.276 75.7821 180.878 74.3121C181.479 72.9089 182.281 71.8398 183.484 71.1048C184.62 70.3698 185.956 69.9689 187.359 69.9689C188.428 69.9689 189.297 70.2362 190.165 70.6371C190.967 71.1048 191.635 71.6393 192.17 72.3743V63.6879H195.11V87.7426H192.37ZM183.016 79.0562C183.016 81.2612 183.484 82.9317 184.419 84.0676C185.355 85.2035 186.49 85.738 187.76 85.738C189.03 85.738 190.165 85.2035 191.034 84.1344C191.97 83.0653 192.37 81.4617 192.37 79.3235C192.37 76.918 191.903 75.1807 190.967 74.1116C190.099 72.9757 188.896 72.4412 187.56 72.4412C186.223 72.4412 185.154 72.9757 184.285 74.0448C183.484 75.0471 183.016 76.7175 183.016 79.0562ZM199.787 87.7426V70.303H202.46V72.9757C203.128 71.7062 203.73 70.9043 204.331 70.5703C204.932 70.1693 205.534 69.9689 206.202 69.9689C207.204 69.9689 208.206 70.303 209.209 70.9043L208.14 73.6439C207.405 73.243 206.736 73.0425 206.001 73.0425C205.4 73.0425 204.799 73.243 204.264 73.6439C203.73 74.0448 203.396 74.5794 203.195 75.2475C202.861 76.3166 202.727 77.4525 202.727 78.7221V87.8094H199.787V87.7426ZM222.907 82.063L225.98 82.4639C225.512 84.268 224.577 85.6044 223.307 86.6067C222.038 87.609 220.367 88.0767 218.296 88.0767C215.757 88.0767 213.752 87.2749 212.282 85.738C210.746 84.2012 210.077 81.9962 210.077 79.123C210.077 76.183 210.812 73.9112 212.349 72.3075C213.886 70.7039 215.824 69.9021 218.229 69.9021C220.568 69.9021 222.439 70.7039 223.909 72.3075C225.379 73.9112 226.114 76.1162 226.114 78.9894C226.114 79.1898 226.114 79.4571 226.114 79.7912H213.151C213.285 81.7289 213.819 83.1989 214.755 84.2012C215.757 85.2035 216.96 85.738 218.363 85.738C219.432 85.738 220.367 85.4708 221.102 84.8694C221.837 84.268 222.439 83.3326 222.907 82.063ZM213.218 77.3857H222.907C222.773 75.9157 222.439 74.7798 221.771 74.1116C220.835 72.9757 219.632 72.4412 218.096 72.4412C216.759 72.4412 215.623 72.9089 214.688 73.7775C213.819 74.5794 213.285 75.8489 213.218 77.3857ZM229.655 87.7426V70.303H232.328V72.7753C233.597 70.9043 235.468 69.9021 237.874 69.9021C238.943 69.9021 239.878 70.1025 240.747 70.5034C241.616 70.8375 242.284 71.3721 242.685 71.9734C243.153 72.5748 243.42 73.3098 243.62 74.1116C243.687 74.6462 243.821 75.6485 243.821 76.9848V87.6758H240.881V77.1185C240.881 75.9157 240.747 74.9803 240.547 74.4457C240.346 73.8443 239.945 73.3766 239.344 73.0425C238.742 72.7084 238.074 72.508 237.272 72.508C236.003 72.508 234.934 72.9089 234.065 73.7107C233.13 74.5125 232.729 76.0494 232.729 78.2544V87.7426H229.655Z" fill="#9D9D9E"/>
</g>
<defs>
<clipPath id="clip0_7716_51301">
<rect width="243.821" height="88" fill="white"/>
</clipPath>
</defs>
</svg>
