<svg width="64" height="64" viewBox="0 0 64 64" fill="none" xmlns="http://www.w3.org/2000/svg">
<path d="M15.9997 34.6663C19.6816 34.6663 22.6663 31.6816 22.6663 27.9997C22.6663 24.3178 19.6816 21.333 15.9997 21.333C12.3178 21.333 9.33301 24.3178 9.33301 27.9997C9.33301 31.6816 12.3178 34.6663 15.9997 34.6663Z" fill="#9D988F"/>
<path d="M2.66699 46.2662C2.66699 46.2662 6.40033 37.8662 16.0003 37.8662C25.6003 37.8662 29.3337 46.2662 29.3337 46.2662V50.6662H2.66699V46.2662ZM61.3337 46.2662C61.3337 46.2662 57.6003 37.8662 48.0003 37.8662C38.4003 37.8662 34.667 46.2662 34.667 46.2662V50.6662H61.3337V46.2662Z" fill="#455A64"/>
<path d="M32 30.667C36.4183 30.667 40 27.0853 40 22.667C40 18.2487 36.4183 14.667 32 14.667C27.5817 14.667 24 18.2487 24 22.667C24 27.0853 27.5817 30.667 32 30.667Z" fill="#D4BC99"/>
<path d="M48 45.4668C48 45.4668 43.6 35.4668 32 35.4668C20.4 35.4668 16 45.4668 16 45.4668V50.6668H48V45.4668Z" fill="url(#paint0_linear_8536_13751)"/>
<path d="M47.9997 34.6663C51.6816 34.6663 54.6663 31.6816 54.6663 27.9997C54.6663 24.3178 51.6816 21.333 47.9997 21.333C44.3178 21.333 41.333 24.3178 41.333 27.9997C41.333 31.6816 44.3178 34.6663 47.9997 34.6663Z" fill="#9D988F"/>
<defs>
<linearGradient id="paint0_linear_8536_13751" x1="23.1385" y1="35.9418" x2="37.9382" y2="58.0391" gradientUnits="userSpaceOnUse">
<stop stop-color="#CDFF7C"/>
<stop offset="0.460938" stop-color="#8CFFAC"/>
<stop offset="0.994792" stop-color="#93FFEB"/>
</linearGradient>
</defs>
</svg>
