<svg width="64" height="64" viewBox="0 0 64 64" fill="none" xmlns="http://www.w3.org/2000/svg">
<path d="M31.9997 49.333L25.333 41.333V33.333H38.6663V41.333L31.9997 49.333Z" fill="#D5BC99"/>
<path d="M43.9997 28.0003C45.4724 28.0003 46.6663 26.8064 46.6663 25.3337C46.6663 23.8609 45.4724 22.667 43.9997 22.667C42.5269 22.667 41.333 23.8609 41.333 25.3337C41.333 26.8064 42.5269 28.0003 43.9997 28.0003Z" fill="#F0D7B1"/>
<path d="M19.9997 28.0003C21.4724 28.0003 22.6663 26.8064 22.6663 25.3337C22.6663 23.8609 21.4724 22.667 19.9997 22.667C18.5269 22.667 17.333 23.8609 17.333 25.3337C17.333 26.8064 18.5269 28.0003 19.9997 28.0003Z" fill="#F0D7B1"/>
<path d="M44 17.3335C44 7.20014 20 10.6668 20 17.3335V26.6668C20 33.3335 25.3333 38.6668 32 38.6668C38.6667 38.6668 44 33.3335 44 26.6668V17.3335Z" fill="#FADCB0"/>
<path d="M32.0003 5.33301C23.867 5.33301 18.667 11.8663 18.667 19.9997V23.0663L21.3337 25.333V18.6663L37.3337 13.333L42.667 18.6663V25.333L45.3337 23.0663V19.9997C45.3337 14.6663 44.0003 9.33301 37.3337 7.99967L36.0003 5.33301H32.0003Z" fill="#424242"/>
<path d="M37.3333 26.6667C38.0697 26.6667 38.6667 26.0697 38.6667 25.3333C38.6667 24.597 38.0697 24 37.3333 24C36.597 24 36 24.597 36 25.3333C36 26.0697 36.597 26.6667 37.3333 26.6667Z" fill="black"/>
<path d="M26.6663 26.6667C27.4027 26.6667 27.9997 26.0697 27.9997 25.3333C27.9997 24.597 27.4027 24 26.6663 24C25.93 24 25.333 24.597 25.333 25.3333C25.333 26.0697 25.93 26.6667 26.6663 26.6667Z" fill="black"/>
<path d="M31.9997 57.333L25.333 41.333L31.9997 42.6663L38.6663 41.333L31.9997 57.333Z" fill="#141414"/>
<path d="M30.6663 46.667L29.733 52.667L31.9997 58.0003L34.2663 52.667L33.333 46.667L34.6663 45.3337L31.9997 42.667L29.333 45.3337L30.6663 46.667Z" fill="url(#paint0_linear_8536_13788)"/>
<path d="M38.667 41.333L32.0003 57.333L25.3337 41.333C25.3337 41.333 10.667 43.9997 10.667 58.6663H53.3337C53.3337 43.9997 38.667 41.333 38.667 41.333Z" fill="#546E7A"/>
<defs>
<linearGradient id="paint0_linear_8536_13788" x1="30.5228" y1="43.1462" x2="38.0313" y2="44.9984" gradientUnits="userSpaceOnUse">
<stop stop-color="#CDFF7C"/>
<stop offset="0.460938" stop-color="#8CFFAC"/>
<stop offset="0.994792" stop-color="#93FFEB"/>
</linearGradient>
</defs>
</svg>
